SplineFontDB: 3.0
FontName: Pontano
FullName: Pontano Sans
FamilyName: Pontano Sans
Weight: Book
Copyright: Copyright (c) 2011 by vernon adams. All rights reserved.
Version: 
ItalicAngle: 0
UnderlinePosition: -205
UnderlineWidth: 102
Ascent: 1638
Descent: 410
sfntRevision: 0x00010000
LayerCount: 2
Layer: 0 1 "Back"  1
Layer: 1 1 "Fore"  0
XUID: [1021 14 500265001 11752513]
FSType: 8
OS2Version: 3
OS2_WeightWidthSlopeOnly: 0
OS2_UseTypoMetrics: 1
CreationTime: 1330539067
ModificationTime: 1330542283
PfmFamily: 81
TTFWeight: 400
TTFWidth: 5
LineGap: 0
VLineGap: 0
Panose: 0 0 0 0 0 0 0 0 0 0
OS2TypoAscent: 387
OS2TypoAOffset: 1
OS2TypoDescent: -189
OS2TypoDOffset: 1
OS2TypoLinegap: 0
OS2WinAscent: -8
OS2WinAOffset: 1
OS2WinDescent: 26
OS2WinDOffset: 1
HheadAscent: -8
HheadAOffset: 1
HheadDescent: -26
HheadDOffset: 1
OS2SubXSize: 1434
OS2SubYSize: 1331
OS2SubXOff: 0
OS2SubYOff: 287
OS2SupXSize: 1434
OS2SupYSize: 1331
OS2SupXOff: 0
OS2SupYOff: 977
OS2StrikeYSize: 102
OS2StrikeYPos: 512
OS2Vendor: 'newt'
OS2CodePages: 00000093.00000000
OS2UnicodeRanges: 800000ef.4000004b.00000000.00000000
MarkAttachClasses: 1
DEI: 91125
ShortTable: maxp 16
  1
  0
  365
  103
  5
  87
  4
  1
  0
  0
  0
  0
  0
  0
  3
  1
EndShort
LangName: 1033 "" "" "Regular" "vernon adams : Pontano Sans : 29-2-2012" "" "Version " "" "Pontano Sans is a trademark of vernon adams." "vernon adams" "" "Copyright (c) 2011 by vernon adams. All rights reserved." "" "newtypography.co.uk" "" "" "" "" "" "Pontano Sans" 
GaspTable: 1 65535 2
Encoding: UnicodeBmp
Compacted: 1
UnicodeInterp: none
NameList: Adobe Glyph List
DisplaySize: -48
AntiAlias: 1
FitToEm: 1
WinInfo: 0 24 10
BeginPrivate: 0
EndPrivate
BeginChars: 65542 365

StartChar: .notdef
Encoding: 65536 -1 0
Width: 748
Flags: W
LayerCount: 2
Fore
SplineSet
68 0 m 1,0,-1
 68 1365 l 1,1,-1
 612 1365 l 1,2,-1
 612 0 l 1,3,-1
 68 0 l 1,0,-1
136 68 m 1,4,-1
 544 68 l 1,5,-1
 544 1297 l 1,6,-1
 136 1297 l 1,7,-1
 136 68 l 1,4,-1
EndSplineSet
EndChar

StartChar: exclam
Encoding: 33 33 5
Width: 428
Flags: W
LayerCount: 2
Fore
SplineSet
191 305 m 1,0,-1
 191 1464 l 1,1,-1
 307 1464 l 1,2,-1
 307 305 l 1,3,-1
 191 305 l 1,0,-1
138 197 m 1,4,-1
 307 197 l 1,5,-1
 307 0 l 1,6,-1
 138 0 l 1,7,-1
 138 197 l 1,4,-1
EndSplineSet
EndChar

StartChar: quotedbl
Encoding: 34 34 6
Width: 650
Flags: W
LayerCount: 2
Fore
SplineSet
527 1464 m 1,0,-1
 476 1000 l 1,1,-1
 425 1000 l 1,2,-1
 373 1464 l 1,3,-1
 527 1464 l 1,0,-1
123 1464 m 1,4,-1
 277 1464 l 1,5,-1
 226 1000 l 1,6,-1
 175 1000 l 1,7,-1
 123 1464 l 1,4,-1
EndSplineSet
EndChar

StartChar: numbersign
Encoding: 35 35 7
Width: 1221
Flags: W
LayerCount: 2
Fore
SplineSet
51 551 m 1,0,-1
 80 649 l 1,1,-1
 1106 649 l 1,2,-1
 1077 551 l 1,3,-1
 51 551 l 1,0,-1
1041 1464 m 1,4,-1
 740 0 l 1,5,-1
 606 0 l 1,6,-1
 902 1463 l 1,7,-1
 1041 1464 l 1,4,-1
278 0 m 1,8,-1
 144 0 l 1,9,-1
 440 1463 l 1,10,-1
 579 1463 l 1,11,-1
 278 0 l 1,8,-1
149 999 m 1,12,-1
 1175 999 l 1,13,-1
 1146 901 l 1,14,-1
 120 901 l 1,15,-1
 149 999 l 1,12,-1
EndSplineSet
EndChar

StartChar: dollar
Encoding: 36 36 8
Width: 1323
Flags: W
LayerCount: 2
Fore
SplineSet
676 1482 m 0,0,1
 763 1482 763 1482 836 1467 c 128,-1,2
 909 1452 909 1452 970.5 1420.5 c 128,-1,3
 1032 1389 1032 1389 1083 1340 c 128,-1,4
 1134 1291 1134 1291 1178 1224 c 1,5,-1
 1074 1148 l 1,6,7
 1048 1193 1048 1193 1012 1232.5 c 128,-1,8
 976 1272 976 1272 929 1301.5 c 128,-1,9
 882 1331 882 1331 823 1347.5 c 128,-1,10
 764 1364 764 1364 692 1364 c 0,11,12
 615 1364 615 1364 549.5 1350 c 128,-1,13
 484 1336 484 1336 437 1307 c 128,-1,14
 390 1278 390 1278 363.5 1233.5 c 128,-1,15
 337 1189 337 1189 337 1128 c 0,16,17
 337 1081 337 1081 356 1045 c 128,-1,18
 375 1009 375 1009 407 980.5 c 128,-1,19
 439 952 439 952 482.5 930.5 c 128,-1,20
 526 909 526 909 576 892 c 2,21,-1
 675 860 l 2,22,23
 741 839 741 839 782 824.5 c 128,-1,24
 823 810 823 810 852.5 797.5 c 128,-1,25
 882 785 882 785 908 772.5 c 128,-1,26
 934 760 934 760 971 742 c 0,27,28
 1023 717 1023 717 1067 686 c 128,-1,29
 1111 655 1111 655 1143 614 c 128,-1,30
 1175 573 1175 573 1193 519 c 128,-1,31
 1211 465 1211 465 1211 393 c 0,32,33
 1211 294 1211 294 1173 216 c 128,-1,34
 1135 138 1135 138 1065.5 84.5 c 128,-1,35
 996 31 996 31 897 3 c 128,-1,36
 798 -25 798 -25 675 -25 c 0,37,38
 620 -25 620 -25 560 -17 c 128,-1,39
 500 -9 500 -9 440.5 10 c 128,-1,40
 381 29 381 29 325 59 c 128,-1,41
 269 89 269 89 223.5 133.5 c 128,-1,42
 178 178 178 178 145 237 c 128,-1,43
 112 296 112 296 98 373 c 1,44,-1
 221 426 l 1,45,46
 309 101 309 101 684 101 c 0,47,48
 751 101 751 101 818 115 c 128,-1,49
 885 129 885 129 938 162 c 128,-1,50
 991 195 991 195 1024.5 250 c 128,-1,51
 1058 305 1058 305 1058 388 c 0,52,53
 1058 439 1058 439 1043.5 480 c 128,-1,54
 1029 521 1029 521 993 556 c 128,-1,55
 957 591 957 591 897.5 622 c 128,-1,56
 838 653 838 653 748 685 c 2,57,-1
 638 724 l 1,58,59
 540 756 540 756 473.5 784 c 128,-1,60
 407 812 407 812 370 832 c 0,61,62
 275 884 275 884 229.5 954 c 128,-1,63
 184 1024 184 1024 184 1116 c 0,64,65
 184 1210 184 1210 226 1279 c 128,-1,66
 268 1348 268 1348 337 1393 c 128,-1,67
 406 1438 406 1438 494.5 1460 c 128,-1,68
 583 1482 583 1482 676 1482 c 0,0,1
642 -201 m 1,69,-1
 642 1674 l 1,70,-1
 731 1674 l 1,71,-1
 731 -201 l 1,72,-1
 642 -201 l 1,69,-1
EndSplineSet
EndChar

StartChar: percent
Encoding: 37 37 9
Width: 1677
Flags: W
LayerCount: 2
Fore
SplineSet
190 52 m 1,0,-1
 1426 1481 l 1,1,-1
 1503 1415 l 1,2,-1
 268 -14 l 1,3,-1
 190 52 l 1,0,-1
357 1466 m 0,4,5
 433 1466 433 1466 489.5 1435.5 c 128,-1,6
 546 1405 546 1405 584 1356 c 128,-1,7
 622 1307 622 1307 641 1245 c 128,-1,8
 660 1183 660 1183 660 1120 c 256,9,10
 660 1057 660 1057 641 995 c 128,-1,11
 622 933 622 933 584.5 884 c 128,-1,12
 547 835 547 835 490 804.5 c 128,-1,13
 433 774 433 774 357 774 c 0,14,15
 284 774 284 774 227 802 c 128,-1,16
 170 830 170 830 130.5 877.5 c 128,-1,17
 91 925 91 925 70.5 987 c 128,-1,18
 50 1049 50 1049 50 1118 c 0,19,20
 50 1186 50 1186 70.5 1249 c 128,-1,21
 91 1312 91 1312 130 1360 c 128,-1,22
 169 1408 169 1408 226 1437 c 128,-1,23
 283 1466 283 1466 357 1466 c 0,4,5
357 1374 m 0,24,25
 310 1374 310 1374 273.5 1354 c 128,-1,26
 237 1334 237 1334 212 1299.5 c 128,-1,27
 187 1265 187 1265 174 1219.5 c 128,-1,28
 161 1174 161 1174 161 1123 c 0,29,30
 161 1073 161 1073 174 1026.5 c 128,-1,31
 187 980 187 980 212 945 c 128,-1,32
 237 910 237 910 273.5 889 c 128,-1,33
 310 868 310 868 357 868 c 0,34,35
 405 868 405 868 440.5 890 c 128,-1,36
 476 912 476 912 500 948.5 c 128,-1,37
 524 985 524 985 536 1032 c 128,-1,38
 548 1079 548 1079 548 1130 c 0,39,40
 548 1176 548 1176 535 1219.5 c 128,-1,41
 522 1263 522 1263 497.5 1297.5 c 128,-1,42
 473 1332 473 1332 437.5 1353 c 128,-1,43
 402 1374 402 1374 357 1374 c 0,24,25
1325 692 m 0,44,45
 1401 692 1401 692 1458 661.5 c 128,-1,46
 1515 631 1515 631 1553 582 c 128,-1,47
 1591 533 1591 533 1609.5 471 c 128,-1,48
 1628 409 1628 409 1628 346 c 256,49,50
 1628 283 1628 283 1609.5 221 c 128,-1,51
 1591 159 1591 159 1553.5 110 c 128,-1,52
 1516 61 1516 61 1459 30.5 c 128,-1,53
 1402 0 1402 0 1325 0 c 0,54,55
 1247 0 1247 0 1189.5 30 c 128,-1,56
 1132 60 1132 60 1094 108.5 c 128,-1,57
 1056 157 1056 157 1037.5 218.5 c 128,-1,58
 1019 280 1019 280 1019 344 c 0,59,60
 1019 411 1019 411 1039 474 c 128,-1,61
 1059 537 1059 537 1098 585.5 c 128,-1,62
 1137 634 1137 634 1194 663 c 128,-1,63
 1251 692 1251 692 1325 692 c 0,44,45
1325 599 m 0,64,65
 1276 599 1276 599 1239.5 578 c 128,-1,66
 1203 557 1203 557 1178.5 521.5 c 128,-1,67
 1154 486 1154 486 1141.5 439.5 c 128,-1,68
 1129 393 1129 393 1129 341 c 0,69,70
 1129 294 1129 294 1142 249.5 c 128,-1,71
 1155 205 1155 205 1180.5 170.5 c 128,-1,72
 1206 136 1206 136 1242 114.5 c 128,-1,73
 1278 93 1278 93 1325 93 c 0,74,75
 1370 93 1370 93 1406 114 c 128,-1,76
 1442 135 1442 135 1466.5 170 c 128,-1,77
 1491 205 1491 205 1504 251.5 c 128,-1,78
 1517 298 1517 298 1517 348 c 0,79,80
 1517 396 1517 396 1504.5 441 c 128,-1,81
 1492 486 1492 486 1468 521.5 c 128,-1,82
 1444 557 1444 557 1408 578 c 128,-1,83
 1372 599 1372 599 1325 599 c 0,64,65
EndSplineSet
EndChar

StartChar: ampersand
Encoding: 38 38 10
Width: 1419
Flags: W
LayerCount: 2
Fore
SplineSet
999 1211 m 0,0,1
 999 1152 999 1152 978 1101.5 c 128,-1,2
 957 1051 957 1051 915 1005.5 c 128,-1,3
 873 960 873 960 810.5 918.5 c 128,-1,4
 748 877 748 877 666 836 c 1,5,-1
 1063 381 l 1,6,7
 1077 404 1077 404 1089.5 435.5 c 128,-1,8
 1102 467 1102 467 1113 505 c 0,9,10
 1125 546 1125 546 1132.5 577 c 128,-1,11
 1140 608 1140 608 1145.5 640 c 128,-1,12
 1151 672 1151 672 1156.5 709.5 c 128,-1,13
 1162 747 1162 747 1170 801 c 1,14,-1
 1300 782 l 1,15,16
 1283 635 1283 635 1247.5 511.5 c 128,-1,17
 1212 388 1212 388 1158 285 c 1,18,19
 1172 271 1172 271 1189 251 c 128,-1,20
 1206 231 1206 231 1229 208 c 1,21,-1
 1305 127 l 2,22,23
 1322 110 1322 110 1341 93 c 128,-1,24
 1360 76 1360 76 1382 57 c 1,25,-1
 1309 -28 l 1,26,27
 1282 -6 1282 -6 1259.5 14 c 128,-1,28
 1237 34 1237 34 1216.5 54 c 128,-1,29
 1196 74 1196 74 1175 95.5 c 128,-1,30
 1154 117 1154 117 1130 141 c 2,31,-1
 1077 195 l 1,32,33
 868 -26 868 -26 571 -26 c 0,34,35
 465 -26 465 -26 376.5 8 c 128,-1,36
 288 42 288 42 223.5 101 c 128,-1,37
 159 160 159 160 123 240.5 c 128,-1,38
 87 321 87 321 87 413 c 0,39,40
 87 492 87 492 114 560.5 c 128,-1,41
 141 629 141 629 191.5 687 c 128,-1,42
 242 745 242 745 313 791.5 c 128,-1,43
 384 838 384 838 473 873 c 1,44,45
 392 964 392 964 353 1043 c 128,-1,46
 314 1122 314 1122 314 1210 c 0,47,48
 314 1275 314 1275 342.5 1327 c 128,-1,49
 371 1379 371 1379 419 1415 c 128,-1,50
 467 1451 467 1451 530 1470 c 128,-1,51
 593 1489 593 1489 662 1489 c 0,52,53
 734 1489 734 1489 796 1470 c 128,-1,54
 858 1451 858 1451 903 1415.5 c 128,-1,55
 948 1380 948 1380 973.5 1328.5 c 128,-1,56
 999 1277 999 1277 999 1211 c 0,0,1
598 917 m 1,57,58
 682 956 682 956 735.5 994 c 128,-1,59
 789 1032 789 1032 819 1068 c 128,-1,60
 849 1104 849 1104 860 1138.5 c 128,-1,61
 871 1173 871 1173 871 1205 c 0,62,63
 871 1248 871 1248 854.5 1282.5 c 128,-1,64
 838 1317 838 1317 810 1341 c 128,-1,65
 782 1365 782 1365 745 1378 c 128,-1,66
 708 1391 708 1391 667 1391 c 0,67,68
 625 1391 625 1391 585.5 1378 c 128,-1,69
 546 1365 546 1365 515.5 1341.5 c 128,-1,70
 485 1318 485 1318 466.5 1284.5 c 128,-1,71
 448 1251 448 1251 448 1209 c 0,72,73
 448 1079 448 1079 598 917 c 1,57,58
592 85 m 0,74,75
 646 85 646 85 700.5 98 c 128,-1,76
 755 111 755 111 806.5 136 c 128,-1,77
 858 161 858 161 905 198 c 128,-1,78
 952 235 952 235 991 283 c 1,79,-1
 680 633 l 2,80,81
 634 684 634 684 601 722 c 128,-1,82
 568 760 568 760 546 785 c 1,83,84
 462 744 462 744 403 703.5 c 128,-1,85
 344 663 344 663 306 618.5 c 128,-1,86
 268 574 268 574 250.5 525 c 128,-1,87
 233 476 233 476 233 419 c 0,88,89
 233 356 233 356 254 295.5 c 128,-1,90
 275 235 275 235 319 188.5 c 128,-1,91
 363 142 363 142 431 113.5 c 128,-1,92
 499 85 499 85 592 85 c 0,74,75
EndSplineSet
EndChar

StartChar: quotesingle
Encoding: 39 39 11
Width: 436
Flags: W
LayerCount: 2
Fore
SplineSet
100 1476 m 1,0,-1
 100 1640 l 1,1,-1
 300 1640 l 1,2,-1
 300 1608 l 1,3,-1
 300 1550 l 2,4,5
 300 1494 300 1494 296.5 1440.5 c 128,-1,6
 293 1387 293 1387 279 1337.5 c 128,-1,7
 265 1288 265 1288 237 1244 c 128,-1,8
 209 1200 209 1200 159 1165 c 1,9,-1
 110 1228 l 1,10,11
 123 1240 123 1240 137 1260 c 128,-1,12
 151 1280 151 1280 162 1306 c 128,-1,13
 173 1332 173 1332 180.5 1365.5 c 128,-1,14
 188 1399 188 1399 189 1438 c 1,15,-1
 100 1476 l 1,0,-1
EndSplineSet
EndChar

StartChar: parenleft
Encoding: 40 40 12
Width: 602
Flags: W
LayerCount: 2
Fore
SplineSet
523 1547 m 1,0,-1
 560 1452 l 1,1,2
 363 1396 363 1396 274 1209.5 c 128,-1,3
 185 1023 185 1023 185 703 c 0,4,5
 185 382 185 382 274 196 c 128,-1,6
 363 10 363 10 560 -43 c 1,7,-1
 523 -140 l 1,8,9
 413 -113 413 -113 323 -54 c 128,-1,10
 233 5 233 5 169 105.5 c 128,-1,11
 105 206 105 206 69.5 353 c 128,-1,12
 34 500 34 500 34 703 c 0,13,14
 34 1431 34 1431 523 1547 c 1,0,-1
EndSplineSet
EndChar

StartChar: parenright
Encoding: 41 41 13
Width: 602
Flags: W
LayerCount: 2
Fore
SplineSet
79 -140 m 1,0,-1
 42 -45 l 1,1,2
 239 11 239 11 328 197.5 c 128,-1,3
 417 384 417 384 417 704 c 0,4,5
 417 1025 417 1025 328 1211 c 128,-1,6
 239 1397 239 1397 42 1450 c 1,7,-1
 79 1547 l 1,8,9
 188 1520 188 1520 278.5 1461 c 128,-1,10
 369 1402 369 1402 433 1301.5 c 128,-1,11
 497 1201 497 1201 532.5 1053.5 c 128,-1,12
 568 906 568 906 568 704 c 0,13,14
 568 -25 568 -25 79 -140 c 1,0,-1
EndSplineSet
EndChar

StartChar: asterisk
Encoding: 42 42 14
Width: 826
Flags: W
LayerCount: 2
Fore
SplineSet
453 762 m 1,0,-1
 363 762 l 1,1,-1
 363 1049 l 1,2,-1
 108 894 l 1,3,-1
 61 982 l 1,4,-1
 336 1112 l 1,5,-1
 60 1242 l 1,6,-1
 107 1330 l 1,7,-1
 373 1175 l 1,8,-1
 373 1463 l 1,9,-1
 463 1463 l 1,10,-1
 463 1176 l 1,11,-1
 718 1331 l 1,12,-1
 765 1243 l 1,13,-1
 490 1113 l 1,14,-1
 766 983 l 1,15,-1
 719 895 l 1,16,-1
 453 1050 l 1,17,-1
 453 762 l 1,0,-1
EndSplineSet
EndChar

StartChar: plus
Encoding: 43 43 15
Width: 860
Flags: W
LayerCount: 2
Fore
SplineSet
72 673 m 1,0,-1
 72 773 l 1,1,-1
 376 773 l 1,2,-1
 376 1100 l 1,3,-1
 478 1100 l 1,4,-1
 478 773 l 1,5,-1
 778 773 l 1,6,-1
 778 673 l 1,7,-1
 478 673 l 1,8,-1
 478 350 l 1,9,-1
 376 350 l 1,10,-1
 376 673 l 1,11,-1
 72 673 l 1,0,-1
EndSplineSet
EndChar

StartChar: comma
Encoding: 44 44 16
Width: 445
Flags: W
LayerCount: 2
Fore
SplineSet
100 219 m 1,0,-1
 300 219 l 1,1,-1
 300 134 l 1,2,3
 298 57 298 57 293 4 c 128,-1,4
 288 -49 288 -49 281 -78 c 0,5,6
 254 -193 254 -193 163 -254 c 1,7,-1
 114 -192 l 1,8,9
 127 -182 127 -182 141 -163 c 128,-1,10
 155 -144 155 -144 166.5 -117.5 c 128,-1,11
 178 -91 178 -91 185.5 -57.5 c 128,-1,12
 193 -24 193 -24 194 16 c 1,13,-1
 100 29 l 1,14,-1
 100 219 l 1,0,-1
EndSplineSet
EndChar

StartChar: hyphen
Encoding: 45 45 17
Width: 724
Flags: W
LayerCount: 2
Fore
SplineSet
100 400 m 1,0,-1
 100 511 l 1,1,-1
 600 511 l 1,2,-1
 600 400 l 1,3,-1
 100 400 l 1,0,-1
EndSplineSet
EndChar

StartChar: period
Encoding: 46 46 18
Width: 434
Flags: W
LayerCount: 2
Fore
SplineSet
135 215 m 1,0,-1
 299 215 l 1,1,-1
 299 0 l 1,2,-1
 135 0 l 1,3,-1
 135 215 l 1,0,-1
EndSplineSet
EndChar

StartChar: slash
Encoding: 47 47 19
Width: 592
Flags: W
LayerCount: 2
Fore
SplineSet
152 -35 m 1,0,-1
 43 -8 l 1,1,-1
 458 1534 l 1,2,-1
 575 1507 l 1,3,-1
 152 -35 l 1,0,-1
EndSplineSet
EndChar

StartChar: zero
Encoding: 48 48 20
Width: 1246
Flags: W
LayerCount: 2
Fore
SplineSet
1132 724 m 0,0,1
 1132 558 1132 558 1100 420.5 c 128,-1,2
 1068 283 1068 283 1004.5 184 c 128,-1,3
 941 85 941 85 845.5 30 c 128,-1,4
 750 -25 750 -25 623 -25 c 0,5,6
 495 -25 495 -25 400 30 c 128,-1,7
 305 85 305 85 241 184 c 128,-1,8
 177 283 177 283 145.5 420.5 c 128,-1,9
 114 558 114 558 114 724 c 0,10,11
 114 892 114 892 146.5 1033 c 128,-1,12
 179 1174 179 1174 242.5 1275.5 c 128,-1,13
 306 1377 306 1377 401.5 1434 c 128,-1,14
 497 1491 497 1491 623 1491 c 256,15,16
 749 1491 749 1491 844.5 1434 c 128,-1,17
 940 1377 940 1377 1003.5 1275 c 128,-1,18
 1067 1173 1067 1173 1099.5 1032 c 128,-1,19
 1132 891 1132 891 1132 724 c 0,0,1
977 724 m 0,20,21
 977 865 977 865 954.5 984 c 128,-1,22
 932 1103 932 1103 887.5 1189.5 c 128,-1,23
 843 1276 843 1276 777 1325 c 128,-1,24
 711 1374 711 1374 623 1374 c 0,25,26
 536 1374 536 1374 469.5 1325.5 c 128,-1,27
 403 1277 403 1277 358.5 1191 c 128,-1,28
 314 1105 314 1105 291.5 985.5 c 128,-1,29
 269 866 269 866 269 724 c 0,30,31
 269 588 269 588 290.5 472.5 c 128,-1,32
 312 357 312 357 355.5 272.5 c 128,-1,33
 399 188 399 188 465.5 140.5 c 128,-1,34
 532 93 532 93 623 93 c 0,35,36
 713 93 713 93 780 140.5 c 128,-1,37
 847 188 847 188 890.5 272.5 c 128,-1,38
 934 357 934 357 955.5 472.5 c 128,-1,39
 977 588 977 588 977 724 c 0,20,21
EndSplineSet
EndChar

StartChar: one
Encoding: 49 49 21
Width: 592
Flags: W
LayerCount: 2
Fore
SplineSet
97 1248 m 1,0,-1
 53 1364 l 1,1,-1
 300 1464 l 1,2,-1
 429 1464 l 1,3,-1
 429 0 l 1,4,-1
 283 0 l 1,5,-1
 283 1328 l 1,6,-1
 97 1248 l 1,0,-1
EndSplineSet
EndChar

StartChar: two
Encoding: 50 50 22
Width: 1137
Flags: W
LayerCount: 2
Fore
SplineSet
56 1141 m 1,0,1
 138 1324 138 1324 263.5 1408 c 128,-1,2
 389 1492 389 1492 562 1492 c 0,3,4
 656 1492 656 1492 742.5 1466.5 c 128,-1,5
 829 1441 829 1441 895 1388.5 c 128,-1,6
 961 1336 961 1336 1000.5 1254 c 128,-1,7
 1040 1172 1040 1172 1040 1060 c 0,8,9
 1040 968 1040 968 1007.5 889.5 c 128,-1,10
 975 811 975 811 920.5 741 c 128,-1,11
 866 671 866 671 795 608.5 c 128,-1,12
 724 546 724 546 646 486 c 0,13,14
 592 445 592 445 537.5 402 c 128,-1,15
 483 359 483 359 434.5 313.5 c 128,-1,16
 386 268 386 268 345.5 220 c 128,-1,17
 305 172 305 172 280 121 c 1,18,-1
 1019 121 l 1,19,-1
 1019 0 l 1,20,-1
 100 0 l 1,21,22
 103 100 103 100 147 184.5 c 128,-1,23
 191 269 191 269 259.5 343 c 128,-1,24
 328 417 328 417 411.5 483 c 128,-1,25
 495 549 495 549 578 613 c 0,26,27
 638 660 638 660 692.5 710 c 128,-1,28
 747 760 747 760 789 815.5 c 128,-1,29
 831 871 831 871 855.5 931.5 c 128,-1,30
 880 992 880 992 880 1060 c 0,31,32
 880 1131 880 1131 856 1188.5 c 128,-1,33
 832 1246 832 1246 790.5 1286.5 c 128,-1,34
 749 1327 749 1327 693 1348.5 c 128,-1,35
 637 1370 637 1370 574 1370 c 0,36,37
 313 1370 313 1370 185 1089 c 1,38,-1
 56 1141 l 1,0,1
EndSplineSet
EndChar

StartChar: three
Encoding: 51 51 23
Width: 1092
Flags: W
LayerCount: 2
Fore
SplineSet
926 1152 m 0,0,1
 926 1096 926 1096 911 1044.5 c 128,-1,2
 896 993 896 993 866 949 c 128,-1,3
 836 905 836 905 790.5 871 c 128,-1,4
 745 837 745 837 684 818 c 1,5,6
 763 795 763 795 822 754.5 c 128,-1,7
 881 714 881 714 920 659.5 c 128,-1,8
 959 605 959 605 978 539.5 c 128,-1,9
 997 474 997 474 997 403 c 0,10,11
 997 324 997 324 967 247.5 c 128,-1,12
 937 171 937 171 879.5 110.5 c 128,-1,13
 822 50 822 50 738 13 c 128,-1,14
 654 -24 654 -24 545 -24 c 0,15,16
 470 -24 470 -24 398 -5 c 128,-1,17
 326 14 326 14 264.5 55 c 128,-1,18
 203 96 203 96 157 160.5 c 128,-1,19
 111 225 111 225 89 316 c 1,20,-1
 213 358 l 1,21,22
 297 94 297 94 533 94 c 0,23,24
 608 94 608 94 666.5 119 c 128,-1,25
 725 144 725 144 765.5 186 c 128,-1,26
 806 228 806 228 827 282.5 c 128,-1,27
 848 337 848 337 848 396 c 0,28,29
 848 489 848 489 821.5 556.5 c 128,-1,30
 795 624 795 624 743.5 667 c 128,-1,31
 692 710 692 710 616 730.5 c 128,-1,32
 540 751 540 751 441 751 c 1,33,-1
 441 864 l 1,34,35
 541 864 541 864 607 887.5 c 128,-1,36
 673 911 673 911 712 949.5 c 128,-1,37
 751 988 751 988 767 1037.5 c 128,-1,38
 783 1087 783 1087 783 1140 c 0,39,40
 783 1189 783 1189 767.5 1232.5 c 128,-1,41
 752 1276 752 1276 721.5 1309 c 128,-1,42
 691 1342 691 1342 646 1361.5 c 128,-1,43
 601 1381 601 1381 542 1381 c 0,44,45
 347 1381 347 1381 229 1192 c 1,46,-1
 123 1256 l 1,47,48
 274 1493 274 1493 535 1493 c 0,49,50
 626 1493 626 1493 698.5 1468 c 128,-1,51
 771 1443 771 1443 821.5 1398 c 128,-1,52
 872 1353 872 1353 899 1290.5 c 128,-1,53
 926 1228 926 1228 926 1152 c 0,0,1
EndSplineSet
EndChar

StartChar: four
Encoding: 52 52 24
Width: 1206
Flags: W
LayerCount: 2
Fore
SplineSet
131 464 m 1,0,-1
 673 1464 l 1,1,-1
 877 1464 l 1,2,-1
 877 467 l 1,3,-1
 1132 467 l 1,4,-1
 1132 357 l 1,5,-1
 878 357 l 1,6,-1
 878 0 l 1,7,-1
 738 0 l 1,8,-1
 738 357 l 1,9,-1
 131 357 l 1,10,-1
 131 464 l 1,0,-1
738 1332 m 1,11,-1
 292 467 l 1,12,-1
 738 467 l 1,13,-1
 738 1332 l 1,11,-1
EndSplineSet
EndChar

StartChar: five
Encoding: 53 53 25
Width: 1163
Flags: W
LayerCount: 2
Fore
SplineSet
608 928 m 0,0,1
 728 928 728 928 815.5 889.5 c 128,-1,2
 903 851 903 851 960 786.5 c 128,-1,3
 1017 722 1017 722 1044.5 637.5 c 128,-1,4
 1072 553 1072 553 1072 461 c 0,5,6
 1072 357 1072 357 1039 268.5 c 128,-1,7
 1006 180 1006 180 943.5 115.5 c 128,-1,8
 881 51 881 51 790 14.5 c 128,-1,9
 699 -22 699 -22 583 -22 c 0,10,11
 414 -22 414 -22 289.5 59.5 c 128,-1,12
 165 141 165 141 99 309 c 1,13,-1
 223 359 l 1,14,15
 251 297 251 297 289.5 248 c 128,-1,16
 328 199 328 199 373 165 c 128,-1,17
 418 131 418 131 469 113 c 128,-1,18
 520 95 520 95 574 95 c 0,19,20
 659 95 659 95 724.5 124.5 c 128,-1,21
 790 154 790 154 834 203.5 c 128,-1,22
 878 253 878 253 900.5 318 c 128,-1,23
 923 383 923 383 923 453 c 0,24,25
 923 520 923 520 903 584 c 128,-1,26
 883 648 883 648 843 698 c 128,-1,27
 803 748 803 748 743 778 c 128,-1,28
 683 808 683 808 602 808 c 0,29,30
 439 808 439 808 276 685 c 1,31,-1
 185 744 l 1,32,-1
 281 1464 l 1,33,-1
 982 1464 l 1,34,-1
 982 1337 l 1,35,-1
 412 1337 l 1,36,-1
 343 856 l 1,37,-1
 348 858 l 1,38,39
 473 928 473 928 608 928 c 0,0,1
EndSplineSet
EndChar

StartChar: six
Encoding: 54 54 26
Width: 1202
Flags: W
LayerCount: 2
Fore
SplineSet
290 828 m 1,0,1
 453 946 453 946 622 946 c 0,2,3
 716 946 716 946 800 916 c 128,-1,4
 884 886 884 886 947 827.5 c 128,-1,5
 1010 769 1010 769 1046.5 682.5 c 128,-1,6
 1083 596 1083 596 1083 482 c 0,7,8
 1083 388 1083 388 1052.5 297.5 c 128,-1,9
 1022 207 1022 207 963.5 135.5 c 128,-1,10
 905 64 905 64 819 20 c 128,-1,11
 733 -24 733 -24 623 -24 c 0,12,13
 494 -24 494 -24 400 26.5 c 128,-1,14
 306 77 306 77 244.5 170.5 c 128,-1,15
 183 264 183 264 153.5 398 c 128,-1,16
 124 532 124 532 124 700 c 0,17,18
 124 887 124 887 162 1034 c 128,-1,19
 200 1181 200 1181 268.5 1282.5 c 128,-1,20
 337 1384 337 1384 432 1437.5 c 128,-1,21
 527 1491 527 1491 641 1491 c 0,22,23
 790 1491 790 1491 963 1396 c 1,24,-1
 922 1285 l 1,25,26
 767 1372 767 1372 643 1372 c 0,27,28
 567 1372 567 1372 505.5 1338.5 c 128,-1,29
 444 1305 444 1305 399 1237.5 c 128,-1,30
 354 1170 354 1170 326 1067.5 c 128,-1,31
 298 965 298 965 290 828 c 1,0,1
284 698 m 1,32,33
 283 685 283 685 283 662 c 128,-1,34
 283 639 283 639 283 607 c 0,35,36
 283 543 283 543 289.5 479.5 c 128,-1,37
 296 416 296 416 311.5 359 c 128,-1,38
 327 302 327 302 352.5 253 c 128,-1,39
 378 204 378 204 415.5 168.5 c 128,-1,40
 453 133 453 133 504.5 112.5 c 128,-1,41
 556 92 556 92 623 92 c 0,42,43
 685 92 685 92 741 118 c 128,-1,44
 797 144 797 144 839.5 193.5 c 128,-1,45
 882 243 882 243 907 315.5 c 128,-1,46
 932 388 932 388 932 480 c 0,47,48
 932 574 932 574 907.5 640 c 128,-1,49
 883 706 883 706 840.5 747.5 c 128,-1,50
 798 789 798 789 741.5 808 c 128,-1,51
 685 827 685 827 621 827 c 0,52,53
 580 827 580 827 537 817.5 c 128,-1,54
 494 808 494 808 451 791 c 128,-1,55
 408 774 408 774 365.5 750.5 c 128,-1,56
 323 727 323 727 284 698 c 1,32,33
EndSplineSet
EndChar

StartChar: seven
Encoding: 55 55 27
Width: 948
Flags: W
LayerCount: 2
Fore
SplineSet
148 1348 m 1,0,-1
 136 1464 l 1,1,-1
 874 1464 l 1,2,-1
 874 1351 l 1,3,-1
 317 -1 l 1,4,-1
 159 -1 l 1,5,-1
 722 1348 l 1,6,-1
 148 1348 l 1,0,-1
EndSplineSet
EndChar

StartChar: eight
Encoding: 56 56 28
Width: 1160
Flags: W
LayerCount: 2
Fore
SplineSet
501 716 m 1,0,1
 445 682 445 682 401 640.5 c 128,-1,2
 357 599 357 599 326.5 553.5 c 128,-1,3
 296 508 296 508 280 460.5 c 128,-1,4
 264 413 264 413 264 367 c 0,5,6
 264 311 264 311 285 260 c 128,-1,7
 306 209 306 209 346.5 169.5 c 128,-1,8
 387 130 387 130 447 106.5 c 128,-1,9
 507 83 507 83 584 83 c 0,10,11
 643 83 643 83 702 101.5 c 128,-1,12
 761 120 761 120 808 156 c 128,-1,13
 855 192 855 192 884.5 245.5 c 128,-1,14
 914 299 914 299 914 368 c 1,15,16
 911 448 911 448 880.5 502 c 128,-1,17
 850 556 850 556 796.5 594 c 128,-1,18
 743 632 743 632 668.5 660 c 128,-1,19
 594 688 594 688 501 716 c 1,0,1
106 351 m 0,20,21
 106 590 106 590 398 759 c 1,22,23
 353 780 353 780 305 812 c 128,-1,24
 257 844 257 844 217.5 887 c 128,-1,25
 178 930 178 930 152.5 984 c 128,-1,26
 127 1038 127 1038 127 1101 c 0,27,28
 127 1206 127 1206 166.5 1280 c 128,-1,29
 206 1354 206 1354 271 1401 c 128,-1,30
 336 1448 336 1448 420.5 1470 c 128,-1,31
 505 1492 505 1492 594 1492 c 0,32,33
 686 1492 686 1492 768.5 1469.5 c 128,-1,34
 851 1447 851 1447 913.5 1399.5 c 128,-1,35
 976 1352 976 1352 1012.5 1277.5 c 128,-1,36
 1049 1203 1049 1203 1049 1099 c 0,37,38
 1049 1028 1049 1028 1019 970 c 128,-1,39
 989 912 989 912 945.5 867.5 c 128,-1,40
 902 823 902 823 853.5 793.5 c 128,-1,41
 805 764 805 764 768 751 c 1,42,43
 868 703 868 703 926.5 655 c 128,-1,44
 985 607 985 607 1015 558.5 c 128,-1,45
 1045 510 1045 510 1053.5 461.5 c 128,-1,46
 1062 413 1062 413 1062 365 c 0,47,48
 1062 288 1062 288 1029.5 218 c 128,-1,49
 997 148 997 148 934 94 c 128,-1,50
 871 40 871 40 779 8 c 128,-1,51
 687 -24 687 -24 569 -24 c 0,52,53
 464 -24 464 -24 378.5 6 c 128,-1,54
 293 36 293 36 232.5 87.5 c 128,-1,55
 172 139 172 139 139 207 c 128,-1,56
 106 275 106 275 106 351 c 0,20,21
659 792 m 1,57,58
 899 912 899 912 899 1101 c 0,59,60
 899 1173 899 1173 874.5 1225.5 c 128,-1,61
 850 1278 850 1278 808 1312 c 128,-1,62
 766 1346 766 1346 710.5 1362.5 c 128,-1,63
 655 1379 655 1379 594 1379 c 0,64,65
 537 1379 537 1379 480.5 1364.5 c 128,-1,66
 424 1350 424 1350 379 1317 c 128,-1,67
 334 1284 334 1284 306 1231.5 c 128,-1,68
 278 1179 278 1179 278 1104 c 0,69,70
 278 1046 278 1046 298 1004 c 128,-1,71
 318 962 318 962 352.5 931 c 128,-1,72
 387 900 387 900 432.5 877 c 128,-1,73
 478 854 478 854 529 835 c 2,74,-1
 591 813 l 1,75,-1
 659 792 l 1,57,58
EndSplineSet
EndChar

StartChar: nine
Encoding: 57 57 29
Width: 1197
Flags: W
LayerCount: 2
Fore
SplineSet
912 643 m 1,0,1
 836 586 836 586 755.5 555.5 c 128,-1,2
 675 525 675 525 591 525 c 0,3,4
 495 525 495 525 409 554.5 c 128,-1,5
 323 584 323 584 258.5 642.5 c 128,-1,6
 194 701 194 701 156.5 787 c 128,-1,7
 119 873 119 873 119 987 c 0,8,9
 119 1049 119 1049 130.5 1111 c 128,-1,10
 142 1173 142 1173 166.5 1229 c 128,-1,11
 191 1285 191 1285 229 1333 c 128,-1,12
 267 1381 267 1381 319 1416.5 c 128,-1,13
 371 1452 371 1452 437.5 1472 c 128,-1,14
 504 1492 504 1492 587 1492 c 0,15,16
 835 1492 835 1492 954 1309.5 c 128,-1,17
 1073 1127 1073 1127 1073 771 c 0,18,19
 1073 580 1073 580 1035.5 433 c 128,-1,20
 998 286 998 286 930 185.5 c 128,-1,21
 862 85 862 85 766.5 33 c 128,-1,22
 671 -19 671 -19 555 -19 c 0,23,24
 403 -19 403 -19 227 75 c 1,25,-1
 268 186 l 1,26,27
 427 99 427 99 550 99 c 0,28,29
 708 99 708 99 802 236.5 c 128,-1,30
 896 374 896 374 912 643 c 1,0,1
918 773 m 1,31,32
 919 785 919 785 919 809 c 128,-1,33
 919 833 919 833 919 869 c 0,34,35
 919 964 919 964 903.5 1054.5 c 128,-1,36
 888 1145 888 1145 849 1216 c 128,-1,37
 810 1287 810 1287 744 1330.5 c 128,-1,38
 678 1374 678 1374 578 1374 c 0,39,40
 514 1374 514 1374 458 1348 c 128,-1,41
 402 1322 402 1322 360 1272.5 c 128,-1,42
 318 1223 318 1223 294 1152 c 128,-1,43
 270 1081 270 1081 270 991 c 0,44,45
 270 896 270 896 295.5 830 c 128,-1,46
 321 764 321 764 365 722.5 c 128,-1,47
 409 681 409 681 467.5 662.5 c 128,-1,48
 526 644 526 644 593 644 c 0,49,50
 671 644 671 644 756.5 678.5 c 128,-1,51
 842 713 842 713 918 773 c 1,31,32
EndSplineSet
EndChar

StartChar: colon
Encoding: 58 58 30
Width: 482
Flags: W
LayerCount: 2
Fore
SplineSet
332 387 m 1,0,-1
 332 171 l 1,1,-1
 159 171 l 1,2,-1
 159 387 l 1,3,-1
 332 387 l 1,0,-1
159 1024 m 1,4,-1
 332 1024 l 1,5,-1
 332 808 l 1,6,-1
 159 808 l 1,7,-1
 159 1024 l 1,4,-1
EndSplineSet
EndChar

StartChar: semicolon
Encoding: 59 59 31
Width: 478
Flags: W
LayerCount: 2
Fore
SplineSet
150 219 m 1,0,-1
 350 219 l 1,1,-1
 350 134 l 1,2,3
 348 57 348 57 343 4 c 128,-1,4
 338 -49 338 -49 331 -78 c 0,5,6
 302 -193 302 -193 213 -254 c 1,7,-1
 164 -192 l 1,8,9
 177 -182 177 -182 191 -163 c 128,-1,10
 205 -144 205 -144 216.5 -117.5 c 128,-1,11
 228 -91 228 -91 235.5 -57.5 c 128,-1,12
 243 -24 243 -24 244 16 c 1,13,-1
 150 29 l 1,14,-1
 150 219 l 1,0,-1
332 1024 m 1,15,-1
 332 808 l 1,16,-1
 159 808 l 1,17,-1
 159 1024 l 1,18,-1
 332 1024 l 1,15,-1
EndSplineSet
EndChar

StartChar: less
Encoding: 60 60 32
Width: 1051
Flags: W
LayerCount: 2
Fore
SplineSet
998 241 m 1,0,-1
 998 103 l 1,1,-1
 49 469 l 1,2,-1
 49 595 l 1,3,-1
 998 950 l 1,4,-1
 998 798 l 1,5,-1
 211 525 l 1,6,-1
 998 241 l 1,0,-1
EndSplineSet
EndChar

StartChar: equal
Encoding: 61 61 33
Width: 820
Flags: W
LayerCount: 2
Fore
SplineSet
135 550 m 1,0,-1
 135 650 l 1,1,-1
 685 650 l 1,2,-1
 685 550 l 1,3,-1
 135 550 l 1,0,-1
135 300 m 1,4,-1
 135 400 l 1,5,-1
 685 400 l 1,6,-1
 685 300 l 1,7,-1
 135 300 l 1,4,-1
EndSplineSet
EndChar

StartChar: greater
Encoding: 62 62 34
Width: 1051
Flags: W
LayerCount: 2
Fore
SplineSet
53 812 m 1,0,-1
 53 950 l 1,1,-1
 1002 584 l 1,2,-1
 1002 458 l 1,3,-1
 53 103 l 1,4,-1
 53 255 l 1,5,-1
 840 528 l 1,6,-1
 53 812 l 1,0,-1
EndSplineSet
EndChar

StartChar: question
Encoding: 63 63 35
Width: 1010
Flags: W
LayerCount: 2
Fore
SplineSet
795 1089 m 0,0,1
 795 1144 795 1144 779 1196.5 c 128,-1,2
 763 1249 763 1249 727 1289.5 c 128,-1,3
 691 1330 691 1330 632 1355 c 128,-1,4
 573 1380 573 1380 488 1380 c 0,5,6
 265 1380 265 1380 134 1177 c 1,7,-1
 35 1250 l 1,8,9
 186 1491 186 1491 497 1491 c 0,10,11
 618 1491 618 1491 702.5 1455.5 c 128,-1,12
 787 1420 787 1420 840 1362 c 128,-1,13
 893 1304 893 1304 917 1230 c 128,-1,14
 941 1156 941 1156 941 1079 c 0,15,16
 941 1023 941 1023 926 972 c 128,-1,17
 911 921 911 921 885.5 873.5 c 128,-1,18
 860 826 860 826 826.5 781 c 128,-1,19
 793 736 793 736 756 693 c 0,20,21
 732 665 732 665 701.5 626.5 c 128,-1,22
 671 588 671 588 638.5 543.5 c 128,-1,23
 606 499 606 499 574 451.5 c 128,-1,24
 542 404 542 404 515 358 c 1,25,-1
 366 358 l 1,26,27
 421 459 421 459 474 536 c 128,-1,28
 527 613 527 613 574.5 674 c 128,-1,29
 622 735 622 735 662.5 784.5 c 128,-1,30
 703 834 703 834 732.5 881.5 c 128,-1,31
 762 929 762 929 778.5 978.5 c 128,-1,32
 795 1028 795 1028 795 1089 c 0,0,1
350 215 m 1,33,-1
 514 215 l 1,34,-1
 514 0 l 1,35,-1
 350 0 l 1,36,-1
 350 215 l 1,33,-1
EndSplineSet
EndChar

StartChar: at
Encoding: 64 64 36
Width: 1704
Flags: W
LayerCount: 2
Fore
SplineSet
1091 252 m 1,0,1
 1055 198 1055 198 1018 162.5 c 128,-1,2
 981 127 981 127 940.5 106 c 128,-1,3
 900 85 900 85 856.5 76 c 128,-1,4
 813 67 813 67 764 67 c 0,5,6
 683 67 683 67 623.5 97 c 128,-1,7
 564 127 564 127 524 177 c 128,-1,8
 484 227 484 227 464.5 291.5 c 128,-1,9
 445 356 445 356 445 425 c 0,10,11
 445 521 445 521 476 613 c 128,-1,12
 507 705 507 705 562.5 777 c 128,-1,13
 618 849 618 849 695.5 893 c 128,-1,14
 773 937 773 937 866 937 c 0,15,16
 1002 937 1002 937 1145 844 c 1,17,-1
 1170 917 l 1,18,-1
 1268 917 l 1,19,-1
 1176 326 l 1,20,21
 1176 302 1176 302 1184.5 280.5 c 128,-1,22
 1193 259 1193 259 1206.5 242 c 128,-1,23
 1220 225 1220 225 1238 215 c 128,-1,24
 1256 205 1256 205 1276 205 c 0,25,26
 1312 205 1312 205 1347.5 230 c 128,-1,27
 1383 255 1383 255 1411 305 c 128,-1,28
 1439 355 1439 355 1456 431 c 128,-1,29
 1473 507 1473 507 1473 608 c 0,30,31
 1473 735 1473 735 1424 835.5 c 128,-1,32
 1375 936 1375 936 1293 1006 c 128,-1,33
 1211 1076 1211 1076 1105.5 1113.5 c 128,-1,34
 1000 1151 1000 1151 886 1151 c 0,35,36
 786 1151 786 1151 699.5 1123 c 128,-1,37
 613 1095 613 1095 541 1046.5 c 128,-1,38
 469 998 469 998 413 932 c 128,-1,39
 357 866 357 866 318.5 790 c 128,-1,40
 280 714 280 714 260 631.5 c 128,-1,41
 240 549 240 549 240 467 c 0,42,43
 240 333 240 333 282 224.5 c 128,-1,44
 324 116 324 116 402 39.5 c 128,-1,45
 480 -37 480 -37 591 -78.5 c 128,-1,46
 702 -120 702 -120 839 -120 c 0,47,48
 1024 -120 1024 -120 1248 -30 c 1,49,-1
 1288 -105 l 1,50,51
 1053 -223 1053 -223 842 -223 c 0,52,53
 717 -223 717 -223 614.5 -196 c 128,-1,54
 512 -169 512 -169 431 -121.5 c 128,-1,55
 350 -74 350 -74 290.5 -8 c 128,-1,56
 231 58 231 58 191.5 135.5 c 128,-1,57
 152 213 152 213 133 299.5 c 128,-1,58
 114 386 114 386 114 476 c 0,59,60
 114 569 114 569 136.5 662.5 c 128,-1,61
 159 756 159 756 203 843 c 128,-1,62
 247 930 247 930 312.5 1005 c 128,-1,63
 378 1080 378 1080 463.5 1136 c 128,-1,64
 549 1192 549 1192 654 1224 c 128,-1,65
 759 1256 759 1256 883 1256 c 0,66,67
 975 1256 975 1256 1063 1234.5 c 128,-1,68
 1151 1213 1151 1213 1230 1173 c 128,-1,69
 1309 1133 1309 1133 1375 1074.5 c 128,-1,70
 1441 1016 1441 1016 1489 943 c 128,-1,71
 1537 870 1537 870 1564 782.5 c 128,-1,72
 1591 695 1591 695 1591 596 c 0,73,74
 1591 473 1591 473 1564.5 382 c 128,-1,75
 1538 291 1538 291 1492 231 c 128,-1,76
 1446 171 1446 171 1384 141.5 c 128,-1,77
 1322 112 1322 112 1252 112 c 0,78,79
 1231 112 1231 112 1207.5 120 c 128,-1,80
 1184 128 1184 128 1162 144.5 c 128,-1,81
 1140 161 1140 161 1121 187.5 c 128,-1,82
 1102 214 1102 214 1091 252 c 1,0,1
1123 763 m 1,83,84
 1058 805 1058 805 998.5 824 c 128,-1,85
 939 843 939 843 880 843 c 0,86,87
 810 843 810 843 752.5 809 c 128,-1,88
 695 775 695 775 654.5 717 c 128,-1,89
 614 659 614 659 592 582.5 c 128,-1,90
 570 506 570 506 570 422 c 0,91,92
 570 372 570 372 582 325.5 c 128,-1,93
 594 279 594 279 619.5 243 c 128,-1,94
 645 207 645 207 684.5 185 c 128,-1,95
 724 163 724 163 778 163 c 2,96,-1
 779 163 l 2,97,98
 812 163 812 163 857.5 178.5 c 128,-1,99
 903 194 903 194 947.5 233 c 128,-1,100
 992 272 992 272 1028 338 c 128,-1,101
 1064 404 1064 404 1079 504 c 1,102,-1
 1123 763 l 1,83,84
EndSplineSet
EndChar

StartChar: A
Encoding: 65 65 37
Width: 1218
Flags: W
LayerCount: 2
Fore
SplineSet
26 0 m 1,0,-1
 512 1464 l 1,1,-1
 704 1464 l 1,2,-1
 1192 0 l 1,3,-1
 1042 0 l 1,4,-1
 908 399 l 1,5,-1
 300 399 l 1,6,-1
 172 0 l 1,7,-1
 26 0 l 1,0,-1
603 1362 m 1,8,9
 599 1350 599 1350 591.5 1325.5 c 128,-1,10
 584 1301 584 1301 574 1269.5 c 128,-1,11
 564 1238 564 1238 553.5 1203 c 128,-1,12
 543 1168 543 1168 533 1136 c 128,-1,13
 523 1104 523 1104 515 1078.5 c 128,-1,14
 507 1053 507 1053 503 1040 c 2,15,-1
 334 508 l 1,16,-1
 874 508 l 1,17,-1
 704 1041 l 2,18,19
 675 1132 675 1132 649.5 1211.5 c 128,-1,20
 624 1291 624 1291 603 1362 c 1,8,9
EndSplineSet
EndChar

StartChar: B
Encoding: 66 66 38
Width: 1295
Flags: W
LayerCount: 2
Fore
SplineSet
293 1357 m 1,0,-1
 293 837 l 1,1,-1
 521 837 l 2,2,3
 652 837 652 837 748 842.5 c 128,-1,4
 844 848 844 848 907 874 c 128,-1,5
 970 900 970 900 1000.5 952.5 c 128,-1,6
 1031 1005 1031 1005 1031 1100 c 0,7,8
 1031 1194 1031 1194 995 1246 c 128,-1,9
 959 1298 959 1298 898.5 1322.5 c 128,-1,10
 838 1347 838 1347 759 1352 c 128,-1,11
 680 1357 680 1357 594 1357 c 2,12,-1
 293 1357 l 1,0,-1
294 730 m 1,13,-1
 294 107 l 1,14,-1
 608 107 l 2,15,16
 659 107 659 107 713 108.5 c 128,-1,17
 767 110 767 110 818 118.5 c 128,-1,18
 869 127 869 127 915 145.5 c 128,-1,19
 961 164 961 164 995 198.5 c 128,-1,20
 1029 233 1029 233 1049 285.5 c 128,-1,21
 1069 338 1069 338 1069 415 c 0,22,23
 1069 491 1069 491 1051 544.5 c 128,-1,24
 1033 598 1033 598 1001 633 c 128,-1,25
 969 668 969 668 924.5 687.5 c 128,-1,26
 880 707 880 707 826.5 716.5 c 128,-1,27
 773 726 773 726 713 728 c 128,-1,28
 653 730 653 730 589 730 c 2,29,-1
 294 730 l 1,13,-1
148 0 m 1,30,-1
 148 1464 l 1,31,-1
 587 1464 l 2,32,33
 660 1464 660 1464 732 1459 c 128,-1,34
 804 1454 804 1454 869 1440.5 c 128,-1,35
 934 1427 934 1427 989 1401.5 c 128,-1,36
 1044 1376 1044 1376 1084 1335 c 128,-1,37
 1124 1294 1124 1294 1147 1235 c 128,-1,38
 1170 1176 1170 1176 1170 1095 c 0,39,40
 1170 836 1170 836 899 790 c 1,41,42
 1056 759 1056 759 1135 660 c 128,-1,43
 1214 561 1214 561 1214 413 c 0,44,45
 1214 292 1214 292 1176 212.5 c 128,-1,46
 1138 133 1138 133 1058 85.5 c 128,-1,47
 978 38 978 38 852 19 c 128,-1,48
 726 0 726 0 551 0 c 2,49,-1
 148 0 l 1,30,-1
EndSplineSet
EndChar

StartChar: C
Encoding: 67 67 39
Width: 1338
Flags: W
LayerCount: 2
Fore
SplineSet
738 1491 m 0,0,1
 836 1491 836 1491 921.5 1466 c 128,-1,2
 1007 1441 1007 1441 1075.5 1392.5 c 128,-1,3
 1144 1344 1144 1344 1193.5 1271 c 128,-1,4
 1243 1198 1243 1198 1269 1102 c 1,5,-1
 1135 1071 l 1,6,7
 1117 1141 1117 1141 1083 1197 c 128,-1,8
 1049 1253 1049 1253 999 1292.5 c 128,-1,9
 949 1332 949 1332 882.5 1353 c 128,-1,10
 816 1374 816 1374 733 1374 c 0,11,12
 608 1374 608 1374 519.5 1333 c 128,-1,13
 431 1292 431 1292 375 1211.5 c 128,-1,14
 319 1131 319 1131 293 1012 c 128,-1,15
 267 893 267 893 267 738 c 0,16,17
 267 577 267 577 289 456 c 128,-1,18
 311 335 311 335 365 254.5 c 128,-1,19
 419 174 419 174 509 133.5 c 128,-1,20
 599 93 599 93 736 93 c 0,21,22
 1047 93 1047 93 1149 377 c 1,23,-1
 1274 338 l 1,24,25
 1244 248 1244 248 1192 180 c 128,-1,26
 1140 112 1140 112 1070 66.5 c 128,-1,27
 1000 21 1000 21 913.5 -2 c 128,-1,28
 827 -25 827 -25 728 -25 c 0,29,30
 573 -25 573 -25 457.5 19 c 128,-1,31
 342 63 342 63 265.5 155.5 c 128,-1,32
 189 248 189 248 151.5 392.5 c 128,-1,33
 114 537 114 537 114 738 c 0,34,35
 114 932 114 932 156 1074 c 128,-1,36
 198 1216 198 1216 278 1308.5 c 128,-1,37
 358 1401 358 1401 474 1446 c 128,-1,38
 590 1491 590 1491 738 1491 c 0,0,1
EndSplineSet
EndChar

StartChar: D
Encoding: 68 68 40
Width: 1400
Flags: W
LayerCount: 2
Fore
SplineSet
653 1350 m 2,0,-1
 294 1350 l 1,1,-1
 294 114 l 1,2,-1
 597 114 l 2,3,4
 751 114 751 114 856 148.5 c 128,-1,5
 961 183 961 183 1025 258 c 128,-1,6
 1089 333 1089 333 1116.5 451 c 128,-1,7
 1144 569 1144 569 1144 737 c 0,8,9
 1144 888 1144 888 1120 1002.5 c 128,-1,10
 1096 1117 1096 1117 1039.5 1194.5 c 128,-1,11
 983 1272 983 1272 888.5 1311 c 128,-1,12
 794 1350 794 1350 653 1350 c 2,0,-1
148 1464 m 1,13,-1
 652 1464 l 2,14,15
 809 1464 809 1464 928 1425.5 c 128,-1,16
 1047 1387 1047 1387 1126.5 1301 c 128,-1,17
 1206 1215 1206 1215 1246.5 1076.5 c 128,-1,18
 1287 938 1287 938 1287 738 c 0,19,20
 1287 540 1287 540 1249 400 c 128,-1,21
 1211 260 1211 260 1132.5 171 c 128,-1,22
 1054 82 1054 82 932.5 41 c 128,-1,23
 811 0 811 0 645 0 c 2,24,-1
 148 0 l 1,25,-1
 148 1464 l 1,13,-1
EndSplineSet
EndChar

StartChar: E
Encoding: 69 69 41
Width: 1143
Flags: W
LayerCount: 2
Fore
SplineSet
1128 0 m 1,0,-1
 148 0 l 1,1,-1
 148 1464 l 1,2,-1
 1117 1464 l 1,3,-1
 1117 1352 l 1,4,-1
 294 1352 l 1,5,-1
 294 838 l 1,6,-1
 1010 838 l 1,7,-1
 1010 723 l 1,8,-1
 294 723 l 1,9,-1
 294 113 l 1,10,-1
 1128 113 l 1,11,-1
 1128 0 l 1,0,-1
EndSplineSet
EndChar

StartChar: F
Encoding: 70 70 42
Width: 1094
Flags: W
LayerCount: 2
Fore
SplineSet
1117 1352 m 1,0,-1
 294 1352 l 1,1,-1
 294 830 l 1,2,-1
 1009 830 l 1,3,-1
 1009 716 l 1,4,-1
 294 716 l 1,5,-1
 294 0 l 1,6,-1
 148 0 l 1,7,-1
 148 1464 l 1,8,-1
 1117 1464 l 1,9,-1
 1117 1352 l 1,0,-1
EndSplineSet
EndChar

StartChar: G
Encoding: 71 71 43
Width: 1374
Flags: W
LayerCount: 2
Fore
SplineSet
735 1491 m 0,0,1
 820 1491 820 1491 897.5 1469 c 128,-1,2
 975 1447 975 1447 1040 1404.5 c 128,-1,3
 1105 1362 1105 1362 1155 1298 c 128,-1,4
 1205 1234 1205 1234 1236 1150 c 1,5,-1
 1114 1096 l 1,6,7
 1010 1374 1010 1374 734 1374 c 0,8,9
 611 1374 611 1374 523 1333.5 c 128,-1,10
 435 1293 435 1293 378 1212 c 128,-1,11
 321 1131 321 1131 294 1008.5 c 128,-1,12
 267 886 267 886 267 721 c 0,13,14
 267 568 267 568 290.5 450.5 c 128,-1,15
 314 333 314 333 367.5 253.5 c 128,-1,16
 421 174 421 174 507.5 133.5 c 128,-1,17
 594 93 594 93 719 93 c 0,18,19
 784 93 784 93 852 115 c 128,-1,20
 920 137 920 137 976 180.5 c 128,-1,21
 1032 224 1032 224 1068 290 c 128,-1,22
 1104 356 1104 356 1104 444 c 2,23,-1
 1104 664 l 1,24,-1
 732 664 l 1,25,-1
 732 789 l 1,26,-1
 1248 789 l 1,27,-1
 1248 581 l 1,28,-1
 1248 0 l 1,29,-1
 1145 0 l 1,30,-1
 1113 191 l 1,31,32
 1085 144 1085 144 1042 105 c 128,-1,33
 999 66 999 66 945.5 37 c 128,-1,34
 892 8 892 8 830 -8 c 128,-1,35
 768 -24 768 -24 701 -24 c 0,36,37
 114 -24 114 -24 114 722 c 0,38,39
 114 926 114 926 157.5 1071.5 c 128,-1,40
 201 1217 201 1217 282 1310 c 128,-1,41
 363 1403 363 1403 477.5 1447 c 128,-1,42
 592 1491 592 1491 735 1491 c 0,0,1
EndSplineSet
EndChar

StartChar: H
Encoding: 72 72 44
Width: 1457
Flags: W
LayerCount: 2
Fore
SplineSet
1164 836 m 1,0,-1
 1164 1464 l 1,1,-1
 1309 1464 l 1,2,-1
 1309 0 l 1,3,-1
 1164 0 l 1,4,-1
 1164 720 l 1,5,-1
 294 720 l 1,6,-1
 294 0 l 1,7,-1
 148 0 l 1,8,-1
 148 1464 l 1,9,-1
 294 1464 l 1,10,-1
 294 836 l 1,11,-1
 1164 836 l 1,0,-1
EndSplineSet
EndChar

StartChar: I
Encoding: 73 73 45
Width: 464
Flags: W
LayerCount: 2
Fore
SplineSet
309 0 m 1,0,-1
 163 0 l 1,1,-1
 163 1464 l 1,2,-1
 309 1464 l 1,3,-1
 309 0 l 1,0,-1
EndSplineSet
EndChar

StartChar: J
Encoding: 74 74 46
Width: 954
Flags: W
LayerCount: 2
Fore
SplineSet
21 334 m 1,0,-1
 151 369 l 1,1,2
 167 297 167 297 189.5 244.5 c 128,-1,3
 212 192 212 192 245 158.5 c 128,-1,4
 278 125 278 125 323 109 c 128,-1,5
 368 93 368 93 429 93 c 0,6,7
 483 93 483 93 522 110 c 128,-1,8
 561 127 561 127 587.5 155 c 128,-1,9
 614 183 614 183 630 218.5 c 128,-1,10
 646 254 646 254 654.5 290.5 c 128,-1,11
 663 327 663 327 666 362.5 c 128,-1,12
 669 398 669 398 670 425 c 0,13,14
 673 471 673 471 673 541 c 2,15,-1
 673 1464 l 1,16,-1
 818 1464 l 1,17,-1
 818 544 l 2,18,19
 818 398 818 398 797 291 c 128,-1,20
 776 184 776 184 727 113.5 c 128,-1,21
 678 43 678 43 599 9 c 128,-1,22
 520 -25 520 -25 405 -25 c 0,23,24
 92 -25 92 -25 21 334 c 1,0,-1
EndSplineSet
EndChar

StartChar: K
Encoding: 75 75 47
Width: 1252
Flags: W
LayerCount: 2
Fore
SplineSet
1180 1466 m 1,0,-1
 665 926 l 1,1,-1
 1244 0 l 1,2,-1
 1077 0 l 1,3,-1
 562 828 l 1,4,-1
 294 553 l 1,5,-1
 294 0 l 1,6,-1
 148 0 l 1,7,-1
 148 1466 l 1,8,-1
 294 1466 l 1,9,-1
 294 726 l 1,10,-1
 1003 1466 l 1,11,-1
 1180 1466 l 1,0,-1
EndSplineSet
EndChar

StartChar: L
Encoding: 76 76 48
Width: 1020
Flags: W
LayerCount: 2
Fore
SplineSet
1041 0 m 1,0,-1
 148 0 l 1,1,-1
 148 1464 l 1,2,-1
 294 1464 l 1,3,-1
 294 113 l 1,4,-1
 1041 113 l 1,5,-1
 1041 0 l 1,0,-1
EndSplineSet
EndChar

StartChar: M
Encoding: 77 77 49
Width: 1645
Flags: W
LayerCount: 2
Fore
SplineSet
148 0 m 1,0,-1
 148 1463 l 1,1,-1
 359 1463 l 1,2,-1
 826 405 l 1,3,-1
 1306 1462 l 1,4,-1
 1497 1462 l 1,5,-1
 1497 0 l 1,6,-1
 1363 0 l 1,7,-1
 1363 1275 l 1,8,-1
 888 250 l 1,9,-1
 753 250 l 1,10,-1
 287 1281 l 1,11,-1
 287 0 l 1,12,-1
 148 0 l 1,0,-1
EndSplineSet
EndChar

StartChar: N
Encoding: 78 78 50
Width: 1491
Flags: W
LayerCount: 2
Fore
SplineSet
148 0 m 1,0,-1
 148 1464 l 1,1,-1
 311 1464 l 1,2,-1
 1214 221 l 1,3,-1
 1214 1464 l 1,4,-1
 1343 1464 l 1,5,-1
 1343 0 l 1,6,-1
 1211 0 l 1,7,-1
 279 1290 l 1,8,9
 279 1276 279 1276 279 1245 c 128,-1,10
 279 1214 279 1214 279.5 1174 c 128,-1,11
 280 1134 280 1134 280 1089 c 128,-1,12
 280 1044 280 1044 280.5 1002.5 c 128,-1,13
 281 961 281 961 281 927 c 128,-1,14
 281 893 281 893 281 875 c 2,15,-1
 281 0 l 1,16,-1
 148 0 l 1,0,-1
EndSplineSet
EndChar

StartChar: O
Encoding: 79 79 51
Width: 1449
Flags: W
LayerCount: 2
Fore
SplineSet
723 1491 m 0,0,1
 868 1491 868 1491 981.5 1449 c 128,-1,2
 1095 1407 1095 1407 1173.5 1316 c 128,-1,3
 1252 1225 1252 1225 1293.5 1083 c 128,-1,4
 1335 941 1335 941 1335 741 c 0,5,6
 1335 540 1335 540 1295.5 395 c 128,-1,7
 1256 250 1256 250 1179 157 c 128,-1,8
 1102 64 1102 64 987.5 19.5 c 128,-1,9
 873 -25 873 -25 722 -25 c 0,10,11
 576 -25 576 -25 463 17.5 c 128,-1,12
 350 60 350 60 272.5 152 c 128,-1,13
 195 244 195 244 154.5 389 c 128,-1,14
 114 534 114 534 114 740 c 0,15,16
 114 943 114 943 156 1086 c 128,-1,17
 198 1229 198 1229 276.5 1319 c 128,-1,18
 355 1409 355 1409 468 1450 c 128,-1,19
 581 1491 581 1491 723 1491 c 0,0,1
722 1374 m 256,20,21
 589 1374 589 1374 501.5 1329.5 c 128,-1,22
 414 1285 414 1285 362 1202.5 c 128,-1,23
 310 1120 310 1120 288.5 1003 c 128,-1,24
 267 886 267 886 267 741 c 0,25,26
 267 573 267 573 291.5 450.5 c 128,-1,27
 316 328 316 328 370 248.5 c 128,-1,28
 424 169 424 169 511 131 c 128,-1,29
 598 93 598 93 723 93 c 256,30,31
 848 93 848 93 935 130.5 c 128,-1,32
 1022 168 1022 168 1076.5 247 c 128,-1,33
 1131 326 1131 326 1155.5 448 c 128,-1,34
 1180 570 1180 570 1180 740 c 0,35,36
 1180 885 1180 885 1158.5 1002.5 c 128,-1,37
 1137 1120 1137 1120 1084.5 1202.5 c 128,-1,38
 1032 1285 1032 1285 943.5 1329.5 c 128,-1,39
 855 1374 855 1374 722 1374 c 256,20,21
EndSplineSet
EndChar

StartChar: P
Encoding: 80 80 52
Width: 1253
Flags: W
LayerCount: 2
Fore
SplineSet
148 0 m 1,0,-1
 148 1464 l 1,1,-1
 579 1464 l 2,2,3
 759 1464 759 1464 883 1443 c 128,-1,4
 1007 1422 1007 1422 1084.5 1374.5 c 128,-1,5
 1162 1327 1162 1327 1196.5 1250.5 c 128,-1,6
 1231 1174 1231 1174 1231 1063 c 0,7,8
 1231 933 1231 933 1190.5 850 c 128,-1,9
 1150 767 1150 767 1064 719 c 128,-1,10
 978 671 978 671 843.5 653 c 128,-1,11
 709 635 709 635 520 635 c 2,12,-1
 298 635 l 1,13,-1
 298 0 l 1,14,-1
 148 0 l 1,0,-1
304 1350 m 1,15,-1
 304 748 l 1,16,-1
 576 748 l 2,17,18
 713 748 713 748 809.5 761 c 128,-1,19
 906 774 906 774 966.5 808.5 c 128,-1,20
 1027 843 1027 843 1055 902.5 c 128,-1,21
 1083 962 1083 962 1083 1055 c 0,22,23
 1083 1153 1083 1153 1051 1211.5 c 128,-1,24
 1019 1270 1019 1270 953.5 1300.5 c 128,-1,25
 888 1331 888 1331 789 1340.5 c 128,-1,26
 690 1350 690 1350 556 1350 c 2,27,-1
 304 1350 l 1,15,-1
EndSplineSet
EndChar

StartChar: Q
Encoding: 81 81 53
Width: 1449
Flags: W
LayerCount: 2
Fore
SplineSet
1266 -345 m 1,0,-1
 1016 30 l 1,1,2
 954 1 954 1 880.5 -12 c 128,-1,3
 807 -25 807 -25 722 -25 c 0,4,5
 576 -25 576 -25 463 17.5 c 128,-1,6
 350 60 350 60 272.5 152 c 128,-1,7
 195 244 195 244 154.5 389 c 128,-1,8
 114 534 114 534 114 740 c 0,9,10
 114 943 114 943 156 1086 c 128,-1,11
 198 1229 198 1229 276.5 1319 c 128,-1,12
 355 1409 355 1409 468 1450 c 128,-1,13
 581 1491 581 1491 723 1491 c 0,14,15
 868 1491 868 1491 981.5 1449 c 128,-1,16
 1095 1407 1095 1407 1173.5 1316 c 128,-1,17
 1252 1225 1252 1225 1293.5 1083 c 128,-1,18
 1335 941 1335 941 1335 741 c 0,19,20
 1335 274 1335 274 1116 94 c 1,21,-1
 1374 -263 l 1,22,-1
 1266 -345 l 1,0,-1
722 1374 m 256,23,24
 589 1374 589 1374 501.5 1329.5 c 128,-1,25
 414 1285 414 1285 362 1202.5 c 128,-1,26
 310 1120 310 1120 288.5 1003 c 128,-1,27
 267 886 267 886 267 741 c 0,28,29
 267 573 267 573 291.5 450.5 c 128,-1,30
 316 328 316 328 370 248.5 c 128,-1,31
 424 169 424 169 511 131 c 128,-1,32
 598 93 598 93 723 93 c 256,33,34
 848 93 848 93 935 130.5 c 128,-1,35
 1022 168 1022 168 1076.5 247 c 128,-1,36
 1131 326 1131 326 1155.5 448 c 128,-1,37
 1180 570 1180 570 1180 740 c 0,38,39
 1180 885 1180 885 1158.5 1002.5 c 128,-1,40
 1137 1120 1137 1120 1084.5 1202.5 c 128,-1,41
 1032 1285 1032 1285 943.5 1329.5 c 128,-1,42
 855 1374 855 1374 722 1374 c 256,23,24
EndSplineSet
EndChar

StartChar: R
Encoding: 82 82 54
Width: 1295
Flags: W
LayerCount: 2
Fore
SplineSet
1223 1075 m 0,0,1
 1223 924 1223 924 1146 831 c 128,-1,2
 1069 738 1069 738 907 695 c 1,3,-1
 1247 0 l 1,4,-1
 1091 0 l 1,5,-1
 759 673 l 1,6,-1
 298 673 l 1,7,-1
 298 0 l 1,8,-1
 148 0 l 1,9,-1
 148 1463 l 1,10,-1
 686 1465 l 2,11,12
 828 1465 828 1465 930 1441.5 c 128,-1,13
 1032 1418 1032 1418 1097 1370 c 128,-1,14
 1162 1322 1162 1322 1192.5 1248.5 c 128,-1,15
 1223 1175 1223 1175 1223 1075 c 0,0,1
304 1356 m 1,16,-1
 304 786 l 1,17,-1
 653 786 l 2,18,19
 740 786 740 786 816 796 c 128,-1,20
 892 806 892 806 948.5 837 c 128,-1,21
 1005 868 1005 868 1038 924 c 128,-1,22
 1071 980 1071 980 1074 1073 c 1,23,24
 1074 1140 1074 1140 1057.5 1187 c 128,-1,25
 1041 1234 1041 1234 1012.5 1265.5 c 128,-1,26
 984 1297 984 1297 946 1315 c 128,-1,27
 908 1333 908 1333 863.5 1342 c 128,-1,28
 819 1351 819 1351 771.5 1353.5 c 128,-1,29
 724 1356 724 1356 677 1356 c 2,30,-1
 304 1356 l 1,16,-1
EndSplineSet
EndChar

StartChar: S
Encoding: 83 83 55
Width: 1216
Flags: W
LayerCount: 2
Fore
SplineSet
618 1482 m 0,0,1
 706 1482 706 1482 780.5 1467.5 c 128,-1,2
 855 1453 855 1453 917.5 1422.5 c 128,-1,3
 980 1392 980 1392 1031.5 1344.5 c 128,-1,4
 1083 1297 1083 1297 1127 1231 c 1,5,-1
 1019 1151 l 1,6,7
 959 1256 959 1256 859.5 1310 c 128,-1,8
 760 1364 760 1364 639 1364 c 0,9,10
 562 1364 562 1364 496.5 1350 c 128,-1,11
 431 1336 431 1336 384 1307 c 128,-1,12
 337 1278 337 1278 310.5 1233.5 c 128,-1,13
 284 1189 284 1189 284 1128 c 0,14,15
 284 1081 284 1081 303 1045 c 128,-1,16
 322 1009 322 1009 354 980.5 c 128,-1,17
 386 952 386 952 429.5 930.5 c 128,-1,18
 473 909 473 909 523 892 c 2,19,-1
 622 860 l 2,20,21
 688 839 688 839 729 824.5 c 128,-1,22
 770 810 770 810 799.5 797.5 c 128,-1,23
 829 785 829 785 855 772.5 c 128,-1,24
 881 760 881 760 918 742 c 0,25,26
 970 717 970 717 1014 686 c 128,-1,27
 1058 655 1058 655 1090 614 c 128,-1,28
 1122 573 1122 573 1140 519 c 128,-1,29
 1158 465 1158 465 1158 393 c 0,30,31
 1158 295 1158 295 1119.5 217.5 c 128,-1,32
 1081 140 1081 140 1010 86 c 128,-1,33
 939 32 939 32 838.5 3.5 c 128,-1,34
 738 -25 738 -25 615 -25 c 0,35,36
 561 -25 561 -25 501.5 -17 c 128,-1,37
 442 -9 442 -9 383 9.5 c 128,-1,38
 324 28 324 28 269 58 c 128,-1,39
 214 88 214 88 169 132.5 c 128,-1,40
 124 177 124 177 91.5 236.5 c 128,-1,41
 59 296 59 296 45 373 c 1,42,-1
 168 426 l 1,43,44
 213 260 213 260 325 180.5 c 128,-1,45
 437 101 437 101 624 101 c 0,46,47
 691 101 691 101 759 115 c 128,-1,48
 827 129 827 129 882 162 c 128,-1,49
 937 195 937 195 971 250 c 128,-1,50
 1005 305 1005 305 1005 388 c 0,51,52
 1005 439 1005 439 990.5 480 c 128,-1,53
 976 521 976 521 940 556 c 128,-1,54
 904 591 904 591 844.5 622 c 128,-1,55
 785 653 785 653 695 685 c 2,56,-1
 585 724 l 1,57,58
 487 756 487 756 420.5 784 c 128,-1,59
 354 812 354 812 317 832 c 0,60,61
 222 884 222 884 176.5 954 c 128,-1,62
 131 1024 131 1024 131 1116 c 0,63,64
 131 1210 131 1210 172 1279 c 128,-1,65
 213 1348 213 1348 281 1393 c 128,-1,66
 349 1438 349 1438 436.5 1460 c 128,-1,67
 524 1482 524 1482 618 1482 c 0,0,1
EndSplineSet
EndChar

StartChar: T
Encoding: 84 84 56
Width: 1119
Flags: W
LayerCount: 2
Fore
SplineSet
9 1352 m 1,0,-1
 9 1465 l 1,1,-1
 1110 1465 l 1,2,-1
 1110 1352 l 1,3,-1
 636 1352 l 1,4,-1
 636 0 l 1,5,-1
 483 0 l 1,6,-1
 483 1352 l 1,7,-1
 9 1352 l 1,0,-1
EndSplineSet
EndChar

StartChar: U
Encoding: 85 85 57
Width: 1346
Flags: W
LayerCount: 2
Fore
SplineSet
123 574 m 2,0,-1
 123 1464 l 1,1,-1
 283 1464 l 1,2,-1
 283 598 l 2,3,4
 283 485 283 485 299 393.5 c 128,-1,5
 315 302 315 302 358 237 c 128,-1,6
 401 172 401 172 477.5 136 c 128,-1,7
 554 100 554 100 676 98 c 1,8,9
 800 98 800 98 876.5 136 c 128,-1,10
 953 174 953 174 995 241.5 c 128,-1,11
 1037 309 1037 309 1051.5 400 c 128,-1,12
 1066 491 1066 491 1066 598 c 2,13,-1
 1066 1464 l 1,14,-1
 1223 1464 l 1,15,-1
 1223 581 l 2,16,17
 1223 425 1223 425 1189.5 310.5 c 128,-1,18
 1156 196 1156 196 1088 121.5 c 128,-1,19
 1020 47 1020 47 915.5 11 c 128,-1,20
 811 -25 811 -25 670 -25 c 0,21,22
 532 -25 532 -25 429.5 10 c 128,-1,23
 327 45 327 45 258.5 118.5 c 128,-1,24
 190 192 190 192 156.5 305 c 128,-1,25
 123 418 123 418 123 574 c 2,0,-1
EndSplineSet
EndChar

StartChar: V
Encoding: 86 86 58
Width: 1170
Flags: W
LayerCount: 2
Fore
SplineSet
506 0 m 1,0,-1
 15 1464 l 1,1,-1
 170 1464 l 1,2,-1
 514 428 l 2,3,4
 537 359 537 359 554.5 307 c 128,-1,5
 572 255 572 255 584 218 c 1,6,-1
 714 598 l 1,7,-1
 1007 1464 l 1,8,-1
 1155 1464 l 1,9,-1
 644 0 l 1,10,-1
 506 0 l 1,0,-1
EndSplineSet
EndChar

StartChar: W
Encoding: 87 87 59
Width: 1805
Flags: W
LayerCount: 2
Fore
SplineSet
431 0 m 1,0,-1
 16 1462 l 1,1,-1
 168 1462 l 1,2,3
 250 1166 250 1166 308 948 c 128,-1,4
 366 730 366 730 405 580.5 c 128,-1,5
 444 431 444 431 465 346.5 c 128,-1,6
 486 262 486 262 494 234 c 1,7,-1
 668 803 l 1,8,-1
 869 1462 l 1,9,-1
 973 1462 l 1,10,11
 983 1424 983 1424 1000.5 1360.5 c 128,-1,12
 1018 1297 1018 1297 1041 1216 c 128,-1,13
 1064 1135 1064 1135 1090 1042 c 128,-1,14
 1116 949 1116 949 1143 852.5 c 128,-1,15
 1170 756 1170 756 1196.5 661.5 c 128,-1,16
 1223 567 1223 567 1246.5 482.5 c 128,-1,17
 1270 398 1270 398 1289 329.5 c 128,-1,18
 1308 261 1308 261 1320 217 c 1,19,20
 1329 251 1329 251 1345.5 313 c 128,-1,21
 1362 375 1362 375 1383 455 c 128,-1,22
 1404 535 1404 535 1428.5 628 c 128,-1,23
 1453 721 1453 721 1478.5 818 c 128,-1,24
 1504 915 1504 915 1529.5 1010.5 c 128,-1,25
 1555 1106 1555 1106 1577.5 1191.5 c 128,-1,26
 1600 1277 1600 1277 1618.5 1346.5 c 128,-1,27
 1637 1416 1637 1416 1650 1461 c 1,28,-1
 1789 1462 l 1,29,-1
 1374 0 l 1,30,-1
 1248 0 l 1,31,32
 1087 567 1087 567 1002.5 864 c 128,-1,33
 918 1161 918 1161 911 1187 c 1,34,-1
 760 700 l 2,35,36
 715 557 715 557 661.5 383 c 128,-1,37
 608 209 608 209 544 0 c 1,38,-1
 431 0 l 1,0,-1
EndSplineSet
EndChar

StartChar: X
Encoding: 88 88 60
Width: 1245
Flags: W
LayerCount: 2
Fore
SplineSet
626 889 m 1,0,-1
 1029 1464 l 1,1,-1
 1195 1464 l 1,2,-1
 706 767 l 1,3,-1
 1239 0 l 1,4,-1
 1066 0 l 1,5,-1
 620 641 l 1,6,-1
 173 0 l 1,7,-1
 6 0 l 1,8,-1
 540 763 l 1,9,-1
 51 1464 l 1,10,-1
 226 1464 l 1,11,-1
 626 889 l 1,0,-1
EndSplineSet
EndChar

StartChar: Y
Encoding: 89 89 61
Width: 1162
Flags: W
LayerCount: 2
Fore
SplineSet
508 549 m 1,0,-1
 -4 1464 l 1,1,-1
 154 1464 l 1,2,-1
 582 682 l 1,3,-1
 1009 1464 l 1,4,-1
 1166 1464 l 1,5,-1
 654 548 l 1,6,-1
 654 0 l 1,7,-1
 508 0 l 1,8,-1
 508 549 l 1,0,-1
EndSplineSet
EndChar

StartChar: Z
Encoding: 90 90 62
Width: 1176
Flags: W
LayerCount: 2
Fore
SplineSet
130 1356 m 1,0,-1
 130 1464 l 1,1,-1
 1136 1464 l 1,2,-1
 1136 1383 l 1,3,-1
 228 107 l 1,4,-1
 1141 107 l 1,5,-1
 1134 0 l 1,6,-1
 47 0 l 1,7,-1
 47 98 l 1,8,-1
 945 1356 l 1,9,-1
 130 1356 l 1,0,-1
EndSplineSet
EndChar

StartChar: bracketleft
Encoding: 91 91 63
Width: 708
Flags: W
LayerCount: 2
Fore
SplineSet
132 -52 m 1,0,-1
 132 1480 l 1,1,-1
 590 1480 l 1,2,-1
 590 1374 l 1,3,-1
 277 1374 l 1,4,-1
 277 55 l 1,5,-1
 590 55 l 1,6,-1
 590 -52 l 1,7,-1
 132 -52 l 1,0,-1
EndSplineSet
EndChar

StartChar: backslash
Encoding: 92 92 64
Width: 632
Flags: W
LayerCount: 2
Fore
SplineSet
588 -5 m 1,0,-1
 443 -5 l 1,1,-1
 46 1464 l 1,2,-1
 191 1464 l 1,3,-1
 588 -5 l 1,0,-1
EndSplineSet
EndChar

StartChar: bracketright
Encoding: 93 93 65
Width: 707
Flags: W
LayerCount: 2
Fore
SplineSet
119 1374 m 1,0,-1
 119 1480 l 1,1,-1
 576 1480 l 1,2,-1
 576 -52 l 1,3,-1
 119 -52 l 1,4,-1
 119 55 l 1,5,-1
 431 55 l 1,6,-1
 431 1374 l 1,7,-1
 119 1374 l 1,0,-1
EndSplineSet
EndChar

StartChar: asciicircum
Encoding: 94 94 66
Width: 1053
Flags: W
LayerCount: 2
Fore
SplineSet
241 100 m 1,0,-1
 103 100 l 1,1,-1
 469 999 l 1,2,-1
 595 999 l 1,3,-1
 950 100 l 1,4,-1
 798 100 l 1,5,-1
 525 837 l 1,6,-1
 241 100 l 1,0,-1
EndSplineSet
EndChar

StartChar: underscore
Encoding: 95 95 67
Width: 870
Flags: W
LayerCount: 2
Fore
SplineSet
99 -1 m 1,0,-1
 750 -1 l 1,1,-1
 750 -99 l 1,2,-1
 99 -99 l 1,3,-1
 99 -1 l 1,0,-1
EndSplineSet
EndChar

StartChar: grave
Encoding: 96 96 68
Width: 496
Flags: W
LayerCount: 2
Fore
SplineSet
47 1492 m 1,0,-1
 242 1492 l 1,1,-1
 447 1173 l 1,2,-1
 353 1173 l 1,3,-1
 47 1492 l 1,0,-1
EndSplineSet
EndChar

StartChar: a
Encoding: 97 97 69
Width: 1025
Flags: W
LayerCount: 2
Fore
SplineSet
752 483 m 1,0,-1
 654 483 l 2,1,2
 557 483 557 483 479 474.5 c 128,-1,3
 401 466 401 466 345.5 442 c 128,-1,4
 290 418 290 418 260 375.5 c 128,-1,5
 230 333 230 333 230 266 c 0,6,7
 230 178 230 178 279.5 129.5 c 128,-1,8
 329 81 329 81 423 81 c 0,9,10
 588 81 588 81 752 219 c 1,11,-1
 752 483 l 1,0,-1
756 110 m 1,12,13
 677 37 677 37 590 6.5 c 128,-1,14
 503 -24 503 -24 395 -24 c 0,15,16
 333 -24 333 -24 278.5 -4.5 c 128,-1,17
 224 15 224 15 183.5 51.5 c 128,-1,18
 143 88 143 88 119.5 140 c 128,-1,19
 96 192 96 192 96 257 c 0,20,21
 96 353 96 353 136.5 415.5 c 128,-1,22
 177 478 177 478 251 514 c 128,-1,23
 325 550 325 550 429.5 564.5 c 128,-1,24
 534 579 534 579 662 579 c 2,25,-1
 752 579 l 1,26,-1
 752 637 l 2,27,28
 752 722 752 722 739 779 c 128,-1,29
 726 836 726 836 697 870.5 c 128,-1,30
 668 905 668 905 622 920 c 128,-1,31
 576 935 576 935 510 935 c 0,32,33
 422 935 422 935 348 902.5 c 128,-1,34
 274 870 274 870 223 807 c 1,35,36
 223 809 223 809 138 888 c 1,37,38
 261 1044 261 1044 518 1044 c 0,39,40
 894 1044 894 1044 894 673 c 2,41,-1
 894 0 l 1,42,-1
 775 0 l 1,43,44
 773 20 773 20 768 47.5 c 128,-1,45
 763 75 763 75 756 110 c 1,12,13
EndSplineSet
EndChar

StartChar: b
Encoding: 98 98 70
Width: 1078
Flags: W
LayerCount: 2
Fore
SplineSet
563 940 m 0,0,1
 514 940 514 940 461 920.5 c 128,-1,2
 408 901 408 901 364 853 c 128,-1,3
 320 805 320 805 291.5 724.5 c 128,-1,4
 263 644 263 644 263 522 c 0,5,6
 263 77 263 77 565 77 c 0,7,8
 629 77 629 77 680 109 c 128,-1,9
 731 141 731 141 766.5 199 c 128,-1,10
 802 257 802 257 821 339 c 128,-1,11
 840 421 840 421 840 520 c 0,12,13
 840 610 840 610 820 686.5 c 128,-1,14
 800 763 800 763 763.5 819.5 c 128,-1,15
 727 876 727 876 676 908 c 128,-1,16
 625 940 625 940 563 940 c 0,0,1
125 1493 m 1,17,-1
 268 1493 l 1,18,-1
 268 865 l 1,19,20
 311 953 311 953 395.5 998.5 c 128,-1,21
 480 1044 480 1044 589 1044 c 0,22,23
 682 1044 682 1044 755 1006.5 c 128,-1,24
 828 969 828 969 878.5 899 c 128,-1,25
 929 829 929 829 955.5 728.5 c 128,-1,26
 982 628 982 628 982 502 c 0,27,28
 982 385 982 385 956 288 c 128,-1,29
 930 191 930 191 879 122 c 128,-1,30
 828 53 828 53 753 14.5 c 128,-1,31
 678 -24 678 -24 580 -24 c 0,32,33
 525 -24 525 -24 475 -12 c 128,-1,34
 425 0 425 0 383 23.5 c 128,-1,35
 341 47 341 47 308.5 81.5 c 128,-1,36
 276 116 276 116 257 161 c 1,37,-1
 238 0 l 1,38,-1
 125 0 l 1,39,-1
 125 1493 l 1,17,-1
EndSplineSet
EndChar

StartChar: c
Encoding: 99 99 71
Width: 979
Flags: W
LayerCount: 2
Fore
SplineSet
94 509 m 256,0,1
 94 625 94 625 121.5 723 c 128,-1,2
 149 821 149 821 204 892.5 c 128,-1,3
 259 964 259 964 342 1004 c 128,-1,4
 425 1044 425 1044 536 1044 c 0,5,6
 597 1044 597 1044 655.5 1028 c 128,-1,7
 714 1012 714 1012 763.5 975.5 c 128,-1,8
 813 939 813 939 851 879.5 c 128,-1,9
 889 820 889 820 909 733 c 1,10,-1
 790 701 l 1,11,12
 758 824 758 824 698.5 882 c 128,-1,13
 639 940 639 940 542 940 c 0,14,15
 465 940 465 940 407 910 c 128,-1,16
 349 880 349 880 311 824.5 c 128,-1,17
 273 769 273 769 254 690 c 128,-1,18
 235 611 235 611 235 512 c 0,19,20
 235 417 235 417 251.5 338 c 128,-1,21
 268 259 268 259 304 202 c 128,-1,22
 340 145 340 145 395.5 113 c 128,-1,23
 451 81 451 81 529 81 c 0,24,25
 728 81 728 81 797 316 c 1,26,-1
 906 282 l 1,27,28
 888 201 888 201 850 143 c 128,-1,29
 812 85 812 85 761 48 c 128,-1,30
 710 11 710 11 649.5 -6.5 c 128,-1,31
 589 -24 589 -24 526 -24 c 0,32,33
 417 -24 417 -24 336 15.5 c 128,-1,34
 255 55 255 55 201 126 c 128,-1,35
 147 197 147 197 120.5 295 c 128,-1,36
 94 393 94 393 94 509 c 256,0,1
EndSplineSet
EndChar

StartChar: d
Encoding: 100 100 72
Width: 1059
Flags: W
LayerCount: 2
Fore
SplineSet
94 500 m 0,0,1
 94 626 94 626 119.5 726.5 c 128,-1,2
 145 827 145 827 194 897.5 c 128,-1,3
 243 968 243 968 315.5 1006 c 128,-1,4
 388 1044 388 1044 482 1044 c 0,5,6
 711 1044 711 1044 792 863 c 1,7,-1
 792 1474 l 1,8,-1
 935 1474 l 1,9,-1
 935 0 l 1,10,-1
 821 0 l 1,11,-1
 802 172 l 1,12,13
 782 127 782 127 750 91 c 128,-1,14
 718 55 718 55 677 29.5 c 128,-1,15
 636 4 636 4 587 -10 c 128,-1,16
 538 -24 538 -24 486 -24 c 0,17,18
 394 -24 394 -24 321 13.5 c 128,-1,19
 248 51 248 51 197.5 120 c 128,-1,20
 147 189 147 189 120.5 285.5 c 128,-1,21
 94 382 94 382 94 500 c 0,0,1
504 81 m 0,22,23
 538 81 538 81 573 86.5 c 128,-1,24
 608 92 608 92 640.5 107.5 c 128,-1,25
 673 123 673 123 702 152 c 128,-1,26
 731 181 731 181 752 227.5 c 128,-1,27
 773 274 773 274 785.5 340.5 c 128,-1,28
 798 407 798 407 798 499 c 0,29,30
 798 592 798 592 782 673 c 128,-1,31
 766 754 766 754 730.5 813 c 128,-1,32
 695 872 695 872 638.5 906 c 128,-1,33
 582 940 582 940 502 940 c 0,34,35
 438 940 438 940 388.5 908.5 c 128,-1,36
 339 877 339 877 305 818.5 c 128,-1,37
 271 760 271 760 253 678 c 128,-1,38
 235 596 235 596 235 496 c 0,39,40
 235 407 235 407 253.5 331 c 128,-1,41
 272 255 272 255 306.5 199.5 c 128,-1,42
 341 144 341 144 391 112.5 c 128,-1,43
 441 81 441 81 504 81 c 0,22,23
EndSplineSet
EndChar

StartChar: e
Encoding: 101 101 73
Width: 1020
Flags: W
LayerCount: 2
Fore
SplineSet
533 1044 m 0,0,1
 640 1044 640 1044 717 1006.5 c 128,-1,2
 794 969 794 969 843.5 903 c 128,-1,3
 893 837 893 837 916.5 748.5 c 128,-1,4
 940 660 940 660 940 558 c 0,5,6
 940 523 940 523 937 498 c 1,7,-1
 238 498 l 1,8,9
 238 416 238 416 254 340.5 c 128,-1,10
 270 265 270 265 305 207.5 c 128,-1,11
 340 150 340 150 396.5 115.5 c 128,-1,12
 453 81 453 81 534 81 c 0,13,14
 631 81 631 81 694.5 131.5 c 128,-1,15
 758 182 758 182 790 264 c 1,16,-1
 906 226 l 1,17,18
 883 167 883 167 845.5 120.5 c 128,-1,19
 808 74 808 74 760 42.5 c 128,-1,20
 712 11 712 11 655 -6 c 128,-1,21
 598 -23 598 -23 538 -24 c 1,22,-1
 534 -24 l 2,23,24
 418 -24 418 -24 335 19.5 c 128,-1,25
 252 63 252 63 198.5 136.5 c 128,-1,26
 145 210 145 210 119.5 307.5 c 128,-1,27
 94 405 94 405 94 512 c 0,28,29
 94 630 94 630 124 728 c 128,-1,30
 154 826 154 826 210 896.5 c 128,-1,31
 266 967 266 967 347.5 1005.5 c 128,-1,32
 429 1044 429 1044 533 1044 c 0,0,1
803 592 m 1,33,34
 803 674 803 674 786 739 c 128,-1,35
 769 804 769 804 735 849 c 128,-1,36
 701 894 701 894 649.5 917.5 c 128,-1,37
 598 941 598 941 529 941 c 0,38,39
 459 941 459 941 406.5 911.5 c 128,-1,40
 354 882 354 882 318 833.5 c 128,-1,41
 282 785 282 785 262.5 722 c 128,-1,42
 243 659 243 659 239 592 c 1,43,-1
 803 592 l 1,33,34
EndSplineSet
EndChar

StartChar: f
Encoding: 102 102 74
Width: 623
Flags: W
LayerCount: 2
Fore
SplineSet
460 1365 m 2,0,-1
 451 1365 l 2,1,2
 427 1365 427 1365 411 1355.5 c 128,-1,3
 395 1346 395 1346 385 1331 c 128,-1,4
 375 1316 375 1316 369.5 1296.5 c 128,-1,5
 364 1277 364 1277 363 1256 c 2,6,-1
 359 1203 l 1,7,-1
 359 1023 l 1,8,-1
 559 1023 l 1,9,-1
 559 917 l 1,10,-1
 359 917 l 1,11,-1
 359 -1 l 1,12,-1
 217 -1 l 1,13,-1
 217 917 l 1,14,-1
 44 917 l 1,15,-1
 44 1023 l 1,16,-1
 217 1023 l 1,17,-1
 217 1140 l 2,18,19
 217 1225 217 1225 229.5 1287.5 c 128,-1,20
 242 1350 242 1350 270 1391 c 128,-1,21
 298 1432 298 1432 342.5 1451.5 c 128,-1,22
 387 1471 387 1471 451 1471 c 0,23,24
 531 1471 531 1471 607 1430 c 1,25,-1
 573 1338 l 1,26,27
 501 1365 501 1365 460 1365 c 2,0,-1
EndSplineSet
EndChar

StartChar: g
Encoding: 103 103 75
Width: 1077
Flags: W
LayerCount: 2
Fore
SplineSet
818 543 m 2,0,1
 818 629 818 629 803.5 692.5 c 128,-1,2
 789 756 789 756 764.5 800 c 128,-1,3
 740 844 740 844 709 871.5 c 128,-1,4
 678 899 678 899 644.5 914 c 128,-1,5
 611 929 611 929 578 934.5 c 128,-1,6
 545 940 545 940 518 940 c 0,7,8
 442 940 442 940 388.5 905 c 128,-1,9
 335 870 335 870 301 812.5 c 128,-1,10
 267 755 267 755 251.5 681.5 c 128,-1,11
 236 608 236 608 236 530 c 0,12,13
 236 423 236 423 255 339.5 c 128,-1,14
 274 256 274 256 310 198.5 c 128,-1,15
 346 141 346 141 397.5 111 c 128,-1,16
 449 81 449 81 513 81 c 0,17,18
 566 81 566 81 620.5 98 c 128,-1,19
 675 115 675 115 719 162 c 128,-1,20
 763 209 763 209 790.5 292.5 c 128,-1,21
 818 376 818 376 818 509 c 2,22,-1
 818 543 l 2,0,1
521 -429 m 0,23,24
 482 -429 482 -429 433 -421.5 c 128,-1,25
 384 -414 384 -414 335 -394 c 128,-1,26
 286 -374 286 -374 240.5 -339.5 c 128,-1,27
 195 -305 195 -305 164 -252 c 1,28,-1
 247 -173 l 1,29,30
 338 -320 338 -320 534 -320 c 0,31,32
 677 -320 677 -320 747.5 -229 c 128,-1,33
 818 -138 818 -138 818 28 c 2,34,-1
 818 130 l 1,35,36
 701 -24 701 -24 508 -24 c 0,37,38
 407 -24 407 -24 330 17 c 128,-1,39
 253 58 253 58 200.5 132 c 128,-1,40
 148 206 148 206 121 309.5 c 128,-1,41
 94 413 94 413 94 538 c 0,42,43
 94 647 94 647 121 740 c 128,-1,44
 148 833 148 833 200 900.5 c 128,-1,45
 252 968 252 968 328 1006 c 128,-1,46
 404 1044 404 1044 502 1044 c 0,47,48
 701 1044 701 1044 829 891 c 1,49,-1
 837 1023 l 1,50,-1
 951 1023 l 1,51,-1
 951 20 l 2,52,53
 951 -79 951 -79 923 -162 c 128,-1,54
 895 -245 895 -245 840.5 -304 c 128,-1,55
 786 -363 786 -363 706 -396 c 128,-1,56
 626 -429 626 -429 521 -429 c 0,23,24
EndSplineSet
EndChar

StartChar: h
Encoding: 104 104 76
Width: 1106
Flags: W
LayerCount: 2
Fore
SplineSet
607 940 m 0,0,1
 512 940 512 940 448.5 902.5 c 128,-1,2
 385 865 385 865 347 801.5 c 128,-1,3
 309 738 309 738 293 655.5 c 128,-1,4
 277 573 277 573 277 483 c 2,5,-1
 277 0 l 1,6,-1
 135 0 l 1,7,-1
 135 1473 l 1,8,-1
 277 1473 l 1,9,-1
 277 862 l 1,10,11
 394 1044 394 1044 628 1044 c 0,12,13
 709 1044 709 1044 766.5 1024 c 128,-1,14
 824 1004 824 1004 864 970 c 128,-1,15
 904 936 904 936 927.5 890.5 c 128,-1,16
 951 845 951 845 964 793.5 c 128,-1,17
 977 742 977 742 981 688 c 128,-1,18
 985 634 985 634 985 583 c 2,19,-1
 985 0 l 1,20,-1
 843 0 l 1,21,-1
 843 594 l 2,22,23
 843 679 843 679 830.5 744 c 128,-1,24
 818 809 818 809 790 852.5 c 128,-1,25
 762 896 762 896 717 918 c 128,-1,26
 672 940 672 940 607 940 c 0,0,1
EndSplineSet
EndChar

StartChar: i
Encoding: 105 105 77
Width: 401
Flags: W
LayerCount: 2
Fore
SplineSet
132 1242 m 1,0,-1
 132 1421 l 1,1,-1
 273 1421 l 1,2,-1
 273 1242 l 1,3,-1
 132 1242 l 1,0,-1
134 0 m 1,4,-1
 134 1023 l 1,5,-1
 276 1023 l 1,6,-1
 276 0 l 1,7,-1
 134 0 l 1,4,-1
EndSplineSet
EndChar

StartChar: j
Encoding: 106 106 78
Width: 482
Flags: W
LayerCount: 2
Fore
SplineSet
214 -91 m 2,0,-1
 214 1023 l 1,1,-1
 356 1023 l 1,2,-1
 356 -12 l 2,3,4
 356 -93 356 -93 348 -152 c 128,-1,5
 340 -211 340 -211 316 -249.5 c 128,-1,6
 292 -288 292 -288 249 -306.5 c 128,-1,7
 206 -325 206 -325 137 -325 c 0,8,9
 46 -325 46 -325 -25 -284 c 1,10,-1
 -1 -177 l 1,11,12
 82 -208 82 -208 118 -208 c 0,13,14
 165 -208 165 -208 189.5 -182 c 128,-1,15
 214 -156 214 -156 214 -91 c 2,0,-1
216 1242 m 1,16,-1
 216 1421 l 1,17,-1
 357 1421 l 1,18,-1
 357 1242 l 1,19,-1
 216 1242 l 1,16,-1
EndSplineSet
EndChar

StartChar: k
Encoding: 107 107 79
Width: 1008
Flags: W
LayerCount: 2
Fore
SplineSet
797 1023 m 1,0,-1
 959 1023 l 1,1,-1
 578 651 l 1,2,-1
 1018 0 l 1,3,-1
 858 0 l 1,4,-1
 485 565 l 1,5,-1
 272 369 l 1,6,-1
 272 0 l 1,7,-1
 130 0 l 1,8,-1
 130 1477 l 1,9,-1
 271 1477 l 1,10,-1
 271 511 l 1,11,-1
 797 1023 l 1,0,-1
EndSplineSet
EndChar

StartChar: l
Encoding: 108 108 80
Width: 406
Flags: W
LayerCount: 2
Fore
SplineSet
124 0 m 1,0,-1
 124 1474 l 1,1,-1
 266 1474 l 1,2,-1
 266 0 l 1,3,-1
 124 0 l 1,0,-1
EndSplineSet
EndChar

StartChar: m
Encoding: 109 109 81
Width: 1663
Flags: W
LayerCount: 2
Fore
SplineSet
563 940 m 0,0,1
 494 940 494 940 439 908 c 128,-1,2
 384 876 384 876 346 825 c 128,-1,3
 308 774 308 774 288 710 c 128,-1,4
 268 646 268 646 268 583 c 2,5,-1
 268 0 l 1,6,-1
 126 0 l 1,7,-1
 126 1023 l 1,8,-1
 263 1023 l 1,9,-1
 267 861 l 1,10,11
 323 957 323 957 409 1000.5 c 128,-1,12
 495 1044 495 1044 593 1044 c 0,13,14
 708 1044 708 1044 779.5 988 c 128,-1,15
 851 932 851 932 879 832 c 1,16,17
 906 891 906 891 948.5 931.5 c 128,-1,18
 991 972 991 972 1039.5 997 c 128,-1,19
 1088 1022 1088 1022 1139.5 1033 c 128,-1,20
 1191 1044 1191 1044 1236 1044 c 0,21,22
 1339 1044 1339 1044 1400 1001.5 c 128,-1,23
 1461 959 1461 959 1492.5 891.5 c 128,-1,24
 1524 824 1524 824 1533 741 c 128,-1,25
 1542 658 1542 658 1542 576 c 2,26,-1
 1542 0 l 1,27,-1
 1400 0 l 1,28,-1
 1400 607 l 2,29,30
 1400 682 1400 682 1390 743.5 c 128,-1,31
 1380 805 1380 805 1357 848.5 c 128,-1,32
 1334 892 1334 892 1295.5 916 c 128,-1,33
 1257 940 1257 940 1199 940 c 0,34,35
 1131 940 1131 940 1076 908.5 c 128,-1,36
 1021 877 1021 877 983 827 c 128,-1,37
 945 777 945 777 924.5 715 c 128,-1,38
 904 653 904 653 904 591 c 2,39,-1
 904 0 l 1,40,-1
 762 0 l 1,41,-1
 762 607 l 2,42,43
 762 688 762 688 751.5 750 c 128,-1,44
 741 812 741 812 717 854 c 128,-1,45
 693 896 693 896 655 918 c 128,-1,46
 617 940 617 940 563 940 c 0,0,1
EndSplineSet
EndChar

StartChar: n
Encoding: 110 110 82
Width: 1085
Flags: W
LayerCount: 2
Fore
SplineSet
126 0 m 1,0,-1
 126 1023 l 1,1,-1
 264 1023 l 1,2,-1
 264 928 l 1,3,-1
 264 830 l 1,4,5
 284 887 284 887 323.5 927.5 c 128,-1,6
 363 968 363 968 413 994 c 128,-1,7
 463 1020 463 1020 517.5 1032 c 128,-1,8
 572 1044 572 1044 622 1044 c 0,9,10
 701 1044 701 1044 757.5 1025 c 128,-1,11
 814 1006 814 1006 852 973 c 128,-1,12
 890 940 890 940 912 895.5 c 128,-1,13
 934 851 934 851 946 800 c 128,-1,14
 958 749 958 749 961 693.5 c 128,-1,15
 964 638 964 638 964 584 c 2,16,-1
 964 0 l 1,17,-1
 822 0 l 1,18,-1
 822 603 l 2,19,20
 822 679 822 679 812.5 739.5 c 128,-1,21
 803 800 803 800 778.5 842.5 c 128,-1,22
 754 885 754 885 711.5 907.5 c 128,-1,23
 669 930 669 930 602 930 c 0,24,25
 503 930 503 930 438.5 896.5 c 128,-1,26
 374 863 374 863 336 804.5 c 128,-1,27
 298 746 298 746 283 667.5 c 128,-1,28
 268 589 268 589 268 499 c 2,29,-1
 268 0 l 1,30,-1
 126 0 l 1,0,-1
EndSplineSet
EndChar

StartChar: o
Encoding: 111 111 83
Width: 1064
Flags: W
LayerCount: 2
Fore
SplineSet
533 1044 m 0,0,1
 630 1044 630 1044 710.5 1010 c 128,-1,2
 791 976 791 976 848.5 909 c 128,-1,3
 906 842 906 842 938 742.5 c 128,-1,4
 970 643 970 643 970 513 c 0,5,6
 970 384 970 384 939.5 284 c 128,-1,7
 909 184 909 184 852 115.5 c 128,-1,8
 795 47 795 47 714 11.5 c 128,-1,9
 633 -24 633 -24 532 -24 c 0,10,11
 430 -24 430 -24 349 11.5 c 128,-1,12
 268 47 268 47 211.5 115 c 128,-1,13
 155 183 155 183 124.5 282.5 c 128,-1,14
 94 382 94 382 94 510 c 0,15,16
 94 641 94 641 125.5 741 c 128,-1,17
 157 841 157 841 214.5 908.5 c 128,-1,18
 272 976 272 976 353 1010 c 128,-1,19
 434 1044 434 1044 533 1044 c 0,0,1
532 940 m 0,20,21
 447 940 447 940 390 904 c 128,-1,22
 333 868 333 868 299 808 c 128,-1,23
 265 748 265 748 251 671 c 128,-1,24
 237 594 237 594 237 513 c 0,25,26
 237 435 237 435 250 357.5 c 128,-1,27
 263 280 263 280 296.5 218.5 c 128,-1,28
 330 157 330 157 387.5 119 c 128,-1,29
 445 81 445 81 533 81 c 256,30,31
 621 81 621 81 678 119 c 128,-1,32
 735 157 735 157 768.5 218.5 c 128,-1,33
 802 280 802 280 815 356.5 c 128,-1,34
 828 433 828 433 828 511 c 256,35,36
 828 589 828 589 814 666 c 128,-1,37
 800 743 800 743 766.5 804 c 128,-1,38
 733 865 733 865 676 902.5 c 128,-1,39
 619 940 619 940 532 940 c 0,20,21
EndSplineSet
EndChar

StartChar: p
Encoding: 112 112 84
Width: 1059
Flags: W
LayerCount: 2
Fore
SplineSet
825 521 m 0,0,1
 825 613 825 613 806.5 690 c 128,-1,2
 788 767 788 767 753.5 822.5 c 128,-1,3
 719 878 719 878 669.5 909 c 128,-1,4
 620 940 620 940 558 940 c 1,5,6
 466 937 466 937 409.5 904.5 c 128,-1,7
 353 872 353 872 322 815.5 c 128,-1,8
 291 759 291 759 280.5 683 c 128,-1,9
 270 607 270 607 270 519 c 0,10,11
 270 81 270 81 559 81 c 0,12,13
 621 81 621 81 670.5 111 c 128,-1,14
 720 141 720 141 754.5 197.5 c 128,-1,15
 789 254 789 254 807 335.5 c 128,-1,16
 825 417 825 417 825 521 c 0,0,1
263 858 m 1,17,18
 362 1044 362 1044 573 1044 c 0,19,20
 676 1044 676 1044 750.5 1003 c 128,-1,21
 825 962 825 962 873 891.5 c 128,-1,22
 921 821 921 821 944 725 c 128,-1,23
 967 629 967 629 967 520 c 0,24,25
 967 406 967 406 944 307.5 c 128,-1,26
 921 209 921 209 873 135.5 c 128,-1,27
 825 62 825 62 752 19.5 c 128,-1,28
 679 -23 679 -23 580 -24 c 1,29,30
 475 -24 475 -24 396.5 21.5 c 128,-1,31
 318 67 318 67 273 154 c 1,32,-1
 273 -350 l 1,33,-1
 131 -350 l 1,34,-1
 131 1023 l 1,35,-1
 253 1023 l 1,36,-1
 263 858 l 1,17,18
EndSplineSet
EndChar

StartChar: q
Encoding: 113 113 85
Width: 1055
Flags: W
LayerCount: 2
Fore
SplineSet
482 1044 m 0,0,1
 717 1044 717 1044 798 862 c 1,2,-1
 813 1023 l 1,3,-1
 930 1023 l 1,4,-1
 930 -350 l 1,5,-1
 787 -350 l 1,6,-1
 787 155 l 1,7,8
 744 67 744 67 665 21.5 c 128,-1,9
 586 -24 586 -24 480 -24 c 0,10,11
 382 -24 382 -24 310 18 c 128,-1,12
 238 60 238 60 190.5 133 c 128,-1,13
 143 206 143 206 119.5 305 c 128,-1,14
 96 404 96 404 96 518 c 0,15,16
 96 626 96 626 119 721.5 c 128,-1,17
 142 817 142 817 189.5 888.5 c 128,-1,18
 237 960 237 960 310 1002 c 128,-1,19
 383 1044 383 1044 482 1044 c 0,0,1
503 940 m 1,20,21
 441 940 441 940 392 909 c 128,-1,22
 343 878 343 878 309 822.5 c 128,-1,23
 275 767 275 767 256.5 690 c 128,-1,24
 238 613 238 613 238 522 c 0,25,26
 238 418 238 418 255.5 336.5 c 128,-1,27
 273 255 273 255 307 198 c 128,-1,28
 341 141 341 141 389 111 c 128,-1,29
 437 81 437 81 499 81 c 0,30,31
 590 81 590 81 646.5 118 c 128,-1,32
 703 155 703 155 734 214.5 c 128,-1,33
 765 274 765 274 776 349 c 128,-1,34
 787 424 787 424 787 501 c 0,35,36
 787 593 787 593 776 672 c 128,-1,37
 765 751 765 751 734.5 809.5 c 128,-1,38
 704 868 704 868 648.5 902.5 c 128,-1,39
 593 937 593 937 503 940 c 1,20,21
EndSplineSet
EndChar

StartChar: r
Encoding: 114 114 86
Width: 577
Flags: W
LayerCount: 2
Fore
SplineSet
263 1023 m 1,0,-1
 263 831 l 1,1,2
 286 886 286 886 321 923.5 c 128,-1,3
 356 961 356 961 397 983 c 128,-1,4
 438 1005 438 1005 482.5 1014.5 c 128,-1,5
 527 1024 527 1024 569 1024 c 1,6,-1
 569 895 l 1,7,8
 485 895 485 895 427 865 c 128,-1,9
 369 835 369 835 333.5 784.5 c 128,-1,10
 298 734 298 734 282.5 668.5 c 128,-1,11
 267 603 267 603 267 532 c 2,12,-1
 267 0 l 1,13,-1
 125 0 l 1,14,-1
 125 1023 l 1,15,-1
 263 1023 l 1,0,-1
EndSplineSet
EndChar

StartChar: s
Encoding: 115 115 87
Width: 953
Flags: W
LayerCount: 2
Fore
SplineSet
865 846 m 1,0,1
 768 791 768 791 768 790 c 1,2,3
 734 868 734 868 670.5 902.5 c 128,-1,4
 607 937 607 937 505 937 c 0,5,6
 379 937 379 937 310 892 c 128,-1,7
 241 847 241 847 241 759 c 0,8,9
 241 712 241 712 264 682 c 128,-1,10
 287 652 287 652 325 632.5 c 128,-1,11
 363 613 363 613 413.5 601.5 c 128,-1,12
 464 590 464 590 518 580 c 0,13,14
 605 564 605 564 671.5 539.5 c 128,-1,15
 738 515 738 515 783 480 c 128,-1,16
 828 445 828 445 851 397 c 128,-1,17
 874 349 874 349 874 286 c 0,18,19
 874 134 874 134 770.5 55 c 128,-1,20
 667 -24 667 -24 462 -24 c 0,21,22
 402 -24 402 -24 340.5 -11.5 c 128,-1,23
 279 1 279 1 225.5 30.5 c 128,-1,24
 172 60 172 60 131.5 107.5 c 128,-1,25
 91 155 91 155 72 225 c 1,26,-1
 180 269 l 1,27,28
 216 172 216 172 285 127.5 c 128,-1,29
 354 83 354 83 475 83 c 0,30,31
 745 83 745 83 745 259 c 0,32,33
 745 310 745 310 728.5 343 c 128,-1,34
 712 376 712 376 674.5 399 c 128,-1,35
 637 422 637 422 576 438.5 c 128,-1,36
 515 455 515 455 425 474 c 0,37,38
 362 487 362 487 304.5 504.5 c 128,-1,39
 247 522 247 522 203 553.5 c 128,-1,40
 159 585 159 585 133 634.5 c 128,-1,41
 107 684 107 684 107 761 c 0,42,43
 107 829 107 829 136.5 881.5 c 128,-1,44
 166 934 166 934 218 970 c 128,-1,45
 270 1006 270 1006 341.5 1025 c 128,-1,46
 413 1044 413 1044 497 1044 c 0,47,48
 634 1044 634 1044 723 998.5 c 128,-1,49
 812 953 812 953 865 846 c 1,0,1
EndSplineSet
EndChar

StartChar: t
Encoding: 116 116 88
Width: 630
Flags: W
LayerCount: 2
Fore
SplineSet
594 125 m 1,0,-1
 618 32 l 1,1,2
 543 -16 543 -16 442 -16 c 0,3,4
 376 -16 376 -16 328.5 3.5 c 128,-1,5
 281 23 281 23 250.5 64.5 c 128,-1,6
 220 106 220 106 205.5 170.5 c 128,-1,7
 191 235 191 235 191 325 c 2,8,-1
 191 924 l 1,9,-1
 38 924 l 1,10,-1
 38 1023 l 1,11,-1
 200 1023 l 1,12,-1
 200 1350 l 1,13,-1
 333 1387 l 1,14,-1
 333 1023 l 1,15,-1
 557 1023 l 1,16,-1
 557 924 l 1,17,-1
 333 924 l 1,18,-1
 333 261 l 2,19,20
 333 91 333 91 471 91 c 0,21,22
 519 91 519 91 594 125 c 1,0,-1
EndSplineSet
EndChar

StartChar: u
Encoding: 117 117 89
Width: 1118
Flags: W
LayerCount: 2
Fore
SplineSet
813 436 m 2,0,-1
 813 1023 l 1,1,-1
 955 1023 l 1,2,-1
 955 0 l 1,3,-1
 817 0 l 1,4,-1
 817 192 l 1,5,6
 797 139 797 139 759.5 98.5 c 128,-1,7
 722 58 722 58 673.5 31 c 128,-1,8
 625 4 625 4 569.5 -10 c 128,-1,9
 514 -24 514 -24 458 -24 c 0,10,11
 380 -24 380 -24 325 -4 c 128,-1,12
 270 16 270 16 232.5 49.5 c 128,-1,13
 195 83 195 83 173 128.5 c 128,-1,14
 151 174 151 174 139.5 225 c 128,-1,15
 128 276 128 276 124.5 330.5 c 128,-1,16
 121 385 121 385 121 436 c 2,17,-1
 121 1023 l 1,18,-1
 263 1023 l 1,19,-1
 263 406 l 2,20,21
 263 327 263 327 274.5 267 c 128,-1,22
 286 207 286 207 312 167 c 128,-1,23
 338 127 338 127 380 107 c 128,-1,24
 422 87 422 87 483 87 c 0,25,26
 549 87 549 87 599.5 104.5 c 128,-1,27
 650 122 650 122 686.5 150.5 c 128,-1,28
 723 179 723 179 747.5 216 c 128,-1,29
 772 253 772 253 786.5 292 c 128,-1,30
 801 331 801 331 807 368.5 c 128,-1,31
 813 406 813 406 813 436 c 2,0,-1
EndSplineSet
EndChar

StartChar: v
Encoding: 118 118 90
Width: 952
Flags: W
LayerCount: 2
Fore
SplineSet
788 1023 m 1,0,-1
 926 1023 l 1,1,-1
 532 0 l 1,2,-1
 406 0 l 1,3,-1
 23 1023 l 1,4,-1
 175 1023 l 1,5,-1
 476 151 l 1,6,-1
 788 1023 l 1,0,-1
EndSplineSet
EndChar

StartChar: w
Encoding: 119 119 91
Width: 1487
Flags: W
LayerCount: 2
Fore
SplineSet
351 0 m 1,0,-1
 21 1023 l 1,1,-1
 173 1023 l 1,2,-1
 422 177 l 1,3,-1
 700 1023 l 1,4,-1
 794 1023 l 1,5,-1
 1056 178 l 1,6,-1
 1323 1023 l 1,7,-1
 1463 1023 l 1,8,-1
 1115 0 l 1,9,-1
 988 0 l 1,10,-1
 742 800 l 1,11,-1
 478 0 l 1,12,-1
 351 0 l 1,0,-1
EndSplineSet
EndChar

StartChar: x
Encoding: 120 120 92
Width: 966
Flags: W
LayerCount: 2
Fore
SplineSet
405 514 m 1,0,-1
 34 1023 l 1,1,-1
 188 1023 l 1,2,-1
 482 619 l 1,3,-1
 776 1023 l 1,4,-1
 926 1023 l 1,5,-1
 558 518 l 1,6,-1
 938 0 l 1,7,-1
 784 0 l 1,8,-1
 481 412 l 1,9,-1
 181 0 l 1,10,-1
 31 0 l 1,11,-1
 405 514 l 1,0,-1
EndSplineSet
EndChar

StartChar: y
Encoding: 121 121 93
Width: 985
Flags: W
LayerCount: 2
Fore
SplineSet
426 64 m 1,0,-1
 34 1023 l 1,1,-1
 177 1023 l 2,2,3
 174 1023 174 1023 233 874 c 2,4,-1
 370 524 l 2,5,6
 410 422 410 422 441 343.5 c 128,-1,7
 472 265 472 265 495 207 c 1,8,9
 517 265 517 265 540.5 325.5 c 128,-1,10
 564 386 564 386 590 452 c 2,11,-1
 708 749 l 2,12,13
 741 834 741 834 768 901.5 c 128,-1,14
 795 969 795 969 815 1023 c 1,15,-1
 955 1023 l 1,16,17
 921 934 921 934 871 811 c 128,-1,18
 821 688 821 688 756 527 c 2,19,-1
 584 97 l 2,20,21
 544 -5 544 -5 506.5 -83 c 128,-1,22
 469 -161 469 -161 422.5 -213.5 c 128,-1,23
 376 -266 376 -266 315.5 -293 c 128,-1,24
 255 -320 255 -320 169 -320 c 0,25,26
 118 -320 118 -320 64 -306 c 1,27,-1
 79 -193 l 1,28,29
 102 -197 102 -197 124 -198.5 c 128,-1,30
 146 -200 146 -200 167 -200 c 0,31,32
 335 -200 335 -200 403 -3 c 2,33,-1
 426 64 l 1,0,-1
EndSplineSet
EndChar

StartChar: z
Encoding: 122 122 94
Width: 878
Flags: W
LayerCount: 2
Fore
SplineSet
86 919 m 1,0,-1
 86 1023 l 1,1,-1
 836 1023 l 1,2,-1
 836 928 l 1,3,-1
 227 103 l 1,4,-1
 834 103 l 1,5,-1
 834 0 l 1,6,-1
 66 0 l 1,7,-1
 66 94 l 1,8,-1
 667 919 l 1,9,-1
 86 919 l 1,0,-1
EndSplineSet
EndChar

StartChar: braceleft
Encoding: 123 123 95
Width: 644
Flags: W
LayerCount: 2
Fore
SplineSet
35 754 m 1,0,1
 90 758 90 758 122.5 774.5 c 128,-1,2
 155 791 155 791 171.5 817 c 128,-1,3
 188 843 188 843 193 877 c 128,-1,4
 198 911 198 911 198 950 c 2,5,-1
 198 1090 l 1,6,-1
 202 1177 l 1,7,8
 207 1246 207 1246 223.5 1304 c 128,-1,9
 240 1362 240 1362 268 1390 c 0,10,11
 279 1401 279 1401 291.5 1412.5 c 128,-1,12
 304 1424 304 1424 319 1437 c 0,13,14
 364 1474 364 1474 434.5 1487.5 c 128,-1,15
 505 1501 505 1501 608 1504 c 1,16,-1
 608 1414 l 1,17,18
 579 1414 579 1414 556.5 1412.5 c 128,-1,19
 534 1411 534 1411 514.5 1407.5 c 128,-1,20
 495 1404 495 1404 477 1399 c 128,-1,21
 459 1394 459 1394 438 1388 c 0,22,23
 420 1382 420 1382 405 1363.5 c 128,-1,24
 390 1345 390 1345 381 1333 c 0,25,26
 377 1328 377 1328 372.5 1317 c 128,-1,27
 368 1306 368 1306 365 1289 c 2,28,-1
 356 1237 l 2,29,30
 355 1229 355 1229 353.5 1210.5 c 128,-1,31
 352 1192 352 1192 351 1169.5 c 128,-1,32
 350 1147 350 1147 349.5 1125.5 c 128,-1,33
 349 1104 349 1104 349 1091 c 2,34,-1
 349 993 l 2,35,36
 349 922 349 922 342 873 c 128,-1,37
 335 824 335 824 317 791 c 128,-1,38
 299 758 299 758 268 738 c 128,-1,39
 237 718 237 718 190 707 c 1,40,41
 237 696 237 696 268 676 c 128,-1,42
 299 656 299 656 317 623 c 128,-1,43
 335 590 335 590 342 540.5 c 128,-1,44
 349 491 349 491 349 421 c 0,45,46
 349 208 349 208 361 145 c 0,47,48
 369 102 369 102 385 74 c 128,-1,49
 401 46 401 46 429.5 29.5 c 128,-1,50
 458 13 458 13 501.5 6.5 c 128,-1,51
 545 0 545 0 608 0 c 1,52,-1
 608 -90 l 1,53,54
 541 -90 541 -90 486.5 -81.5 c 128,-1,55
 432 -73 432 -73 390 -61 c 0,56,57
 370 -55 370 -55 352.5 -45 c 128,-1,58
 335 -35 335 -35 319.5 -23.5 c 128,-1,59
 304 -12 304 -12 291 0.5 c 128,-1,60
 278 13 278 13 268 23 c 0,61,62
 257 33 257 33 249 49 c 128,-1,63
 241 65 241 65 234 85 c 2,64,-1
 213 154 l 2,65,66
 208 168 208 168 206 188.5 c 128,-1,67
 204 209 204 209 202 237 c 2,68,-1
 198 324 l 1,69,-1
 198 463 l 2,70,71
 198 517 198 517 189 553.5 c 128,-1,72
 180 590 180 590 160.5 612.5 c 128,-1,73
 141 635 141 635 110 646 c 128,-1,74
 79 657 79 657 35 660 c 1,75,-1
 35 754 l 1,0,1
EndSplineSet
EndChar

StartChar: bar
Encoding: 124 124 96
Width: 416
Flags: W
LayerCount: 2
Fore
SplineSet
281 -197 m 1,0,-1
 135 -197 l 1,1,-1
 135 1502 l 1,2,-1
 281 1502 l 1,3,-1
 281 -197 l 1,0,-1
EndSplineSet
EndChar

StartChar: braceright
Encoding: 125 125 97
Width: 644
Flags: W
LayerCount: 2
Fore
SplineSet
609 659 m 1,0,1
 567 656 567 656 536.5 646.5 c 128,-1,2
 506 637 506 637 485.5 615 c 128,-1,3
 465 593 465 593 455.5 556 c 128,-1,4
 446 519 446 519 446 462 c 2,5,-1
 446 420 l 2,6,7
 446 388 446 388 446 363.5 c 128,-1,8
 446 339 446 339 445 323 c 0,9,10
 445 309 445 309 444 285.5 c 128,-1,11
 443 262 443 262 441.5 236.5 c 128,-1,12
 440 211 440 211 437.5 188 c 128,-1,13
 435 165 435 165 431 153 c 2,14,-1
 410 84 l 2,15,16
 404 64 404 64 394.5 48.5 c 128,-1,17
 385 33 385 33 375 22 c 0,18,19
 355 2 355 2 324.5 -24 c 128,-1,20
 294 -50 294 -50 253 -62 c 0,21,22
 213 -74 213 -74 158 -82.5 c 128,-1,23
 103 -91 103 -91 36 -91 c 1,24,-1
 36 -1 l 1,25,26
 99 -1 99 -1 142.5 5.5 c 128,-1,27
 186 12 186 12 214.5 28.5 c 128,-1,28
 243 45 243 45 259 73 c 128,-1,29
 275 101 275 101 283 144 c 0,30,31
 295 207 295 207 295 420 c 0,32,33
 295 491 295 491 302 540.5 c 128,-1,34
 309 590 309 590 327 623 c 128,-1,35
 345 656 345 656 376 675.5 c 128,-1,36
 407 695 407 695 454 706 c 1,37,38
 407 717 407 717 376 736.5 c 128,-1,39
 345 756 345 756 327 789 c 128,-1,40
 309 822 309 822 302 871 c 128,-1,41
 295 920 295 920 295 992 c 2,42,-1
 295 1090 l 2,43,44
 295 1103 295 1103 294.5 1124.5 c 128,-1,45
 294 1146 294 1146 293 1168.5 c 128,-1,46
 292 1191 292 1191 290.5 1209.5 c 128,-1,47
 289 1228 289 1228 288 1236 c 0,48,49
 286 1246 286 1246 283 1268 c 128,-1,50
 280 1290 280 1290 271 1313.5 c 128,-1,51
 262 1337 262 1337 246.5 1358 c 128,-1,52
 231 1379 231 1379 206 1387 c 2,53,-1
 162 1401 l 2,54,55
 136 1409 136 1409 106 1411.5 c 128,-1,56
 76 1414 76 1414 36 1413 c 1,57,-1
 36 1503 l 1,58,59
 139 1500 139 1500 209 1486 c 128,-1,60
 279 1472 279 1472 324 1436 c 0,61,62
 349 1415 349 1415 369.5 1392.5 c 128,-1,63
 390 1370 390 1370 405 1340.5 c 128,-1,64
 420 1311 420 1311 429 1271 c 128,-1,65
 438 1231 438 1231 441 1176 c 0,66,67
 443 1145 443 1145 444 1125.5 c 128,-1,68
 445 1106 445 1106 445.5 1088 c 128,-1,69
 446 1070 446 1070 446 1048 c 128,-1,70
 446 1026 446 1026 446 992 c 2,71,-1
 446 949 l 2,72,73
 446 908 446 908 451 874 c 128,-1,74
 456 840 456 840 473.5 814.5 c 128,-1,75
 491 789 491 789 523 773 c 128,-1,76
 555 757 555 757 609 753 c 1,77,-1
 609 659 l 1,0,1
EndSplineSet
EndChar

StartChar: asciitilde
Encoding: 126 126 98
Width: 962
Flags: W
LayerCount: 2
Fore
SplineSet
757 700 m 0,0,1
 715 700 715 700 643 715 c 128,-1,2
 571 730 571 730 466 762 c 0,3,4
 361 793 361 793 299.5 809 c 128,-1,5
 238 825 238 825 217 825 c 0,6,7
 203 825 203 825 192 821.5 c 128,-1,8
 181 818 181 818 171.5 806 c 128,-1,9
 162 794 162 794 154 770.5 c 128,-1,10
 146 747 146 747 139 707 c 1,11,-1
 21 707 l 1,12,13
 25 769 25 769 36.5 811 c 128,-1,14
 48 853 48 853 65 879.5 c 128,-1,15
 82 906 82 906 103.5 920 c 128,-1,16
 125 934 125 934 147.5 939.5 c 128,-1,17
 170 945 170 945 192.5 945.5 c 128,-1,18
 215 946 215 946 235 946 c 0,19,20
 296 946 296 946 503 886 c 0,21,22
 711 826 711 826 743 826 c 1,23,24
 756 828 756 828 765.5 829.5 c 128,-1,25
 775 831 775 831 781.5 834.5 c 128,-1,26
 788 838 788 838 793 845 c 128,-1,27
 798 852 798 852 803 865 c 1,28,-1
 812 897 l 1,29,-1
 822 946 l 1,30,-1
 941 946 l 1,31,32
 938 877 938 877 925 830 c 128,-1,33
 912 783 912 783 889 754 c 128,-1,34
 866 725 866 725 833 712.5 c 128,-1,35
 800 700 800 700 757 700 c 0,0,1
EndSplineSet
EndChar

StartChar: exclamdown
Encoding: 161 161 99
Width: 426
Flags: W
LayerCount: 2
Fore
SplineSet
174 1161 m 1,0,-1
 250 1161 l 1,1,-1
 250 0 l 1,2,-1
 139 0 l 1,3,-1
 174 1161 l 1,0,-1
139 1268 m 1,4,-1
 139 1465 l 1,5,-1
 303 1465 l 1,6,-1
 303 1268 l 1,7,-1
 139 1268 l 1,4,-1
EndSplineSet
EndChar

StartChar: cent
Encoding: 162 162 100
Width: 993
Flags: W
LayerCount: 2
Fore
SplineSet
484 -22 m 1,0,1
 389 -13 389 -13 316.5 28.5 c 128,-1,2
 244 70 244 70 194.5 138 c 128,-1,3
 145 206 145 206 119.5 297 c 128,-1,4
 94 388 94 388 94 496 c 0,5,6
 94 607 94 607 117.5 702.5 c 128,-1,7
 141 798 141 798 189 870 c 128,-1,8
 237 942 237 942 310.5 987 c 128,-1,9
 384 1032 384 1032 484 1042 c 1,10,-1
 484 1253 l 1,11,-1
 577 1253 l 1,12,-1
 577 1042 l 1,13,14
 630 1038 630 1038 681 1020 c 128,-1,15
 732 1002 732 1002 776.5 965.5 c 128,-1,16
 821 929 821 929 855.5 872 c 128,-1,17
 890 815 890 815 909 733 c 1,18,-1
 798 701 l 1,19,20
 741 918 741 918 577 938 c 1,21,-1
 577 84 l 1,22,23
 659 96 659 96 716.5 156.5 c 128,-1,24
 774 217 774 217 805 323 c 1,25,-1
 906 289 l 1,26,27
 889 212 889 212 856 156 c 128,-1,28
 823 100 823 100 779 62.5 c 128,-1,29
 735 25 735 25 683 4.5 c 128,-1,30
 631 -16 631 -16 577 -22 c 1,31,-1
 577 -208 l 1,32,-1
 484 -208 l 1,33,-1
 484 -22 l 1,0,1
484 935 m 1,34,35
 422 924 422 924 375.5 890.5 c 128,-1,36
 329 857 329 857 298.5 802.5 c 128,-1,37
 268 748 268 748 252.5 675 c 128,-1,38
 237 602 237 602 237 512 c 0,39,40
 237 425 237 425 251.5 351.5 c 128,-1,41
 266 278 266 278 296.5 222.5 c 128,-1,42
 327 167 327 167 373.5 131.5 c 128,-1,43
 420 96 420 96 484 85 c 1,44,-1
 484 935 l 1,34,35
EndSplineSet
EndChar

StartChar: sterling
Encoding: 163 163 101
Width: 1168
Flags: W
LayerCount: 2
Fore
SplineSet
677 42 m 0,0,1
 481 42 481 42 192 -30 c 1,2,-1
 116 60 l 1,3,4
 118 64 118 64 123.5 75 c 128,-1,5
 129 86 129 86 137 103 c 2,6,-1
 158 148 l 2,7,8
 159 151 159 151 165 163 c 128,-1,9
 171 175 171 175 177 189.5 c 128,-1,10
 183 204 183 204 188.5 216.5 c 128,-1,11
 194 229 194 229 196 233 c 2,12,-1
 212 274 l 2,13,14
 218 289 218 289 221 300.5 c 128,-1,15
 224 312 224 312 227 320 c 1,16,-1
 238 365 l 2,17,18
 247 402 247 402 251 440 c 128,-1,19
 255 478 255 478 254 525 c 0,20,21
 254 558 254 558 236 695 c 1,22,-1
 66 695 l 1,23,-1
 66 800 l 1,24,-1
 227 800 l 1,25,26
 215 950 215 950 215 958 c 0,27,28
 215 1213 215 1213 319 1351 c 128,-1,29
 423 1489 423 1489 633 1489 c 0,30,31
 960 1489 960 1489 1011 1152 c 1,32,-1
 892 1134 l 1,33,34
 851 1383 851 1383 639 1383 c 0,35,36
 490 1383 490 1383 421.5 1279.5 c 128,-1,37
 353 1176 353 1176 353 977 c 0,38,39
 353 963 353 963 356 919 c 128,-1,40
 359 875 359 875 366 800 c 1,41,-1
 710 800 l 1,42,-1
 710 695 l 1,43,-1
 375 695 l 1,44,45
 380 629 380 629 383 589 c 128,-1,46
 386 549 386 549 387.5 526.5 c 128,-1,47
 389 504 389 504 389 495 c 128,-1,48
 389 486 389 486 389 481 c 0,49,50
 389 409 389 409 378.5 354.5 c 128,-1,51
 368 300 368 300 353 259 c 128,-1,52
 338 218 338 218 321.5 189.5 c 128,-1,53
 305 161 305 161 294 142 c 2,54,-1
 267 95 l 1,55,56
 472 167 472 167 739 167 c 0,57,58
 879 167 879 167 1026 129 c 1,59,-1
 998 -1 l 1,60,61
 996 -1 996 -1 987.5 1.5 c 128,-1,62
 979 4 979 4 962 7 c 2,63,-1
 888 21 l 2,64,65
 865 25 865 25 843 29 c 128,-1,66
 821 33 821 33 796 36 c 128,-1,67
 771 39 771 39 742 40.5 c 128,-1,68
 713 42 713 42 677 42 c 0,0,1
EndSplineSet
EndChar

StartChar: currency
Encoding: 164 164 102
Width: 1068
Flags: W
LayerCount: 2
Fore
SplineSet
769 515 m 0,0,1
 769 568 769 568 752.5 617.5 c 128,-1,2
 736 667 736 667 705.5 705.5 c 128,-1,3
 675 744 675 744 631.5 767 c 128,-1,4
 588 790 588 790 535 790 c 0,5,6
 481 790 481 790 438 767 c 128,-1,7
 395 744 395 744 365 705.5 c 128,-1,8
 335 667 335 667 319 617 c 128,-1,9
 303 567 303 567 303 512 c 0,10,11
 303 461 303 461 318 411 c 128,-1,12
 333 361 333 361 362.5 321.5 c 128,-1,13
 392 282 392 282 435.5 258 c 128,-1,14
 479 234 479 234 536 234 c 0,15,16
 588 234 588 234 631 257.5 c 128,-1,17
 674 281 674 281 704.5 320.5 c 128,-1,18
 735 360 735 360 752 410.5 c 128,-1,19
 769 461 769 461 769 515 c 0,0,1
183 513 m 0,20,21
 183 584 183 584 205.5 650 c 128,-1,22
 228 716 228 716 272 767 c 128,-1,23
 316 818 316 818 382 849 c 128,-1,24
 448 880 448 880 534 880 c 256,25,26
 620 880 620 880 685 848.5 c 128,-1,27
 750 817 750 817 794 765.5 c 128,-1,28
 838 714 838 714 860.5 647 c 128,-1,29
 883 580 883 580 883 510 c 0,30,31
 883 442 883 442 861.5 375.5 c 128,-1,32
 840 309 840 309 797 257 c 128,-1,33
 754 205 754 205 688.5 173 c 128,-1,34
 623 141 623 141 535 141 c 256,35,36
 447 141 447 141 381 173 c 128,-1,37
 315 205 315 205 271 257.5 c 128,-1,38
 227 310 227 310 205 377 c 128,-1,39
 183 444 183 444 183 513 c 0,20,21
EndSplineSet
EndChar

StartChar: yen
Encoding: 165 165 103
Width: 1358
Flags: W
LayerCount: 2
Fore
SplineSet
348 544 m 1,0,-1
 348 630 l 1,1,-1
 559 630 l 1,2,-1
 94 1436 l 1,3,-1
 252 1436 l 1,4,-1
 680 682 l 1,5,-1
 1107 1436 l 1,6,-1
 1264 1436 l 1,7,-1
 799 630 l 1,8,-1
 1002 630 l 1,9,-1
 1002 544 l 1,10,-1
 752 544 l 1,11,-1
 752 420 l 1,12,-1
 1002 420 l 1,13,-1
 1002 334 l 1,14,-1
 752 334 l 1,15,-1
 752 0 l 1,16,-1
 606 0 l 1,17,-1
 606 334 l 1,18,-1
 348 334 l 1,19,-1
 348 420 l 1,20,-1
 606 420 l 1,21,-1
 606 544 l 1,22,-1
 348 544 l 1,0,-1
EndSplineSet
EndChar

StartChar: brokenbar
Encoding: 166 166 104
Width: 416
Flags: W
LayerCount: 2
Fore
SplineSet
135 -198 m 1,0,-1
 135 433 l 1,1,-1
 281 433 l 1,2,-1
 281 -198 l 1,3,-1
 135 -198 l 1,0,-1
281 883 m 1,4,-1
 135 883 l 1,5,-1
 135 1504 l 1,6,-1
 281 1504 l 1,7,-1
 281 883 l 1,4,-1
EndSplineSet
EndChar

StartChar: section
Encoding: 167 167 105
Width: 1005
Flags: W
LayerCount: 2
Fore
SplineSet
301 731 m 256,0,1
 301 709 301 709 319 688.5 c 128,-1,2
 337 668 337 668 366 648.5 c 128,-1,3
 395 629 395 629 431.5 611.5 c 128,-1,4
 468 594 468 594 505.5 579.5 c 128,-1,5
 543 565 543 565 577 553.5 c 128,-1,6
 611 542 611 542 636 535 c 2,7,-1
 677 524 l 1,8,9
 739 631 739 631 739 703 c 0,10,11
 739 751 739 751 707.5 782 c 128,-1,12
 676 813 676 813 624 838 c 0,13,14
 617 842 617 842 604 848 c 128,-1,15
 591 854 591 854 575.5 860 c 128,-1,16
 560 866 560 866 545.5 872 c 128,-1,17
 531 878 531 878 521 882 c 2,18,-1
 391 931 l 1,19,20
 364 897 364 897 347 869.5 c 128,-1,21
 330 842 330 842 319.5 818.5 c 128,-1,22
 309 795 309 795 305 774 c 128,-1,23
 301 753 301 753 301 731 c 256,0,1
535 -33 m 0,24,25
 473 -33 473 -33 407 -18 c 128,-1,26
 341 -3 341 -3 283.5 32 c 128,-1,27
 226 67 226 67 183.5 124 c 128,-1,28
 141 181 141 181 127 265 c 1,29,-1
 229 302 l 1,30,31
 293 74 293 74 540 74 c 0,32,33
 649 74 649 74 709.5 115 c 128,-1,34
 770 156 770 156 770 237 c 2,35,-1
 770 243 l 1,36,37
 769 269 769 269 765 289.5 c 128,-1,38
 761 310 761 310 751.5 327 c 128,-1,39
 742 344 742 344 726 357.5 c 128,-1,40
 710 371 710 371 685 384 c 0,41,42
 644 405 644 405 455 473 c 0,43,44
 380 500 380 500 326.5 527 c 128,-1,45
 273 554 273 554 239.5 586 c 128,-1,46
 206 618 206 618 190 657 c 128,-1,47
 174 696 174 696 174 747 c 0,48,49
 174 850 174 850 281 984 c 1,50,51
 252 1001 252 1001 231 1020.5 c 128,-1,52
 210 1040 210 1040 195.5 1065 c 128,-1,53
 181 1090 181 1090 174 1121.5 c 128,-1,54
 167 1153 167 1153 167 1195 c 0,55,56
 167 1264 167 1264 192.5 1316.5 c 128,-1,57
 218 1369 218 1369 265 1405 c 128,-1,58
 312 1441 312 1441 378.5 1459.5 c 128,-1,59
 445 1478 445 1478 527 1478 c 0,60,61
 594 1478 594 1478 648 1467.5 c 128,-1,62
 702 1457 702 1457 745 1433 c 128,-1,63
 788 1409 788 1409 822 1371 c 128,-1,64
 856 1333 856 1333 884 1278 c 1,65,-1
 793 1221 l 1,66,67
 769 1264 769 1264 745 1293 c 128,-1,68
 721 1322 721 1322 691 1339.5 c 128,-1,69
 661 1357 661 1357 623.5 1364 c 128,-1,70
 586 1371 586 1371 535 1371 c 0,71,72
 420 1371 420 1371 361 1325 c 128,-1,73
 302 1279 302 1279 300 1189 c 1,74,-1
 300 1186 l 2,75,76
 300 1148 300 1148 320.5 1117.5 c 128,-1,77
 341 1087 341 1087 387 1064 c 0,78,79
 415 1049 415 1049 560 994 c 0,80,81
 648 960 648 960 708 929.5 c 128,-1,82
 768 899 768 899 804.5 866 c 128,-1,83
 841 833 841 833 857 794.5 c 128,-1,84
 873 756 873 756 873 706 c 0,85,86
 873 613 873 613 783 471 c 1,87,88
 898 395 898 395 898 253 c 0,89,90
 898 112 898 112 807 39.5 c 128,-1,91
 716 -33 716 -33 535 -33 c 0,24,25
EndSplineSet
EndChar

StartChar: dieresis
Encoding: 168 168 106
Width: 860
Flags: W
LayerCount: 2
Fore
SplineSet
680 1365 m 1,0,-1
 680 1191 l 1,1,-1
 514 1191 l 1,2,-1
 514 1365 l 1,3,-1
 680 1365 l 1,0,-1
135 1365 m 1,4,-1
 301 1365 l 1,5,-1
 301 1191 l 1,6,-1
 135 1191 l 1,7,-1
 135 1365 l 1,4,-1
EndSplineSet
EndChar

StartChar: copyright
Encoding: 169 169 107
Width: 1702
Flags: W
LayerCount: 2
Fore
SplineSet
856 1247 m 0,0,1
 961 1247 961 1247 1031 1189.5 c 128,-1,2
 1101 1132 1101 1132 1129 1015 c 1,3,-1
 1058 997 l 1,4,5
 1017 1177 1017 1177 853 1177 c 0,6,7
 598 1177 598 1177 598 799 c 0,8,9
 598 700 598 700 611.5 627.5 c 128,-1,10
 625 555 625 555 655.5 508 c 128,-1,11
 686 461 686 461 735 438 c 128,-1,12
 784 415 784 415 854 415 c 0,13,14
 939 415 939 415 989.5 458.5 c 128,-1,15
 1040 502 1040 502 1066 584 c 1,16,-1
 1132 561 l 1,17,18
 1068 344 1068 344 850 344 c 0,19,20
 685 344 685 344 601 453 c 128,-1,21
 517 562 517 562 517 799 c 0,22,23
 517 1027 517 1027 607 1137 c 128,-1,24
 697 1247 697 1247 856 1247 c 0,0,1
1579 774 m 0,25,26
 1579 678 1579 678 1554 587 c 128,-1,27
 1529 496 1529 496 1482 415 c 128,-1,28
 1435 334 1435 334 1369.5 266.5 c 128,-1,29
 1304 199 1304 199 1223 150 c 128,-1,30
 1142 101 1142 101 1047.5 74 c 128,-1,31
 953 47 953 47 850 47 c 0,32,33
 754 47 754 47 662.5 72.5 c 128,-1,34
 571 98 571 98 490.5 144.5 c 128,-1,35
 410 191 410 191 342.5 256.5 c 128,-1,36
 275 322 275 322 226 403 c 128,-1,37
 177 484 177 484 150 577.5 c 128,-1,38
 123 671 123 671 123 774 c 0,39,40
 123 871 123 871 148.5 962.5 c 128,-1,41
 174 1054 174 1054 220.5 1135 c 128,-1,42
 267 1216 267 1216 333 1284 c 128,-1,43
 399 1352 399 1352 479.5 1400.5 c 128,-1,44
 560 1449 560 1449 654 1476 c 128,-1,45
 748 1503 748 1503 850 1503 c 0,46,47
 947 1503 947 1503 1038.5 1477.5 c 128,-1,48
 1130 1452 1130 1452 1211 1405.5 c 128,-1,49
 1292 1359 1292 1359 1359.5 1293.5 c 128,-1,50
 1427 1228 1427 1228 1476 1147 c 128,-1,51
 1525 1066 1525 1066 1552 971.5 c 128,-1,52
 1579 877 1579 877 1579 774 c 0,25,26
512 190 m 0,53,54
 666 100 666 100 849 100 c 0,55,56
 939 100 939 100 1024.5 123.5 c 128,-1,57
 1110 147 1110 147 1185 190.5 c 128,-1,58
 1260 234 1260 234 1322 295.5 c 128,-1,59
 1384 357 1384 357 1428.5 431.5 c 128,-1,60
 1473 506 1473 506 1498 592.5 c 128,-1,61
 1523 679 1523 679 1523 773 c 0,62,63
 1523 863 1523 863 1499.5 947.5 c 128,-1,64
 1476 1032 1476 1032 1432.5 1107 c 128,-1,65
 1389 1182 1389 1182 1328 1244.5 c 128,-1,66
 1267 1307 1267 1307 1192 1352 c 128,-1,67
 1117 1397 1117 1397 1030.5 1422 c 128,-1,68
 944 1447 944 1447 849 1447 c 0,69,70
 760 1447 760 1447 676 1423.5 c 128,-1,71
 592 1400 592 1400 517 1357.5 c 128,-1,72
 442 1315 442 1315 379.5 1254 c 128,-1,73
 317 1193 317 1193 271.5 1118.5 c 128,-1,74
 226 1044 226 1044 201 956.5 c 128,-1,75
 176 869 176 869 176 773 c 0,76,77
 176 682 176 682 199.5 596.5 c 128,-1,78
 223 511 223 511 267 436 c 128,-1,79
 311 361 311 361 373 298 c 128,-1,80
 435 235 435 235 512 190 c 0,53,54
EndSplineSet
EndChar

StartChar: guillemotleft
Encoding: 171 171 109
Width: 946
Flags: W
LayerCount: 2
Fore
SplineSet
894 251 m 1,0,-1
 449 552 l 1,1,-1
 449 749 l 1,2,-1
 894 1050 l 1,3,-1
 894 909 l 1,4,-1
 547 650 l 1,5,-1
 894 393 l 1,6,-1
 894 251 l 1,0,-1
51 552 m 1,7,-1
 51 749 l 1,8,-1
 496 1050 l 1,9,-1
 496 909 l 1,10,-1
 149 650 l 1,11,-1
 496 393 l 1,12,-1
 496 251 l 1,13,-1
 51 552 l 1,7,-1
EndSplineSet
EndChar

StartChar: logicalnot
Encoding: 172 172 110
Width: 1024
Flags: W
LayerCount: 2
Fore
SplineSet
803 670 m 1,0,-1
 135 670 l 1,1,-1
 135 756 l 1,2,-1
 889 756 l 1,3,-1
 889 335 l 1,4,-1
 803 335 l 1,5,-1
 803 670 l 1,0,-1
EndSplineSet
EndChar

StartChar: registered
Encoding: 174 174 111
Width: 1702
Flags: W
LayerCount: 2
Fore
SplineSet
1579 774 m 0,0,1
 1579 678 1579 678 1554 587 c 128,-1,2
 1529 496 1529 496 1482 415 c 128,-1,3
 1435 334 1435 334 1369.5 266.5 c 128,-1,4
 1304 199 1304 199 1223 150 c 128,-1,5
 1142 101 1142 101 1047.5 74 c 128,-1,6
 953 47 953 47 850 47 c 0,7,8
 754 47 754 47 662.5 72.5 c 128,-1,9
 571 98 571 98 490.5 144.5 c 128,-1,10
 410 191 410 191 342.5 256.5 c 128,-1,11
 275 322 275 322 226 403 c 128,-1,12
 177 484 177 484 150 577.5 c 128,-1,13
 123 671 123 671 123 774 c 0,14,15
 123 871 123 871 148.5 962.5 c 128,-1,16
 174 1054 174 1054 220.5 1135 c 128,-1,17
 267 1216 267 1216 333 1284 c 128,-1,18
 399 1352 399 1352 479.5 1400.5 c 128,-1,19
 560 1449 560 1449 654 1476 c 128,-1,20
 748 1503 748 1503 850 1503 c 0,21,22
 947 1503 947 1503 1038.5 1477.5 c 128,-1,23
 1130 1452 1130 1452 1211 1405.5 c 128,-1,24
 1292 1359 1292 1359 1359.5 1293.5 c 128,-1,25
 1427 1228 1427 1228 1476 1147 c 128,-1,26
 1525 1066 1525 1066 1552 971.5 c 128,-1,27
 1579 877 1579 877 1579 774 c 0,0,1
664 1184 m 1,28,-1
 664 846 l 1,29,-1
 849 846 l 2,30,31
 894 846 894 846 937.5 851 c 128,-1,32
 981 856 981 856 1015.5 873.5 c 128,-1,33
 1050 891 1050 891 1071 924.5 c 128,-1,34
 1092 958 1092 958 1092 1015 c 0,35,36
 1092 1075 1092 1075 1068 1109 c 128,-1,37
 1044 1143 1044 1143 1008 1159.5 c 128,-1,38
 972 1176 972 1176 929 1180 c 128,-1,39
 886 1184 886 1184 848 1184 c 2,40,-1
 664 1184 l 1,28,-1
857 1248 m 2,41,42
 1179 1248 1179 1248 1179 1017 c 0,43,44
 1179 849 1179 849 1000 793 c 1,45,46
 1006 774 1006 774 1019.5 743 c 128,-1,47
 1033 712 1033 712 1049 677.5 c 128,-1,48
 1065 643 1065 643 1081.5 608.5 c 128,-1,49
 1098 574 1098 574 1111 547 c 2,50,-1
 1186 379 l 1,51,-1
 1099 379 l 1,52,-1
 916 779 l 1,53,-1
 661 779 l 1,54,-1
 661 381 l 1,55,-1
 578 381 l 1,56,-1
 578 1248 l 1,57,-1
 857 1248 l 2,41,42
512 190 m 0,58,59
 666 100 666 100 849 100 c 0,60,61
 939 100 939 100 1024.5 123.5 c 128,-1,62
 1110 147 1110 147 1185 190.5 c 128,-1,63
 1260 234 1260 234 1322 295.5 c 128,-1,64
 1384 357 1384 357 1428.5 431.5 c 128,-1,65
 1473 506 1473 506 1498 592.5 c 128,-1,66
 1523 679 1523 679 1523 773 c 0,67,68
 1523 863 1523 863 1499.5 947.5 c 128,-1,69
 1476 1032 1476 1032 1432.5 1107 c 128,-1,70
 1389 1182 1389 1182 1328 1244.5 c 128,-1,71
 1267 1307 1267 1307 1192 1352 c 128,-1,72
 1117 1397 1117 1397 1030.5 1422 c 128,-1,73
 944 1447 944 1447 849 1447 c 0,74,75
 760 1447 760 1447 676 1423.5 c 128,-1,76
 592 1400 592 1400 517 1357.5 c 128,-1,77
 442 1315 442 1315 379.5 1254 c 128,-1,78
 317 1193 317 1193 271.5 1118.5 c 128,-1,79
 226 1044 226 1044 201 956.5 c 128,-1,80
 176 869 176 869 176 773 c 0,81,82
 176 682 176 682 199.5 596.5 c 128,-1,83
 223 511 223 511 267 436 c 128,-1,84
 311 361 311 361 373 298 c 128,-1,85
 435 235 435 235 512 190 c 0,58,59
EndSplineSet
EndChar

StartChar: macron
Encoding: 175 175 112
Width: 724
Flags: W
LayerCount: 2
Fore
SplineSet
135 1219 m 1,0,-1
 135 1329 l 1,1,-1
 589 1329 l 1,2,-1
 589 1219 l 1,3,-1
 135 1219 l 1,0,-1
EndSplineSet
EndChar

StartChar: degree
Encoding: 176 176 113
Width: 483
Flags: W
LayerCount: 2
Fore
SplineSet
483 1269 m 256,0,1
 483 1221 483 1221 466 1178 c 128,-1,2
 449 1135 449 1135 417 1102.5 c 128,-1,3
 385 1070 385 1070 340 1051 c 128,-1,4
 295 1032 295 1032 240 1032 c 0,5,6
 187 1032 187 1032 143 1050.5 c 128,-1,7
 99 1069 99 1069 67 1101 c 128,-1,8
 35 1133 35 1133 17.5 1175.5 c 128,-1,9
 0 1218 0 1218 0 1267 c 256,10,11
 0 1316 0 1316 17.5 1359.5 c 128,-1,12
 35 1403 35 1403 67 1435 c 128,-1,13
 99 1467 99 1467 143 1485.5 c 128,-1,14
 187 1504 187 1504 240 1504 c 0,15,16
 295 1504 295 1504 339.5 1485 c 128,-1,17
 384 1466 384 1466 416 1434 c 128,-1,18
 448 1402 448 1402 465.5 1359.5 c 128,-1,19
 483 1317 483 1317 483 1269 c 256,0,1
379 1268 m 256,20,21
 379 1297 379 1297 369 1324 c 128,-1,22
 359 1351 359 1351 340.5 1372 c 128,-1,23
 322 1393 322 1393 296.5 1405.5 c 128,-1,24
 271 1418 271 1418 240 1418 c 0,25,26
 207 1418 207 1418 180.5 1405.5 c 128,-1,27
 154 1393 154 1393 136 1372 c 128,-1,28
 118 1351 118 1351 108 1324 c 128,-1,29
 98 1297 98 1297 98 1268 c 256,30,31
 98 1239 98 1239 107.5 1212 c 128,-1,32
 117 1185 117 1185 135 1164 c 128,-1,33
 153 1143 153 1143 179.5 1130 c 128,-1,34
 206 1117 206 1117 240 1117 c 0,35,36
 273 1117 273 1117 299 1129.5 c 128,-1,37
 325 1142 325 1142 342.5 1163 c 128,-1,38
 360 1184 360 1184 369.5 1211.5 c 128,-1,39
 379 1239 379 1239 379 1268 c 256,20,21
EndSplineSet
EndChar

StartChar: plusminus
Encoding: 177 177 114
Width: 860
Flags: W
LayerCount: 2
Fore
SplineSet
129 247 m 1,0,-1
 129 333 l 1,1,-1
 730 333 l 1,2,-1
 730 247 l 1,3,-1
 129 247 l 1,0,-1
130 673 m 1,4,-1
 130 773 l 1,5,-1
 379 773 l 1,6,-1
 379 1023 l 1,7,-1
 481 1023 l 1,8,-1
 481 773 l 1,9,-1
 730 773 l 1,10,-1
 730 673 l 1,11,-1
 481 673 l 1,12,-1
 481 423 l 1,13,-1
 379 423 l 1,14,-1
 379 673 l 1,15,-1
 130 673 l 1,4,-1
EndSplineSet
EndChar

StartChar: twosuperior
Encoding: 178 178 115
Width: 1230
Flags: W
LayerCount: 2
Fore
SplineSet
860 779 m 1,0,-1
 385 779 l 1,1,2
 387 835 387 835 415 882 c 128,-1,3
 443 929 443 929 483.5 970 c 128,-1,4
 524 1011 524 1011 571 1048 c 128,-1,5
 618 1085 618 1085 657.5 1120.5 c 128,-1,6
 697 1156 697 1156 723.5 1191.5 c 128,-1,7
 750 1227 750 1227 750 1266 c 2,8,-1
 750 1269 l 2,9,10
 750 1299 750 1299 739.5 1323 c 128,-1,11
 729 1347 729 1347 711 1363 c 128,-1,12
 693 1379 693 1379 669 1387.5 c 128,-1,13
 645 1396 645 1396 618 1396 c 0,14,15
 589 1396 589 1396 562.5 1387.5 c 128,-1,16
 536 1379 536 1379 514 1363 c 128,-1,17
 492 1347 492 1347 476 1324 c 128,-1,18
 460 1301 460 1301 454 1271 c 1,19,-1
 435 1281 l 2,20,21
 416 1291 416 1291 393.5 1302 c 128,-1,22
 371 1313 371 1313 364 1316 c 1,23,24
 379 1359 379 1359 405 1392 c 128,-1,25
 431 1425 431 1425 464.5 1447 c 128,-1,26
 498 1469 498 1469 537.5 1480 c 128,-1,27
 577 1491 577 1491 619 1491 c 0,28,29
 666 1491 666 1491 709.5 1476 c 128,-1,30
 753 1461 753 1461 786 1433.5 c 128,-1,31
 819 1406 819 1406 838.5 1366 c 128,-1,32
 858 1326 858 1326 858 1276 c 0,33,34
 858 1222 858 1222 839.5 1180 c 128,-1,35
 821 1138 821 1138 792 1104.5 c 128,-1,36
 763 1071 763 1071 726.5 1042 c 128,-1,37
 690 1013 690 1013 653.5 985 c 128,-1,38
 617 957 617 957 584.5 926.5 c 128,-1,39
 552 896 552 896 530 859 c 1,40,-1
 860 859 l 1,41,-1
 860 779 l 1,0,-1
EndSplineSet
EndChar

StartChar: threesuperior
Encoding: 179 179 116
Width: 772
Flags: W
LayerCount: 2
Fore
SplineSet
363 1481 m 0,0,1
 413 1481 413 1481 453.5 1467 c 128,-1,2
 494 1453 494 1453 522.5 1429.5 c 128,-1,3
 551 1406 551 1406 566 1374.5 c 128,-1,4
 581 1343 581 1343 581 1308 c 0,5,6
 581 1256 581 1256 549 1210.5 c 128,-1,7
 517 1165 517 1165 459 1144 c 1,8,9
 536 1121 536 1121 575.5 1072.5 c 128,-1,10
 615 1024 615 1024 615 949 c 0,11,12
 615 908 615 908 598 871 c 128,-1,13
 581 834 581 834 549.5 806 c 128,-1,14
 518 778 518 778 472 761.5 c 128,-1,15
 426 745 426 745 369 745 c 1,16,17
 329 746 329 746 290.5 756 c 128,-1,18
 252 766 252 766 219.5 786.5 c 128,-1,19
 187 807 187 807 163.5 837.5 c 128,-1,20
 140 868 140 868 130 910 c 1,21,-1
 208 950 l 1,22,23
 244 834 244 834 376 834 c 0,24,25
 405 834 405 834 429 844.5 c 128,-1,26
 453 855 453 855 470 871.5 c 128,-1,27
 487 888 487 888 496.5 909.5 c 128,-1,28
 506 931 506 931 506 953 c 0,29,30
 506 1095 506 1095 318 1095 c 1,31,-1
 318 1182 l 1,32,33
 403 1183 403 1183 437 1213.5 c 128,-1,34
 471 1244 471 1244 471 1298 c 0,35,36
 471 1343 471 1343 444.5 1369.5 c 128,-1,37
 418 1396 418 1396 364 1396 c 0,38,39
 321 1396 321 1396 282 1374 c 128,-1,40
 243 1352 243 1352 223 1307 c 1,41,-1
 150 1358 l 1,42,43
 160 1388 160 1388 183 1410.5 c 128,-1,44
 206 1433 206 1433 235 1449 c 128,-1,45
 264 1465 264 1465 297.5 1473 c 128,-1,46
 331 1481 331 1481 363 1481 c 0,0,1
EndSplineSet
EndChar

StartChar: acute
Encoding: 180 180 117
Width: 494
Flags: W
LayerCount: 2
Fore
SplineSet
254 1492 m 1,0,-1
 449 1492 l 1,1,-1
 141 1172 l 1,2,-1
 49 1172 l 1,3,-1
 254 1492 l 1,0,-1
EndSplineSet
EndChar

StartChar: mu
Encoding: 181 181 118
Width: 1122
Flags: W
LayerCount: 2
Fore
SplineSet
828 436 m 2,0,-1
 828 1023 l 1,1,-1
 970 1023 l 1,2,-1
 970 0 l 1,3,-1
 833 0 l 1,4,-1
 829 159 l 1,5,6
 712 -24 712 -24 467 -24 c 1,7,8
 354 -21 354 -21 286 18 c 128,-1,9
 218 57 218 57 181 121 c 128,-1,10
 144 185 144 185 132.5 266.5 c 128,-1,11
 121 348 121 348 121 436 c 2,12,-1
 121 1023 l 1,13,-1
 268 1023 l 1,14,-1
 268 406 l 2,15,16
 268 249 268 249 319 168 c 128,-1,17
 370 87 370 87 492 87 c 0,18,19
 558 87 558 87 609 105.5 c 128,-1,20
 660 124 660 124 697 154.5 c 128,-1,21
 734 185 734 185 759.5 223 c 128,-1,22
 785 261 785 261 800 300 c 128,-1,23
 815 339 815 339 821.5 374.5 c 128,-1,24
 828 410 828 410 828 436 c 2,0,-1
EndSplineSet
EndChar

StartChar: paragraph
Encoding: 182 182 119
Width: 1038
Flags: W
LayerCount: 2
Fore
SplineSet
465 0 m 1,0,-1
 465 799 l 1,1,2
 385 799 385 799 316 824 c 128,-1,3
 247 849 247 849 196 894 c 128,-1,4
 145 939 145 939 116 1000.5 c 128,-1,5
 87 1062 87 1062 87 1135 c 0,6,7
 87 1205 87 1205 110.5 1265 c 128,-1,8
 134 1325 134 1325 195 1369 c 128,-1,9
 256 1413 256 1413 360 1438.5 c 128,-1,10
 464 1464 464 1464 626 1464 c 2,11,-1
 994 1464 l 1,12,-1
 994 1349 l 1,13,-1
 824 1349 l 1,14,-1
 824 0 l 1,15,-1
 698 0 l 1,16,-1
 698 799 l 1,17,-1
 595 799 l 1,18,-1
 595 0 l 1,19,-1
 465 0 l 1,0,-1
EndSplineSet
EndChar

StartChar: periodcentered
Encoding: 183 183 120
Width: 434
Flags: W
LayerCount: 2
Fore
SplineSet
135 758 m 1,0,-1
 299 758 l 1,1,-1
 299 543 l 1,2,-1
 135 543 l 1,3,-1
 135 758 l 1,0,-1
EndSplineSet
EndChar

StartChar: cedilla
Encoding: 184 184 121
Width: 435
Flags: W
LayerCount: 2
Fore
SplineSet
150 -174 m 1,0,-1
 150 -10 l 1,1,-1
 350 -10 l 1,2,-1
 350 -189 l 2,3,4
 350 -228 350 -228 341.5 -264.5 c 128,-1,5
 333 -301 333 -301 316 -328.5 c 128,-1,6
 299 -356 299 -356 273.5 -373 c 128,-1,7
 248 -390 248 -390 214 -390 c 0,8,9
 193 -390 193 -390 172 -381 c 1,10,-1
 172 -316 l 1,11,12
 204 -324 204 -324 209 -324 c 0,13,14
 220 -324 220 -324 227.5 -317.5 c 128,-1,15
 235 -311 235 -311 240 -294 c 128,-1,16
 245 -277 245 -277 247 -248 c 128,-1,17
 249 -219 249 -219 249 -174 c 1,18,-1
 150 -174 l 1,0,-1
EndSplineSet
EndChar

StartChar: onesuperior
Encoding: 185 185 122
Width: 546
Flags: W
LayerCount: 2
Fore
SplineSet
262 1365 m 1,0,-1
 145 1307 l 1,1,-1
 124 1397 l 1,2,-1
 272 1464 l 1,3,-1
 375 1464 l 1,4,-1
 375 769 l 1,5,-1
 262 769 l 1,6,-1
 262 1365 l 1,0,-1
EndSplineSet
EndChar

StartChar: guillemotright
Encoding: 187 187 124
Width: 946
Flags: W
LayerCount: 2
Fore
SplineSet
53 1049 m 1,0,-1
 498 748 l 1,1,-1
 498 551 l 1,2,-1
 53 250 l 1,3,-1
 53 391 l 1,4,-1
 400 650 l 1,5,-1
 53 907 l 1,6,-1
 53 1049 l 1,0,-1
896 748 m 1,7,-1
 896 551 l 1,8,-1
 451 250 l 1,9,-1
 451 391 l 1,10,-1
 798 650 l 1,11,-1
 451 907 l 1,12,-1
 451 1049 l 1,13,-1
 896 748 l 1,7,-1
EndSplineSet
EndChar

StartChar: onequarter
Encoding: 188 188 125
Width: 1403
Flags: W
LayerCount: 2
Fore
SplineSet
1304 1481 m 1,0,-1
 1381 1415 l 1,1,-1
 146 -14 l 1,2,-1
 68 52 l 1,3,-1
 1304 1481 l 1,0,-1
185 1307 m 1,4,-1
 164 1397 l 1,5,-1
 312 1464 l 1,6,-1
 415 1464 l 1,7,-1
 415 769 l 1,8,-1
 302 769 l 1,9,-1
 302 1365 l 1,10,-1
 185 1307 l 1,4,-1
707 220 m 1,11,-1
 1027 693 l 1,12,-1
 1173 693 l 1,13,-1
 1173 234 l 1,14,-1
 1273 234 l 1,15,-1
 1273 152 l 1,16,-1
 1173 152 l 1,17,-1
 1173 0 l 1,18,-1
 1058 0 l 1,19,-1
 1058 152 l 1,20,-1
 707 152 l 1,21,-1
 707 220 l 1,11,-1
1058 585 m 1,22,-1
 821 234 l 1,23,-1
 1058 234 l 1,24,-1
 1058 585 l 1,22,-1
EndSplineSet
EndChar

StartChar: onehalf
Encoding: 189 189 126
Width: 1361
Flags: W
LayerCount: 2
Fore
SplineSet
8 52 m 1,0,-1
 1244 1481 l 1,1,-1
 1321 1415 l 1,2,-1
 86 -14 l 1,3,-1
 8 52 l 1,0,-1
185 1307 m 1,4,-1
 164 1397 l 1,5,-1
 312 1464 l 1,6,-1
 415 1464 l 1,7,-1
 415 769 l 1,8,-1
 302 769 l 1,9,-1
 302 1365 l 1,10,-1
 185 1307 l 1,4,-1
756 0 m 1,11,12
 758 56 758 56 786 103 c 128,-1,13
 814 150 814 150 854.5 191 c 128,-1,14
 895 232 895 232 942 269 c 128,-1,15
 989 306 989 306 1028.5 341.5 c 128,-1,16
 1068 377 1068 377 1094.5 412.5 c 128,-1,17
 1121 448 1121 448 1121 487 c 2,18,-1
 1121 490 l 2,19,20
 1121 520 1121 520 1110.5 544 c 128,-1,21
 1100 568 1100 568 1082 584 c 128,-1,22
 1064 600 1064 600 1040 608.5 c 128,-1,23
 1016 617 1016 617 989 617 c 0,24,25
 960 617 960 617 933.5 608.5 c 128,-1,26
 907 600 907 600 885 584 c 128,-1,27
 863 568 863 568 847 545 c 128,-1,28
 831 522 831 522 825 492 c 1,29,-1
 806 502 l 2,30,31
 787 512 787 512 764.5 523 c 128,-1,32
 742 534 742 534 735 537 c 1,33,34
 750 580 750 580 776 613 c 128,-1,35
 802 646 802 646 835.5 668 c 128,-1,36
 869 690 869 690 908.5 701 c 128,-1,37
 948 712 948 712 990 712 c 0,38,39
 1037 712 1037 712 1080.5 697 c 128,-1,40
 1124 682 1124 682 1157 654.5 c 128,-1,41
 1190 627 1190 627 1209.5 587 c 128,-1,42
 1229 547 1229 547 1229 497 c 0,43,44
 1229 442 1229 442 1210.5 400.5 c 128,-1,45
 1192 359 1192 359 1163 325 c 128,-1,46
 1134 291 1134 291 1097.5 263 c 128,-1,47
 1061 235 1061 235 1024.5 206.5 c 128,-1,48
 988 178 988 178 955.5 147.5 c 128,-1,49
 923 117 923 117 901 80 c 1,50,-1
 1231 80 l 1,51,-1
 1231 0 l 1,52,-1
 756 0 l 1,11,12
EndSplineSet
EndChar

StartChar: threequarters
Encoding: 190 190 127
Width: 1441
Flags: W
LayerCount: 2
Fore
SplineSet
111 0 m 1,0,-1
 1347 1481 l 1,1,-1
 1424 1415 l 1,2,-1
 189 -14 l 1,3,-1
 111 0 l 1,0,-1
745 152 m 1,4,-1
 745 220 l 1,5,-1
 1065 693 l 1,6,-1
 1211 693 l 1,7,-1
 1211 234 l 1,8,-1
 1311 234 l 1,9,-1
 1311 152 l 1,10,-1
 1211 152 l 1,11,-1
 1211 0 l 1,12,-1
 1096 0 l 1,13,-1
 1096 152 l 1,14,-1
 745 152 l 1,4,-1
1096 234 m 1,15,-1
 1096 585 l 1,16,-1
 859 234 l 1,17,-1
 1096 234 l 1,15,-1
581 1308 m 0,18,19
 581 1256 581 1256 549 1210.5 c 128,-1,20
 517 1165 517 1165 459 1144 c 1,21,22
 536 1121 536 1121 575.5 1072.5 c 128,-1,23
 615 1024 615 1024 615 949 c 0,24,25
 615 908 615 908 598 871 c 128,-1,26
 581 834 581 834 549.5 806 c 128,-1,27
 518 778 518 778 472 761.5 c 128,-1,28
 426 745 426 745 369 745 c 1,29,30
 329 746 329 746 290.5 756 c 128,-1,31
 252 766 252 766 219.5 786.5 c 128,-1,32
 187 807 187 807 163.5 837.5 c 128,-1,33
 140 868 140 868 130 910 c 1,34,-1
 208 950 l 1,35,36
 244 834 244 834 376 834 c 0,37,38
 405 834 405 834 429 844.5 c 128,-1,39
 453 855 453 855 470 871.5 c 128,-1,40
 487 888 487 888 496.5 909.5 c 128,-1,41
 506 931 506 931 506 953 c 0,42,43
 506 1095 506 1095 318 1095 c 1,44,-1
 318 1182 l 1,45,46
 403 1183 403 1183 437 1213.5 c 128,-1,47
 471 1244 471 1244 471 1298 c 0,48,49
 471 1343 471 1343 444.5 1369.5 c 128,-1,50
 418 1396 418 1396 364 1396 c 0,51,52
 321 1396 321 1396 282 1374 c 128,-1,53
 243 1352 243 1352 223 1307 c 1,54,-1
 150 1358 l 1,55,56
 160 1388 160 1388 183 1410.5 c 128,-1,57
 206 1433 206 1433 235 1449 c 128,-1,58
 264 1465 264 1465 297.5 1473 c 128,-1,59
 331 1481 331 1481 363 1481 c 0,60,61
 413 1481 413 1481 453.5 1467 c 128,-1,62
 494 1453 494 1453 522.5 1429.5 c 128,-1,63
 551 1406 551 1406 566 1374.5 c 128,-1,64
 581 1343 581 1343 581 1308 c 0,18,19
EndSplineSet
EndChar

StartChar: AE
Encoding: 198 198 135
Width: 2272
Flags: W
LayerCount: 2
Fore
SplineSet
576 508 m 1,0,-1
 1118 508 l 1,1,-1
 1118 1364 l 1,2,-1
 976 1167 l 1,3,-1
 576 508 l 1,0,-1
107 0 m 1,4,-1
 1014 1464 l 1,5,-1
 2149 1464 l 1,6,-1
 2149 1352 l 1,7,-1
 1262 1352 l 1,8,-1
 1262 838 l 1,9,-1
 1987 838 l 1,10,11
 1988 828 1988 828 1987 814 c 128,-1,12
 1986 800 1986 800 1986 780 c 2,13,-1
 1986 723 l 1,14,-1
 1262 723 l 1,15,-1
 1262 113 l 1,16,-1
 2159 113 l 1,17,-1
 2159 0 l 1,18,-1
 1115 0 l 1,19,-1
 1115 399 l 1,20,-1
 515 399 l 1,21,-1
 268 0 l 1,22,-1
 107 0 l 1,4,-1
EndSplineSet
EndChar

StartChar: Eth
Encoding: 208 208 145
Width: 1391
Flags: W
LayerCount: 2
Fore
SplineSet
0 702 m 1,0,-1
 0 788 l 1,1,-1
 140 788 l 1,2,-1
 140 1464 l 1,3,-1
 644 1464 l 2,4,5
 800 1464 800 1464 917.5 1426 c 128,-1,6
 1035 1388 1035 1388 1113.5 1302 c 128,-1,7
 1192 1216 1192 1216 1231 1077.5 c 128,-1,8
 1270 939 1270 939 1270 738 c 0,9,10
 1270 539 1270 539 1233.5 398.5 c 128,-1,11
 1197 258 1197 258 1120 169.5 c 128,-1,12
 1043 81 1043 81 923.5 40.5 c 128,-1,13
 804 0 804 0 637 0 c 2,14,-1
 140 0 l 1,15,-1
 140 702 l 1,16,-1
 0 702 l 1,0,-1
645 1350 m 1,17,-1
 286 1350 l 1,18,-1
 286 788 l 1,19,-1
 550 788 l 1,20,-1
 550 702 l 1,21,-1
 286 702 l 1,22,-1
 286 114 l 1,23,-1
 589 114 l 2,24,25
 742 114 742 114 845 147.5 c 128,-1,26
 948 181 948 181 1010.5 255.5 c 128,-1,27
 1073 330 1073 330 1100 448.5 c 128,-1,28
 1127 567 1127 567 1127 737 c 0,29,30
 1127 889 1127 889 1104.5 1003 c 128,-1,31
 1082 1117 1082 1117 1027 1193.5 c 128,-1,32
 972 1270 972 1270 879 1309 c 128,-1,33
 786 1348 786 1348 645 1350 c 1,17,-1
EndSplineSet
EndChar

StartChar: multiply
Encoding: 215 215 152
Width: 734
Flags: W
LayerCount: 2
Fore
SplineSet
190 203 m 1,0,-1
 120 273 l 1,1,-1
 296 449 l 1,2,-1
 119 626 l 1,3,-1
 191 698 l 1,4,-1
 368 521 l 1,5,-1
 544 697 l 1,6,-1
 614 627 l 1,7,-1
 438 451 l 1,8,-1
 615 274 l 1,9,-1
 543 202 l 1,10,-1
 366 379 l 1,11,-1
 190 203 l 1,0,-1
EndSplineSet
EndChar

StartChar: Oslash
Encoding: 216 216 153
Width: 1463
Flags: W
LayerCount: 2
Fore
SplineSet
320 -204 m 1,0,-1
 235 -160 l 1,1,-1
 1126 1658 l 1,2,-1
 1210 1614 l 1,3,-1
 320 -204 l 1,0,-1
723 1491 m 0,4,5
 868 1491 868 1491 981.5 1449 c 128,-1,6
 1095 1407 1095 1407 1173.5 1316 c 128,-1,7
 1252 1225 1252 1225 1293.5 1083 c 128,-1,8
 1335 941 1335 941 1335 741 c 0,9,10
 1335 540 1335 540 1295.5 395 c 128,-1,11
 1256 250 1256 250 1179 157 c 128,-1,12
 1102 64 1102 64 987.5 19.5 c 128,-1,13
 873 -25 873 -25 722 -25 c 0,14,15
 576 -25 576 -25 463 17.5 c 128,-1,16
 350 60 350 60 272.5 152 c 128,-1,17
 195 244 195 244 154.5 389 c 128,-1,18
 114 534 114 534 114 740 c 0,19,20
 114 943 114 943 156 1086 c 128,-1,21
 198 1229 198 1229 276.5 1319 c 128,-1,22
 355 1409 355 1409 468 1450 c 128,-1,23
 581 1491 581 1491 723 1491 c 0,4,5
722 1374 m 256,24,25
 589 1374 589 1374 501.5 1329.5 c 128,-1,26
 414 1285 414 1285 362 1202.5 c 128,-1,27
 310 1120 310 1120 288.5 1003 c 128,-1,28
 267 886 267 886 267 741 c 0,29,30
 267 573 267 573 291.5 450.5 c 128,-1,31
 316 328 316 328 370 248.5 c 128,-1,32
 424 169 424 169 511 131 c 128,-1,33
 598 93 598 93 723 93 c 256,34,35
 848 93 848 93 935 130.5 c 128,-1,36
 1022 168 1022 168 1076.5 247 c 128,-1,37
 1131 326 1131 326 1155.5 448 c 128,-1,38
 1180 570 1180 570 1180 740 c 0,39,40
 1180 885 1180 885 1158.5 1002.5 c 128,-1,41
 1137 1120 1137 1120 1084.5 1202.5 c 128,-1,42
 1032 1285 1032 1285 943.5 1329.5 c 128,-1,43
 855 1374 855 1374 722 1374 c 256,24,25
EndSplineSet
EndChar

StartChar: Thorn
Encoding: 222 222 159
Width: 1261
Flags: W
LayerCount: 2
Fore
SplineSet
140 0 m 1,0,-1
 140 1464 l 1,1,-1
 296 1464 l 1,2,-1
 296 1145 l 1,3,-1
 561 1145 l 2,4,5
 738 1145 738 1145 860 1128.5 c 128,-1,6
 982 1112 982 1112 1058.5 1070 c 128,-1,7
 1135 1028 1135 1028 1169 957.5 c 128,-1,8
 1203 887 1203 887 1203 779 c 0,9,10
 1203 650 1203 650 1161.5 572 c 128,-1,11
 1120 494 1120 494 1033.5 452 c 128,-1,12
 947 410 947 410 815 396.5 c 128,-1,13
 683 383 683 383 502 383 c 2,14,-1
 290 383 l 1,15,-1
 290 0 l 1,16,-1
 140 0 l 1,0,-1
296 1031 m 1,17,-1
 296 497 l 1,18,-1
 558 497 l 2,19,20
 686 497 686 497 779.5 505 c 128,-1,21
 873 513 873 513 934.5 541.5 c 128,-1,22
 996 570 996 570 1025.5 624.5 c 128,-1,23
 1055 679 1055 679 1055 771 c 0,24,25
 1055 860 1055 860 1027 912 c 128,-1,26
 999 964 999 964 937.5 990.5 c 128,-1,27
 876 1017 876 1017 777.5 1024 c 128,-1,28
 679 1031 679 1031 538 1031 c 2,29,-1
 296 1031 l 1,17,-1
EndSplineSet
EndChar

StartChar: germandbls
Encoding: 223 223 160
Width: 1199
Flags: W
LayerCount: 2
Fore
SplineSet
130 0 m 1,0,-1
 130 1151 l 2,1,2
 130 1234 130 1234 167.5 1298 c 128,-1,3
 205 1362 205 1362 266.5 1405 c 128,-1,4
 328 1448 328 1448 407 1470 c 128,-1,5
 486 1492 486 1492 568 1492 c 0,6,7
 661 1492 661 1492 731 1470.5 c 128,-1,8
 801 1449 801 1449 847.5 1410.5 c 128,-1,9
 894 1372 894 1372 917 1319 c 128,-1,10
 940 1266 940 1266 940 1203 c 256,11,12
 940 1140 940 1140 913.5 1092 c 128,-1,13
 887 1044 887 1044 848 1007.5 c 128,-1,14
 809 971 809 971 762.5 944 c 128,-1,15
 716 917 716 917 677 896.5 c 128,-1,16
 638 876 638 876 611.5 859.5 c 128,-1,17
 585 843 585 843 585 828 c 2,18,-1
 585 823 l 2,19,20
 585 797 585 797 608 775.5 c 128,-1,21
 631 754 631 754 668.5 733.5 c 128,-1,22
 706 713 706 713 754.5 692 c 128,-1,23
 803 671 803 671 853 647 c 128,-1,24
 903 623 903 623 951.5 593.5 c 128,-1,25
 1000 564 1000 564 1037.5 527 c 128,-1,26
 1075 490 1075 490 1098 443 c 128,-1,27
 1121 396 1121 396 1121 336 c 0,28,29
 1121 277 1121 277 1112 229.5 c 128,-1,30
 1103 182 1103 182 1078 145 c 128,-1,31
 1053 108 1053 108 1008.5 81.5 c 128,-1,32
 964 55 964 55 893 37.5 c 128,-1,33
 822 20 822 20 720.5 10.5 c 128,-1,34
 619 1 619 1 481 0 c 1,35,-1
 441 0 l 1,36,-1
 441 117 l 1,37,38
 607 117 607 117 711 131 c 128,-1,39
 815 145 815 145 873.5 172 c 128,-1,40
 932 199 932 199 953.5 239 c 128,-1,41
 975 279 975 279 975 332 c 0,42,43
 975 392 975 392 935.5 435.5 c 128,-1,44
 896 479 896 479 836.5 514 c 128,-1,45
 777 549 777 549 708 579 c 128,-1,46
 639 609 639 609 579.5 642.5 c 128,-1,47
 520 676 520 676 480.5 717.5 c 128,-1,48
 441 759 441 759 441 816 c 0,49,50
 441 862 441 862 468 894.5 c 128,-1,51
 495 927 495 927 535 953 c 128,-1,52
 575 979 575 979 622.5 1002 c 128,-1,53
 670 1025 670 1025 710 1053.5 c 128,-1,54
 750 1082 750 1082 777 1119 c 128,-1,55
 804 1156 804 1156 804 1209 c 0,56,57
 804 1294 804 1294 743 1341 c 128,-1,58
 682 1388 682 1388 565 1388 c 0,59,60
 508 1388 508 1388 455.5 1371 c 128,-1,61
 403 1354 403 1354 363 1322.5 c 128,-1,62
 323 1291 323 1291 299.5 1244.5 c 128,-1,63
 276 1198 276 1198 276 1140 c 2,64,-1
 276 0 l 1,65,-1
 130 0 l 1,0,-1
EndSplineSet
EndChar

StartChar: ae
Encoding: 230 230 167
Width: 1667
Flags: W
LayerCount: 2
Fore
SplineSet
133 927 m 1,0,1
 302 1044 302 1044 518 1044 c 0,2,3
 582 1044 582 1044 637 1030.5 c 128,-1,4
 692 1017 692 1017 734.5 990.5 c 128,-1,5
 777 964 777 964 804.5 924.5 c 128,-1,6
 832 885 832 885 842 832 c 1,7,8
 864 881 864 881 900.5 920.5 c 128,-1,9
 937 960 937 960 982.5 987.5 c 128,-1,10
 1028 1015 1028 1015 1081.5 1029.5 c 128,-1,11
 1135 1044 1135 1044 1191 1044 c 0,12,13
 1298 1044 1298 1044 1373 1008.5 c 128,-1,14
 1448 973 1448 973 1495.5 910 c 128,-1,15
 1543 847 1543 847 1565 760.5 c 128,-1,16
 1587 674 1587 674 1587 572 c 0,17,18
 1587 533 1587 533 1584 508 c 1,19,-1
 896 494 l 1,20,21
 896 408 896 408 910.5 333 c 128,-1,22
 925 258 925 258 959.5 202 c 128,-1,23
 994 146 994 146 1050.5 113.5 c 128,-1,24
 1107 81 1107 81 1191 81 c 0,25,26
 1255 81 1255 81 1302 102.5 c 128,-1,27
 1349 124 1349 124 1381 154.5 c 128,-1,28
 1413 185 1413 185 1431 217.5 c 128,-1,29
 1449 250 1449 250 1455 273 c 1,30,-1
 1570 234 l 1,31,32
 1549 178 1549 178 1512 130.5 c 128,-1,33
 1475 83 1475 83 1426 48.5 c 128,-1,34
 1377 14 1377 14 1318 -5 c 128,-1,35
 1259 -24 1259 -24 1195 -24 c 0,36,37
 1134 -24 1134 -24 1078.5 -10 c 128,-1,38
 1023 4 1023 4 977 32 c 128,-1,39
 931 60 931 60 897 100.5 c 128,-1,40
 863 141 863 141 845 195 c 1,41,42
 811 133 811 133 767.5 91 c 128,-1,43
 724 49 724 49 672 23.5 c 128,-1,44
 620 -2 620 -2 559 -13.5 c 128,-1,45
 498 -25 498 -25 429 -25 c 0,46,47
 365 -25 365 -25 303 -9.5 c 128,-1,48
 241 6 241 6 192.5 39 c 128,-1,49
 144 72 144 72 114 124.5 c 128,-1,50
 84 177 84 177 84 251 c 0,51,52
 84 350 84 350 125.5 412.5 c 128,-1,53
 167 475 167 475 238.5 511 c 128,-1,54
 310 547 310 547 406.5 561.5 c 128,-1,55
 503 576 503 576 613 579 c 1,56,57
 612 579 612 579 634 580 c 128,-1,58
 656 581 656 581 683 582.5 c 128,-1,59
 710 584 710 584 731.5 585 c 128,-1,60
 753 586 753 586 752 586 c 1,61,62
 752 679 752 679 744 745 c 128,-1,63
 736 811 736 811 711.5 853.5 c 128,-1,64
 687 896 687 896 642 916.5 c 128,-1,65
 597 937 597 937 523 940 c 1,66,67
 469 940 469 940 426.5 933 c 128,-1,68
 384 926 384 926 347 913 c 128,-1,69
 310 900 310 900 275.5 881 c 128,-1,70
 241 862 241 862 203 838 c 1,71,-1
 133 927 l 1,0,1
771 318 m 0,72,73
 771 325 771 325 769.5 352 c 128,-1,74
 768 379 768 379 766 408.5 c 128,-1,75
 764 438 764 438 762.5 462 c 128,-1,76
 761 486 761 486 761 487 c 2,77,-1
 620 480 l 2,78,79
 534 475 534 475 463 465 c 128,-1,80
 392 455 392 455 340 432 c 128,-1,81
 288 409 288 409 258.5 367 c 128,-1,82
 229 325 229 325 226 256 c 1,83,84
 226 212 226 212 243.5 179.5 c 128,-1,85
 261 147 261 147 290 124.5 c 128,-1,86
 319 102 319 102 358 91 c 128,-1,87
 397 80 397 80 440 80 c 0,88,89
 503 80 503 80 562.5 94.5 c 128,-1,90
 622 109 622 109 668.5 139 c 128,-1,91
 715 169 715 169 743 213.5 c 128,-1,92
 771 258 771 258 771 318 c 0,72,73
1450 606 m 1,93,94
 1449 770 1449 770 1387 855.5 c 128,-1,95
 1325 941 1325 941 1187 941 c 0,96,97
 1117 941 1117 941 1064.5 911.5 c 128,-1,98
 1012 882 1012 882 976 833.5 c 128,-1,99
 940 785 940 785 920.5 722 c 128,-1,100
 901 659 901 659 897 592 c 1,101,-1
 1450 606 l 1,93,94
EndSplineSet
EndChar

StartChar: eth
Encoding: 240 240 177
Width: 1053
Flags: W
LayerCount: 2
Fore
SplineSet
368 1101 m 1,0,-1
 559 1225 l 1,1,2
 407 1339 407 1339 169 1339 c 1,3,-1
 169 1432 l 1,4,5
 460 1432 460 1432 648 1283 c 1,6,-1
 854 1418 l 1,7,-1
 907 1343 l 1,8,-1
 715 1218 l 1,9,10
 764 1166 764 1166 808.5 1088.5 c 128,-1,11
 853 1011 853 1011 886.5 919.5 c 128,-1,12
 920 828 920 828 939.5 727.5 c 128,-1,13
 959 627 959 627 959 529 c 0,14,15
 959 409 959 409 934 307.5 c 128,-1,16
 909 206 909 206 856 132 c 128,-1,17
 803 58 803 58 719 16.5 c 128,-1,18
 635 -25 635 -25 518 -25 c 0,19,20
 411 -25 411 -25 331.5 15 c 128,-1,21
 252 55 252 55 199 121.5 c 128,-1,22
 146 188 146 188 120 274.5 c 128,-1,23
 94 361 94 361 94 454 c 0,24,25
 94 562 94 562 128 646.5 c 128,-1,26
 162 731 162 731 219 789 c 128,-1,27
 276 847 276 847 350 877.5 c 128,-1,28
 424 908 424 908 503 908 c 0,29,30
 679 908 679 908 810 774 c 1,31,32
 803 824 803 824 783 880 c 128,-1,33
 763 936 763 936 736 988 c 128,-1,34
 709 1040 709 1040 678 1084 c 128,-1,35
 647 1128 647 1128 618 1155 c 1,36,-1
 421 1026 l 1,37,-1
 368 1101 l 1,0,-1
523 798 m 0,38,39
 462 798 462 798 409.5 773.5 c 128,-1,40
 357 749 357 749 318 702.5 c 128,-1,41
 279 656 279 656 257 589.5 c 128,-1,42
 235 523 235 523 235 439 c 0,43,44
 235 358 235 358 255.5 292 c 128,-1,45
 276 226 276 226 313.5 180 c 128,-1,46
 351 134 351 134 403 109 c 128,-1,47
 455 84 455 84 518 84 c 0,48,49
 594 84 594 84 651.5 114.5 c 128,-1,50
 709 145 709 145 747 200.5 c 128,-1,51
 785 256 785 256 804 335 c 128,-1,52
 823 414 823 414 823 511 c 0,53,54
 823 622 823 622 816 650 c 1,55,56
 681 798 681 798 523 798 c 0,38,39
EndSplineSet
EndChar

StartChar: divide
Encoding: 247 247 184
Width: 1024
Flags: W
LayerCount: 2
Fore
SplineSet
565 385 m 1,0,-1
 565 171 l 1,1,-1
 392 171 l 1,2,-1
 392 385 l 1,3,-1
 565 385 l 1,0,-1
392 1024 m 1,4,-1
 565 1024 l 1,5,-1
 565 808 l 1,6,-1
 392 808 l 1,7,-1
 392 1024 l 1,4,-1
100 551 m 1,8,-1
 100 649 l 1,9,-1
 850 649 l 1,10,-1
 850 551 l 1,11,-1
 100 551 l 1,8,-1
EndSplineSet
EndChar

StartChar: oslash
Encoding: 248 248 185
Width: 1068
Flags: W
LayerCount: 2
Fore
SplineSet
532 940 m 0,0,1
 447 940 447 940 390 904 c 128,-1,2
 333 868 333 868 299 808 c 128,-1,3
 265 748 265 748 251 671 c 128,-1,4
 237 594 237 594 237 513 c 0,5,6
 237 273 237 273 334 164 c 1,7,-1
 683 898 l 1,8,9
 621 940 621 940 532 940 c 0,0,1
533 81 m 0,10,11
 591 81 591 81 635.5 98.5 c 128,-1,12
 680 116 680 116 713 146 c 128,-1,13
 746 176 746 176 768 217.5 c 128,-1,14
 790 259 790 259 803.5 306.5 c 128,-1,15
 817 354 817 354 822.5 406.5 c 128,-1,16
 828 459 828 459 828 511 c 0,17,18
 828 726 828 726 745 838 c 1,19,-1
 400 112 l 1,20,21
 456 81 456 81 533 81 c 0,10,11
970 513 m 0,22,23
 970 384 970 384 939.5 284 c 128,-1,24
 909 184 909 184 852 115.5 c 128,-1,25
 795 47 795 47 714 11.5 c 128,-1,26
 633 -24 633 -24 532 -24 c 0,27,28
 430 -24 430 -24 352 10 c 1,29,-1
 254 -197 l 1,30,-1
 181 -159 l 1,31,-1
 280 50 l 1,32,33
 94 185 94 185 94 510 c 0,34,35
 94 641 94 641 125.5 741 c 128,-1,36
 157 841 157 841 214.5 908.5 c 128,-1,37
 272 976 272 976 353 1010 c 128,-1,38
 434 1044 434 1044 533 1044 c 0,39,40
 646 1044 646 1044 732 1001 c 1,41,-1
 834 1216 l 1,42,-1
 906 1178 l 1,43,-1
 801 956 l 1,44,45
 970 820 970 820 970 513 c 0,22,23
EndSplineSet
EndChar

StartChar: thorn
Encoding: 254 254 191
Width: 1095
Flags: W
LayerCount: 2
Fore
SplineSet
281 1464 m 1,0,-1
 281 874 l 1,1,2
 380 1044 380 1044 582 1044 c 0,3,4
 685 1044 685 1044 759.5 1003 c 128,-1,5
 834 962 834 962 882 891.5 c 128,-1,6
 930 821 930 821 953 725 c 128,-1,7
 976 629 976 629 976 520 c 0,8,9
 976 406 976 406 953 307.5 c 128,-1,10
 930 209 930 209 882 135.5 c 128,-1,11
 834 62 834 62 761 19.5 c 128,-1,12
 688 -23 688 -23 589 -24 c 1,13,14
 484 -24 484 -24 405.5 21.5 c 128,-1,15
 327 67 327 67 282 154 c 1,16,-1
 282 -378 l 1,17,-1
 140 -394 l 1,18,-1
 140 1464 l 1,19,-1
 281 1464 l 1,0,-1
831 521 m 0,20,21
 831 623 831 623 810 701.5 c 128,-1,22
 789 780 789 780 753.5 833.5 c 128,-1,23
 718 887 718 887 670 915 c 128,-1,24
 622 943 622 943 568 943 c 0,25,26
 512 943 512 943 460 913.5 c 128,-1,27
 408 884 408 884 368.5 828.5 c 128,-1,28
 329 773 329 773 305.5 694.5 c 128,-1,29
 282 616 282 616 282 519 c 0,30,31
 282 81 282 81 568 81 c 0,32,33
 630 81 630 81 679 111 c 128,-1,34
 728 141 728 141 761.5 198 c 128,-1,35
 795 255 795 255 813 336.5 c 128,-1,36
 831 418 831 418 831 521 c 0,20,21
EndSplineSet
EndChar

StartChar: dcroat
Encoding: 273 273 210
Width: 1024
Flags: W
LayerCount: 2
Fore
SplineSet
504 1196 m 1,0,-1
 504 1282 l 1,1,-1
 1024 1282 l 1,2,-1
 1024 1196 l 1,3,-1
 504 1196 l 1,0,-1
96 500 m 0,4,5
 96 626 96 626 121.5 726.5 c 128,-1,6
 147 827 147 827 196 897.5 c 128,-1,7
 245 968 245 968 317.5 1006 c 128,-1,8
 390 1044 390 1044 484 1044 c 0,9,10
 596 1044 596 1044 678 999 c 128,-1,11
 760 954 760 954 794 863 c 1,12,-1
 794 1474 l 1,13,-1
 937 1474 l 1,14,-1
 937 0 l 1,15,-1
 823 0 l 1,16,-1
 804 172 l 1,17,18
 784 127 784 127 752 91 c 128,-1,19
 720 55 720 55 679 29.5 c 128,-1,20
 638 4 638 4 589 -10 c 128,-1,21
 540 -24 540 -24 488 -24 c 0,22,23
 396 -24 396 -24 323 13.5 c 128,-1,24
 250 51 250 51 199.5 120 c 128,-1,25
 149 189 149 189 122.5 285.5 c 128,-1,26
 96 382 96 382 96 500 c 0,4,5
506 81 m 0,27,28
 540 81 540 81 575 86.5 c 128,-1,29
 610 92 610 92 642.5 107.5 c 128,-1,30
 675 123 675 123 704 152 c 128,-1,31
 733 181 733 181 754 227.5 c 128,-1,32
 775 274 775 274 787.5 340.5 c 128,-1,33
 800 407 800 407 800 499 c 0,34,35
 800 595 800 595 785.5 676 c 128,-1,36
 771 757 771 757 737 815.5 c 128,-1,37
 703 874 703 874 646 907 c 128,-1,38
 589 940 589 940 504 940 c 0,39,40
 441 940 441 940 392 909 c 128,-1,41
 343 878 343 878 309.5 820.5 c 128,-1,42
 276 763 276 763 259 681.5 c 128,-1,43
 242 600 242 600 242 499 c 0,44,45
 242 408 242 408 260 331.5 c 128,-1,46
 278 255 278 255 311.5 199.5 c 128,-1,47
 345 144 345 144 394 112.5 c 128,-1,48
 443 81 443 81 506 81 c 0,27,28
EndSplineSet
EndChar

StartChar: hcircumflex
Encoding: 293 293 225
Width: 1106
Flags: W
LayerCount: 2
Fore
SplineSet
587 1823 m 1,0,-1
 742 1823 l 1,1,-1
 907 1503 l 1,2,-1
 815 1503 l 1,3,-1
 654 1721 l 1,4,-1
 494 1503 l 1,5,-1
 402 1503 l 1,6,-1
 587 1823 l 1,0,-1
607 940 m 0,7,8
 512 940 512 940 448.5 902.5 c 128,-1,9
 385 865 385 865 347 801.5 c 128,-1,10
 309 738 309 738 293 655.5 c 128,-1,11
 277 573 277 573 277 483 c 2,12,-1
 277 0 l 1,13,-1
 135 0 l 1,14,-1
 135 1473 l 1,15,-1
 277 1473 l 1,16,-1
 277 862 l 1,17,18
 394 1044 394 1044 628 1044 c 0,19,20
 709 1044 709 1044 766.5 1024 c 128,-1,21
 824 1004 824 1004 864 970 c 128,-1,22
 904 936 904 936 927.5 890.5 c 128,-1,23
 951 845 951 845 964 793.5 c 128,-1,24
 977 742 977 742 981 688 c 128,-1,25
 985 634 985 634 985 583 c 2,26,-1
 985 0 l 1,27,-1
 843 0 l 1,28,-1
 843 594 l 2,29,30
 843 679 843 679 830.5 744 c 128,-1,31
 818 809 818 809 790 852.5 c 128,-1,32
 762 896 762 896 717 918 c 128,-1,33
 672 940 672 940 607 940 c 0,7,8
EndSplineSet
EndChar

StartChar: Hbar
Encoding: 294 294 226
Width: 1457
Flags: W
LayerCount: 2
Fore
SplineSet
48 1144 m 1,0,-1
 48 1230 l 1,1,-1
 1400 1230 l 1,2,-1
 1400 1144 l 1,3,-1
 48 1144 l 1,0,-1
1164 836 m 1,4,-1
 1164 1464 l 1,5,-1
 1309 1464 l 1,6,-1
 1309 0 l 1,7,-1
 1164 0 l 1,8,-1
 1164 720 l 1,9,-1
 294 720 l 1,10,-1
 294 0 l 1,11,-1
 148 0 l 1,12,-1
 148 1464 l 1,13,-1
 294 1464 l 1,14,-1
 294 836 l 1,15,-1
 1164 836 l 1,4,-1
EndSplineSet
EndChar

StartChar: hbar
Encoding: 295 295 227
Width: 1117
Flags: W
LayerCount: 2
Fore
SplineSet
-1 1205 m 1,0,-1
 -1 1299 l 1,1,-1
 140 1299 l 1,2,-1
 140 1473 l 1,3,-1
 283 1473 l 1,4,-1
 283 1299 l 1,5,-1
 550 1299 l 1,6,-1
 550 1205 l 1,7,-1
 283 1205 l 1,8,-1
 283 1053 l 2,9,10
 283 989 283 989 283 941.5 c 128,-1,11
 283 894 283 894 282 862 c 1,12,13
 399 1044 399 1044 634 1044 c 0,14,15
 715 1044 715 1044 772.5 1024 c 128,-1,16
 830 1004 830 1004 870 970 c 128,-1,17
 910 936 910 936 933.5 890.5 c 128,-1,18
 957 845 957 845 970 793.5 c 128,-1,19
 983 742 983 742 987 688 c 128,-1,20
 991 634 991 634 991 583 c 2,21,-1
 991 0 l 1,22,-1
 849 0 l 1,23,-1
 849 594 l 2,24,25
 849 679 849 679 836.5 744 c 128,-1,26
 824 809 824 809 796 852.5 c 128,-1,27
 768 896 768 896 723 918 c 128,-1,28
 678 940 678 940 613 940 c 0,29,30
 518 940 518 940 454.5 902.5 c 128,-1,31
 391 865 391 865 353 801.5 c 128,-1,32
 315 738 315 738 299 655.5 c 128,-1,33
 283 573 283 573 283 483 c 2,34,-1
 283 0 l 1,35,-1
 140 0 l 1,36,-1
 140 1205 l 1,37,-1
 -1 1205 l 1,0,-1
EndSplineSet
EndChar

StartChar: dotlessi
Encoding: 305 305 237
Width: 411
Flags: W
LayerCount: 2
Fore
SplineSet
140 0 m 1,0,-1
 140 1023 l 1,1,-1
 282 1023 l 1,2,-1
 282 0 l 1,3,-1
 140 0 l 1,0,-1
EndSplineSet
EndChar

StartChar: kgreenlandic
Encoding: 312 312 244
Width: 1010
Flags: W
LayerCount: 2
Fore
SplineSet
797 1023 m 1,0,-1
 959 1023 l 1,1,-1
 599 621 l 1,2,-1
 1018 0 l 1,3,-1
 858 0 l 1,4,-1
 504 544 l 1,5,-1
 272 299 l 1,6,-1
 272 0 l 1,7,-1
 130 0 l 1,8,-1
 130 1024 l 1,9,-1
 271 1024 l 1,10,-1
 271 446 l 1,11,-1
 797 1023 l 1,0,-1
EndSplineSet
EndChar

StartChar: Lslash
Encoding: 321 321 253
Width: 1055
Flags: W
LayerCount: 2
Fore
SplineSet
-1 658 m 1,0,-1
 -1 784 l 1,1,-1
 140 847 l 1,2,-1
 140 1464 l 1,3,-1
 286 1464 l 1,4,-1
 286 913 l 1,5,-1
 532 1024 l 1,6,-1
 532 898 l 1,7,-1
 286 787 l 1,8,-1
 286 113 l 1,9,-1
 1033 113 l 1,10,-1
 1033 0 l 1,11,-1
 140 0 l 1,12,-1
 140 721 l 1,13,-1
 -1 658 l 1,0,-1
EndSplineSet
EndChar

StartChar: lslash
Encoding: 322 322 254
Width: 421
Flags: W
LayerCount: 2
Fore
SplineSet
-26 662 m 1,0,-1
 -26 797 l 1,1,-1
 140 879 l 1,2,-1
 140 1474 l 1,3,-1
 283 1474 l 1,4,-1
 283 949 l 1,5,-1
 448 1024 l 1,6,-1
 448 889 l 1,7,-1
 283 814 l 1,8,-1
 283 -1 l 1,9,-1
 140 -1 l 1,10,-1
 140 744 l 1,11,-1
 -26 662 l 1,0,-1
EndSplineSet
EndChar

StartChar: OE
Encoding: 338 338 267
Width: 2171
Flags: W
LayerCount: 2
Fore
SplineSet
1157 740 m 0,0,1
 1157 882 1157 882 1139.5 998.5 c 128,-1,2
 1122 1115 1122 1115 1074 1198.5 c 128,-1,3
 1026 1282 1026 1282 940.5 1328 c 128,-1,4
 855 1374 855 1374 720 1374 c 0,5,6
 588 1374 588 1374 500 1329.5 c 128,-1,7
 412 1285 412 1285 360 1203 c 128,-1,8
 308 1121 308 1121 286.5 1003.5 c 128,-1,9
 265 886 265 886 265 741 c 0,10,11
 265 573 265 573 289.5 450.5 c 128,-1,12
 314 328 314 328 368 248.5 c 128,-1,13
 422 169 422 169 509 131 c 128,-1,14
 596 93 596 93 721 93 c 0,15,16
 848 93 848 93 932 132 c 128,-1,17
 1016 171 1016 171 1066 250.5 c 128,-1,18
 1116 330 1116 330 1136.5 452 c 128,-1,19
 1157 574 1157 574 1157 740 c 0,0,1
2121 0 m 1,20,-1
 1164 0 l 1,21,-1
 1164 180 l 1,22,23
 1097 74 1097 74 988.5 24.5 c 128,-1,24
 880 -25 880 -25 720 -25 c 0,25,26
 574 -25 574 -25 461 17.5 c 128,-1,27
 348 60 348 60 270.5 152 c 128,-1,28
 193 244 193 244 152.5 389 c 128,-1,29
 112 534 112 534 112 740 c 0,30,31
 112 943 112 943 154 1086 c 128,-1,32
 196 1229 196 1229 274.5 1319 c 128,-1,33
 353 1409 353 1409 466 1450 c 128,-1,34
 579 1491 579 1491 721 1491 c 0,35,36
 1034 1491 1034 1491 1163 1288 c 1,37,38
 1163 1304 1163 1304 1163.5 1323 c 128,-1,39
 1164 1342 1164 1342 1164 1364 c 256,40,41
 1164 1386 1164 1386 1163.5 1410.5 c 128,-1,42
 1163 1435 1163 1435 1163 1464 c 1,43,-1
 2110 1464 l 1,44,-1
 2110 1352 l 1,45,-1
 1310 1352 l 1,46,-1
 1310 838 l 1,47,-1
 1996 838 l 1,48,-1
 1996 723 l 1,49,-1
 1310 723 l 1,50,-1
 1310 113 l 1,51,-1
 2121 113 l 1,52,-1
 2121 0 l 1,20,-1
EndSplineSet
EndChar

StartChar: oe
Encoding: 339 339 268
Width: 1878
Flags: W
LayerCount: 2
Fore
SplineSet
884 510 m 0,0,1
 884 591 884 591 870 668.5 c 128,-1,2
 856 746 856 746 822.5 806.5 c 128,-1,3
 789 867 789 867 732.5 903.5 c 128,-1,4
 676 940 676 940 591 940 c 0,5,6
 504 940 504 940 447.5 902.5 c 128,-1,7
 391 865 391 865 358 804.5 c 128,-1,8
 325 744 325 744 312 667 c 128,-1,9
 299 590 299 590 299 512 c 0,10,11
 299 431 299 431 312.5 353 c 128,-1,12
 326 275 326 275 359.5 214.5 c 128,-1,13
 393 154 393 154 449.5 117 c 128,-1,14
 506 80 506 80 592 80 c 0,15,16
 677 80 677 80 733 116 c 128,-1,17
 789 152 789 152 822.5 212 c 128,-1,18
 856 272 856 272 870 349.5 c 128,-1,19
 884 427 884 427 884 510 c 0,0,1
1315 942 m 0,20,21
 1249 942 1249 942 1197.5 916.5 c 128,-1,22
 1146 891 1146 891 1109.5 845 c 128,-1,23
 1073 799 1073 799 1052.5 734.5 c 128,-1,24
 1032 670 1032 670 1028 592 c 1,25,-1
 1589 592 l 1,26,27
 1587 757 1587 757 1520 849.5 c 128,-1,28
 1453 942 1453 942 1315 942 c 0,20,21
1319 1044 m 0,29,30
 1425 1044 1425 1044 1501.5 1006 c 128,-1,31
 1578 968 1578 968 1628 902 c 128,-1,32
 1678 836 1678 836 1702 747.5 c 128,-1,33
 1726 659 1726 659 1726 558 c 1,34,-1
 1724 532 l 2,35,36
 1723 521 1723 521 1722.5 512 c 128,-1,37
 1722 503 1722 503 1722 500 c 1,38,-1
 1026 500 l 1,39,40
 1026 422 1026 422 1040.5 346.5 c 128,-1,41
 1055 271 1055 271 1089.5 211.5 c 128,-1,42
 1124 152 1124 152 1182.5 116 c 128,-1,43
 1241 80 1241 80 1330 80 c 0,44,45
 1382 80 1382 80 1425.5 98 c 128,-1,46
 1469 116 1469 116 1503.5 148 c 128,-1,47
 1538 180 1538 180 1564 223.5 c 128,-1,48
 1590 267 1590 267 1608 317 c 1,49,-1
 1704 276 l 1,50,51
 1685 205 1685 205 1649.5 150 c 128,-1,52
 1614 95 1614 95 1565 56.5 c 128,-1,53
 1516 18 1516 18 1457 -2.5 c 128,-1,54
 1398 -23 1398 -23 1332 -24 c 1,55,56
 1066 -24 1066 -24 957 199 c 1,57,58
 903 88 903 88 809.5 32 c 128,-1,59
 716 -24 716 -24 591 -24 c 0,60,61
 490 -24 490 -24 409.5 11.5 c 128,-1,62
 329 47 329 47 273 115.5 c 128,-1,63
 217 184 217 184 186.5 283.5 c 128,-1,64
 156 383 156 383 156 511 c 0,65,66
 156 643 156 643 187.5 743 c 128,-1,67
 219 843 219 843 277 909.5 c 128,-1,68
 335 976 335 976 415 1010 c 128,-1,69
 495 1044 495 1044 593 1044 c 0,70,71
 714 1044 714 1044 809.5 987.5 c 128,-1,72
 905 931 905 931 959 819 c 1,73,74
 1013 928 1013 928 1104 986 c 128,-1,75
 1195 1044 1195 1044 1319 1044 c 0,29,30
EndSplineSet
EndChar

StartChar: uni0237
Encoding: 567 567 332
Width: 530
Flags: W
LayerCount: 2
Fore
SplineSet
262 -87 m 2,0,-1
 262 1023 l 1,1,-1
 404 1023 l 1,2,-1
 404 -12 l 2,3,4
 404 -93 404 -93 396 -152 c 128,-1,5
 388 -211 388 -211 364 -249.5 c 128,-1,6
 340 -288 340 -288 297 -306.5 c 128,-1,7
 254 -325 254 -325 185 -325 c 0,8,9
 109 -325 109 -325 33 -281 c 1,10,-1
 57 -191 l 1,11,12
 120 -214 120 -214 166 -214 c 0,13,14
 262 -214 262 -214 262 -87 c 2,0,-1
EndSplineSet
EndChar

StartChar: circumflex
Encoding: 710 710 333
Width: 838
Flags: W
LayerCount: 2
Fore
SplineSet
327 1492 m 1,0,-1
 522 1492 l 1,1,-1
 697 1172 l 1,2,-1
 605 1172 l 1,3,-1
 424 1390 l 1,4,-1
 244 1172 l 1,5,-1
 152 1172 l 1,6,-1
 327 1492 l 1,0,-1
EndSplineSet
EndChar

StartChar: caron
Encoding: 711 711 334
Width: 835
Flags: W
LayerCount: 2
Fore
SplineSet
523 1172 m 1,0,-1
 328 1172 l 1,1,-1
 153 1492 l 1,2,-1
 245 1492 l 1,3,-1
 425 1274 l 1,4,-1
 606 1492 l 1,5,-1
 698 1492 l 1,6,-1
 523 1172 l 1,0,-1
EndSplineSet
EndChar

StartChar: breve
Encoding: 728 728 335
Width: 805
Flags: W
LayerCount: 2
Fore
SplineSet
126 1438 m 1,0,-1
 242 1438 l 1,1,2
 242 1360 242 1360 284.5 1323.5 c 128,-1,3
 327 1287 327 1287 402 1287 c 256,4,5
 477 1287 477 1287 519.5 1323.5 c 128,-1,6
 562 1360 562 1360 562 1438 c 1,7,-1
 678 1438 l 1,8,9
 676 1377 676 1377 653.5 1329.5 c 128,-1,10
 631 1282 631 1282 593 1249.5 c 128,-1,11
 555 1217 555 1217 505.5 1200 c 128,-1,12
 456 1183 456 1183 402 1183 c 0,13,14
 347 1183 347 1183 297.5 1200 c 128,-1,15
 248 1217 248 1217 210.5 1249.5 c 128,-1,16
 173 1282 173 1282 150 1329.5 c 128,-1,17
 127 1377 127 1377 126 1438 c 1,0,-1
EndSplineSet
EndChar

StartChar: dotaccent
Encoding: 729 729 336
Width: 539
Flags: W
LayerCount: 2
Fore
SplineSet
153 1426 m 0,0,1
 153 1451 153 1451 161.5 1473.5 c 128,-1,2
 170 1496 170 1496 185.5 1513 c 128,-1,3
 201 1530 201 1530 223.5 1540 c 128,-1,4
 246 1550 246 1550 275 1550 c 0,5,6
 303 1550 303 1550 326 1540 c 128,-1,7
 349 1530 349 1530 364.5 1513 c 128,-1,8
 380 1496 380 1496 388.5 1473.5 c 128,-1,9
 397 1451 397 1451 397 1426 c 0,10,11
 397 1400 397 1400 388.5 1377.5 c 128,-1,12
 380 1355 380 1355 364.5 1338 c 128,-1,13
 349 1321 349 1321 326 1311 c 128,-1,14
 303 1301 303 1301 275 1301 c 0,15,16
 246 1301 246 1301 223.5 1311 c 128,-1,17
 201 1321 201 1321 185.5 1338 c 128,-1,18
 170 1355 170 1355 161.5 1377.5 c 128,-1,19
 153 1400 153 1400 153 1426 c 0,0,1
EndSplineSet
EndChar

StartChar: ring
Encoding: 730 730 337
Width: 728
Flags: W
LayerCount: 2
Fore
SplineSet
364 1592 m 0,0,1
 418 1592 418 1592 460.5 1574.5 c 128,-1,2
 503 1557 503 1557 532 1527 c 128,-1,3
 561 1497 561 1497 576 1458 c 128,-1,4
 591 1419 591 1419 591 1376 c 0,5,6
 591 1332 591 1332 575.5 1293 c 128,-1,7
 560 1254 560 1254 531 1224.5 c 128,-1,8
 502 1195 502 1195 460 1177.5 c 128,-1,9
 418 1160 418 1160 364 1160 c 0,10,11
 311 1160 311 1160 270 1177 c 128,-1,12
 229 1194 229 1194 201 1223.5 c 128,-1,13
 173 1253 173 1253 158 1291.5 c 128,-1,14
 143 1330 143 1330 143 1374 c 256,15,16
 143 1418 143 1418 158 1457.5 c 128,-1,17
 173 1497 173 1497 201.5 1527 c 128,-1,18
 230 1557 230 1557 271 1574.5 c 128,-1,19
 312 1592 312 1592 364 1592 c 0,0,1
273 1287 m 0,20,21
 306 1249 306 1249 364 1249 c 0,22,23
 393 1249 393 1249 416 1259.5 c 128,-1,24
 439 1270 439 1270 454.5 1287.5 c 128,-1,25
 470 1305 470 1305 478.5 1328 c 128,-1,26
 487 1351 487 1351 487 1376 c 0,27,28
 487 1400 487 1400 478.5 1423 c 128,-1,29
 470 1446 470 1446 454.5 1463.5 c 128,-1,30
 439 1481 439 1481 416 1491.5 c 128,-1,31
 393 1502 393 1502 364 1502 c 256,32,33
 335 1502 335 1502 312 1491.5 c 128,-1,34
 289 1481 289 1481 273.5 1464 c 128,-1,35
 258 1447 258 1447 249.5 1424 c 128,-1,36
 241 1401 241 1401 241 1376 c 0,37,38
 241 1325 241 1325 273 1287 c 0,20,21
EndSplineSet
EndChar

StartChar: ogonek
Encoding: 731 731 338
Width: 462
Flags: W
LayerCount: 2
Fore
SplineSet
315 0 m 1,0,-1
 291 -51 l 1,1,2
 283 -72 283 -72 274 -93.5 c 128,-1,3
 265 -115 265 -115 257 -136.5 c 128,-1,4
 249 -158 249 -158 243.5 -179 c 128,-1,5
 238 -200 238 -200 238 -219 c 0,6,7
 238 -283 238 -283 311 -283 c 0,8,9
 318 -283 318 -283 326.5 -281.5 c 128,-1,10
 335 -280 335 -280 346 -278 c 1,11,-1
 346 -361 l 1,12,13
 312 -369 312 -369 281 -369 c 0,14,15
 243 -369 243 -369 212.5 -359 c 128,-1,16
 182 -349 182 -349 161 -332 c 128,-1,17
 140 -315 140 -315 128.5 -291.5 c 128,-1,18
 117 -268 117 -268 117 -241 c 0,19,20
 117 -211 117 -211 129.5 -175 c 128,-1,21
 142 -139 142 -139 161 -104.5 c 128,-1,22
 180 -70 180 -70 202 -42 c 128,-1,23
 224 -14 224 -14 244 0 c 1,24,-1
 315 0 l 1,0,-1
EndSplineSet
EndChar

StartChar: tilde
Encoding: 732 732 339
Width: 798
Flags: W
LayerCount: 2
Fore
SplineSet
127 1200 m 1,0,1
 126 1208 126 1208 125.5 1218 c 128,-1,2
 125 1228 125 1228 125 1241 c 0,3,4
 125 1391 125 1391 253 1391 c 0,5,6
 298 1391 298 1391 406 1345 c 256,7,8
 514 1299 514 1299 537 1299 c 0,9,10
 576 1299 576 1299 576 1395 c 1,11,-1
 673 1395 l 1,12,13
 674 1383 674 1383 674.5 1374 c 128,-1,14
 675 1365 675 1365 675 1360 c 0,15,16
 675 1318 675 1318 663.5 1288.5 c 128,-1,17
 652 1259 652 1259 633 1239.5 c 128,-1,18
 614 1220 614 1220 589.5 1211 c 128,-1,19
 565 1202 565 1202 540 1202 c 0,20,21
 485 1202 485 1202 388 1244 c 0,22,23
 338 1265 338 1265 309 1276 c 128,-1,24
 280 1287 280 1287 269 1288 c 1,25,-1
 267 1288 l 2,26,27
 248 1288 248 1288 235.5 1265.5 c 128,-1,28
 223 1243 223 1243 223 1200 c 1,29,-1
 127 1200 l 1,0,1
EndSplineSet
EndChar

StartChar: hungarumlaut
Encoding: 733 733 340
Width: 745
Flags: W
LayerCount: 2
Fore
SplineSet
192 1492 m 1,0,-1
 381 1492 l 1,1,-1
 153 1172 l 1,2,-1
 87 1172 l 1,3,-1
 192 1492 l 1,0,-1
490 1492 m 1,4,-1
 685 1492 l 1,5,-1
 428 1172 l 1,6,-1
 355 1172 l 1,7,-1
 490 1492 l 1,4,-1
EndSplineSet
EndChar

StartChar: uni0307
Encoding: 775 775 341
Width: 539
Flags: W
LayerCount: 2
Fore
SplineSet
270 1268 m 2,0,1
 240 1268 240 1268 217 1278.5 c 128,-1,2
 194 1289 194 1289 178.5 1306.5 c 128,-1,3
 163 1324 163 1324 155.5 1346.5 c 128,-1,4
 148 1369 148 1369 148 1393 c 256,5,6
 148 1417 148 1417 156 1439.5 c 128,-1,7
 164 1462 164 1462 179.5 1479 c 128,-1,8
 195 1496 195 1496 217.5 1506.5 c 128,-1,9
 240 1517 240 1517 270 1517 c 0,10,11
 299 1517 299 1517 322 1507 c 128,-1,12
 345 1497 345 1497 360.5 1479.5 c 128,-1,13
 376 1462 376 1462 384 1440 c 128,-1,14
 392 1418 392 1418 392 1394 c 256,15,16
 392 1370 392 1370 384.5 1347.5 c 128,-1,17
 377 1325 377 1325 362 1307.5 c 128,-1,18
 347 1290 347 1290 325.5 1279 c 128,-1,19
 304 1268 304 1268 276 1268 c 2,20,-1
 270 1268 l 2,0,1
EndSplineSet
EndChar

StartChar: uni030F
Encoding: 783 783 342
Width: 744
Flags: W
LayerCount: 2
Fore
SplineSet
74 1492 m 1,0,-1
 256 1492 l 1,1,-1
 381 1172 l 1,2,-1
 306 1172 l 1,3,-1
 74 1492 l 1,0,-1
372 1492 m 1,4,-1
 554 1492 l 1,5,-1
 679 1172 l 1,6,-1
 610 1172 l 1,7,-1
 372 1492 l 1,4,-1
EndSplineSet
EndChar

StartChar: uni0311
Encoding: 785 785 343
Width: 805
Flags: W
LayerCount: 2
Fore
SplineSet
678 1183 m 1,0,-1
 562 1183 l 1,1,2
 561 1219 561 1219 547 1247 c 128,-1,3
 533 1275 533 1275 510.5 1294 c 128,-1,4
 488 1313 488 1313 460 1322.5 c 128,-1,5
 432 1332 432 1332 402 1332 c 256,6,7
 372 1332 372 1332 344 1322.5 c 128,-1,8
 316 1313 316 1313 293.5 1294 c 128,-1,9
 271 1275 271 1275 257 1247 c 128,-1,10
 243 1219 243 1219 242 1183 c 1,11,-1
 126 1183 l 1,12,13
 127 1244 127 1244 150 1291.5 c 128,-1,14
 173 1339 173 1339 210.5 1371.5 c 128,-1,15
 248 1404 248 1404 297.5 1421 c 128,-1,16
 347 1438 347 1438 402 1438 c 0,17,18
 456 1438 456 1438 505.5 1421 c 128,-1,19
 555 1404 555 1404 593 1371.5 c 128,-1,20
 631 1339 631 1339 653.5 1291.5 c 128,-1,21
 676 1244 676 1244 678 1183 c 1,0,-1
EndSplineSet
EndChar

StartChar: uni0326
Encoding: 806 806 344
Width: 409
Flags: W
LayerCount: 2
Fore
SplineSet
210 -168 m 1,0,-1
 100 -168 l 1,1,-1
 100 0 l 1,2,-1
 300 0 l 1,3,-1
 300 -160 l 2,4,5
 300 -201 300 -201 289.5 -243 c 128,-1,6
 279 -285 279 -285 262.5 -319 c 128,-1,7
 246 -353 246 -353 226.5 -375 c 128,-1,8
 207 -397 207 -397 190 -397 c 1,9,-1
 143 -375 l 1,10,11
 207 -327 207 -327 210 -168 c 1,0,-1
EndSplineSet
EndChar

StartChar: uni03BC
Encoding: 956 956 345
Width: 1119
Flags: W
LayerCount: 2
Fore
SplineSet
842 1023 m 1,0,-1
 984 1023 l 1,1,-1
 984 0 l 1,2,-1
 864 0 l 1,3,-1
 843 159 l 1,4,5
 736 -27 736 -27 524 -27 c 0,6,7
 382 -27 382 -27 282 87 c 1,8,-1
 282 -224 l 1,9,-1
 135 -224 l 1,10,-1
 135 1023 l 1,11,-1
 282 1023 l 1,12,-1
 282 436 l 2,13,14
 282 357 282 357 296 292.5 c 128,-1,15
 310 228 310 228 339.5 182.5 c 128,-1,16
 369 137 369 137 413.5 112 c 128,-1,17
 458 87 458 87 520 87 c 0,18,19
 585 87 585 87 634.5 105.5 c 128,-1,20
 684 124 684 124 720 154 c 128,-1,21
 756 184 756 184 779.5 222 c 128,-1,22
 803 260 803 260 817 299 c 128,-1,23
 831 338 831 338 836.5 374 c 128,-1,24
 842 410 842 410 842 436 c 2,25,-1
 842 1023 l 1,0,-1
EndSplineSet
EndChar

StartChar: endash
Encoding: 8211 8211 346
Width: 1024
Flags: W
LayerCount: 2
Fore
SplineSet
135 334 m 1,0,-1
 135 420 l 1,1,-1
 889 420 l 1,2,-1
 889 334 l 1,3,-1
 135 334 l 1,0,-1
EndSplineSet
EndChar

StartChar: emdash
Encoding: 8212 8212 347
Width: 2048
Flags: W
LayerCount: 2
Fore
SplineSet
135 334 m 1,0,-1
 135 420 l 1,1,-1
 1913 420 l 1,2,-1
 1913 334 l 1,3,-1
 135 334 l 1,0,-1
EndSplineSet
EndChar

StartChar: quoteleft
Encoding: 8216 8216 348
Width: 461
Flags: W
LayerCount: 2
Fore
SplineSet
265 1469 m 1,0,1
 265 1468 265 1468 276 1462 c 128,-1,2
 287 1456 287 1456 300 1449 c 128,-1,3
 313 1442 313 1442 323.5 1436.5 c 128,-1,4
 334 1431 334 1431 334 1431 c 1,5,6
 309 1389 309 1389 293.5 1361.5 c 128,-1,7
 278 1334 278 1334 270 1310 c 128,-1,8
 262 1286 262 1286 259 1261 c 128,-1,9
 256 1236 256 1236 256 1200 c 1,10,-1
 350 1187 l 1,11,-1
 350 992 l 1,12,-1
 150 992 l 1,13,-1
 150 1177 l 1,14,-1
 156 1256 l 1,15,16
 163 1316 163 1316 185.5 1369 c 128,-1,17
 208 1422 208 1422 265 1469 c 1,0,1
EndSplineSet
EndChar

StartChar: quoteright
Encoding: 8217 8217 349
Width: 438
Flags: W
LayerCount: 2
Fore
SplineSet
100 1292 m 1,0,-1
 100 1464 l 1,1,-1
 300 1464 l 1,2,3
 298 1435 298 1435 297.5 1405 c 128,-1,4
 297 1375 297 1375 297 1345.5 c 128,-1,5
 297 1316 297 1316 296 1288.5 c 128,-1,6
 295 1261 295 1261 293 1239 c 0,7,8
 288 1161 288 1161 255.5 1098.5 c 128,-1,9
 223 1036 223 1036 160 991 c 1,10,-1
 111 1054 l 1,11,12
 123 1066 123 1066 136.5 1087 c 128,-1,13
 150 1108 150 1108 161.5 1136.5 c 128,-1,14
 173 1165 173 1165 181 1200 c 128,-1,15
 189 1235 189 1235 190 1274 c 1,16,-1
 122 1287 l 1,17,-1
 100 1292 l 1,0,-1
EndSplineSet
EndChar

StartChar: quotesinglbase
Encoding: 8218 8218 350
Width: 436
Flags: W
LayerCount: 2
Fore
SplineSet
128 -81 m 2,0,-1
 128 93 l 1,1,-1
 320 93 l 1,2,3
 318 8 318 8 314 -51 c 128,-1,4
 310 -110 310 -110 304 -144 c 0,5,6
 274 -301 274 -301 159 -382 c 1,7,-1
 110 -319 l 1,8,9
 122 -307 122 -307 135.5 -286 c 128,-1,10
 149 -265 149 -265 160.5 -236.5 c 128,-1,11
 172 -208 172 -208 180 -173 c 128,-1,12
 188 -138 188 -138 189 -99 c 1,13,14
 128 -83 128 -83 128 -81 c 2,0,-1
EndSplineSet
EndChar

StartChar: quotedblleft
Encoding: 8220 8220 351
Width: 744
Flags: W
LayerCount: 2
Fore
SplineSet
579 1473 m 1,0,-1
 628 1410 l 1,1,2
 614 1397 614 1397 600 1377 c 128,-1,3
 586 1357 586 1357 574.5 1330.5 c 128,-1,4
 563 1304 563 1304 555.5 1270 c 128,-1,5
 548 1236 548 1236 547 1196 c 1,6,-1
 650 1183 l 1,7,-1
 650 995 l 1,8,-1
 450 995 l 1,9,-1
 450 1084 l 2,10,11
 450 1088 450 1088 450.5 1103 c 128,-1,12
 451 1118 451 1118 451.5 1135 c 128,-1,13
 452 1152 452 1152 452.5 1167 c 128,-1,14
 453 1182 453 1182 453 1186 c 2,15,-1
 456 1233 l 1,16,17
 457 1266 457 1266 462 1281 c 1,18,19
 468 1306 468 1306 475.5 1332 c 128,-1,20
 483 1358 483 1358 496 1383 c 128,-1,21
 509 1408 509 1408 529 1431 c 128,-1,22
 549 1454 549 1454 579 1473 c 1,0,-1
285 1473 m 1,23,-1
 334 1410 l 1,24,25
 320 1397 320 1397 306 1377 c 128,-1,26
 292 1357 292 1357 280.5 1330.5 c 128,-1,27
 269 1304 269 1304 261.5 1270.5 c 128,-1,28
 254 1237 254 1237 253 1197 c 1,29,-1
 350 1183 l 1,30,-1
 350 995 l 1,31,-1
 150 995 l 1,32,-1
 150 1084 l 2,33,34
 150 1143 150 1143 151.5 1197.5 c 128,-1,35
 153 1252 153 1252 165 1301 c 128,-1,36
 177 1350 177 1350 204.5 1393.5 c 128,-1,37
 232 1437 232 1437 285 1473 c 1,23,-1
EndSplineSet
EndChar

StartChar: quotedblright
Encoding: 8221 8221 352
Width: 729
Flags: W
LayerCount: 2
Fore
SplineSet
400 1292 m 1,0,-1
 400 1464 l 1,1,-1
 600 1464 l 1,2,3
 600 1425 600 1425 599 1385 c 128,-1,4
 598 1345 598 1345 595.5 1309 c 128,-1,5
 593 1273 593 1273 590 1244.5 c 128,-1,6
 587 1216 587 1216 583 1201 c 0,7,8
 571 1144 571 1144 542 1089 c 128,-1,9
 513 1034 513 1034 452 991 c 1,10,-1
 401 1054 l 1,11,12
 414 1065 414 1065 427.5 1086 c 128,-1,13
 441 1107 441 1107 453 1135 c 128,-1,14
 465 1163 465 1163 472.5 1198 c 128,-1,15
 480 1233 480 1233 481 1273 c 1,16,-1
 400 1292 l 1,0,-1
99 1292 m 1,17,-1
 99 1464 l 1,18,-1
 300 1464 l 1,19,20
 300 1437 300 1437 299.5 1406 c 128,-1,21
 299 1375 299 1375 298.5 1345 c 128,-1,22
 298 1315 298 1315 296.5 1287.5 c 128,-1,23
 295 1260 295 1260 293 1239 c 0,24,25
 282 1081 282 1081 159 991 c 1,26,-1
 109 1054 l 1,27,28
 121 1065 121 1065 135 1086 c 128,-1,29
 149 1107 149 1107 160.5 1135.5 c 128,-1,30
 172 1164 172 1164 180 1199 c 128,-1,31
 188 1234 188 1234 189 1274 c 1,32,-1
 122 1287 l 1,33,-1
 99 1292 l 1,17,-1
EndSplineSet
EndChar

StartChar: quotedblbase
Encoding: 8222 8222 353
Width: 744
Flags: W
LayerCount: 2
Fore
SplineSet
434 -81 m 2,0,-1
 434 93 l 1,1,-1
 628 93 l 1,2,3
 626 8 626 8 622 -51 c 128,-1,4
 618 -110 618 -110 612 -144 c 0,5,6
 582 -301 582 -301 467 -382 c 1,7,-1
 418 -319 l 1,8,9
 430 -307 430 -307 443.5 -286 c 128,-1,10
 457 -265 457 -265 468.5 -236.5 c 128,-1,11
 480 -208 480 -208 488 -173 c 128,-1,12
 496 -138 496 -138 497 -99 c 1,13,14
 434 -83 434 -83 434 -81 c 2,0,-1
126 -81 m 1,15,-1
 126 93 l 1,16,-1
 320 93 l 1,17,18
 318 8 318 8 314 -51 c 128,-1,19
 310 -110 310 -110 304 -144 c 0,20,21
 274 -301 274 -301 159 -382 c 1,22,-1
 110 -319 l 1,23,24
 122 -307 122 -307 135.5 -286 c 128,-1,25
 149 -265 149 -265 160.5 -236.5 c 128,-1,26
 172 -208 172 -208 180 -173 c 128,-1,27
 188 -138 188 -138 189 -99 c 1,28,29
 189 -99 189 -99 181 -97 c 128,-1,30
 173 -95 173 -95 163 -92 c 128,-1,31
 153 -89 153 -89 143 -86.5 c 128,-1,32
 133 -84 133 -84 128 -82 c 2,33,-1
 126 -81 l 1,15,-1
EndSplineSet
EndChar

StartChar: guilsinglleft
Encoding: 8249 8249 354
Width: 528
Flags: W
LayerCount: 2
Fore
SplineSet
51 552 m 1,0,-1
 51 749 l 1,1,-1
 435 1050 l 1,2,-1
 435 909 l 1,3,-1
 149 650 l 1,4,-1
 435 393 l 1,5,-1
 435 251 l 1,6,-1
 51 552 l 1,0,-1
EndSplineSet
EndChar

StartChar: guilsinglright
Encoding: 8250 8250 355
Width: 528
Flags: W
LayerCount: 2
Fore
SplineSet
51 251 m 1,0,-1
 51 393 l 1,1,-1
 337 650 l 1,2,-1
 51 909 l 1,3,-1
 51 1050 l 1,4,-1
 435 749 l 1,5,-1
 435 552 l 1,6,-1
 51 251 l 1,0,-1
EndSplineSet
EndChar

StartChar: uni2074
Encoding: 8308 8308 356
Width: 1441
Flags: W
LayerCount: 2
Fore
SplineSet
239 924 m 1,0,-1
 239 992 l 1,1,-1
 559 1465 l 1,2,-1
 705 1465 l 1,3,-1
 705 1006 l 1,4,-1
 805 1006 l 1,5,-1
 805 924 l 1,6,-1
 705 924 l 1,7,-1
 705 772 l 1,8,-1
 590 772 l 1,9,-1
 590 924 l 1,10,-1
 239 924 l 1,0,-1
590 1006 m 1,11,-1
 590 1357 l 1,12,-1
 353 1006 l 1,13,-1
 590 1006 l 1,11,-1
EndSplineSet
EndChar

StartChar: Euro
Encoding: 8364 8364 357
Width: 1275
Flags: W
LayerCount: 2
Fore
SplineSet
1154 340 m 1,0,1
 1125 250 1125 250 1089.5 182 c 128,-1,2
 1054 114 1054 114 1000.5 68.5 c 128,-1,3
 947 23 947 23 871 0 c 128,-1,4
 795 -23 795 -23 686 -23 c 0,5,6
 567 -23 567 -23 470.5 14 c 128,-1,7
 374 51 374 51 302 126.5 c 128,-1,8
 230 202 230 202 184 316.5 c 128,-1,9
 138 431 138 431 122 586 c 1,10,-1
 -13 586 l 1,11,-1
 -13 672 l 1,12,-1
 115 672 l 1,13,14
 114 680 114 680 114 696.5 c 128,-1,15
 114 713 114 713 114 736 c 256,16,17
 114 759 114 759 114 774 c 128,-1,18
 114 789 114 789 115 796 c 1,19,-1
 -13 796 l 1,20,-1
 -13 882 l 1,21,-1
 121 882 l 1,22,23
 152 1190 152 1190 296 1341.5 c 128,-1,24
 440 1493 440 1493 682 1493 c 0,25,26
 772 1493 772 1493 847 1473.5 c 128,-1,27
 922 1454 922 1454 981 1408.5 c 128,-1,28
 1040 1363 1040 1363 1082 1288.5 c 128,-1,29
 1124 1214 1124 1214 1149 1104 c 1,30,-1
 1015 1073 l 1,31,32
 1008 1099 1008 1099 1000 1132 c 128,-1,33
 992 1165 992 1165 978.5 1198.5 c 128,-1,34
 965 1232 965 1232 944.5 1264 c 128,-1,35
 924 1296 924 1296 891.5 1321 c 128,-1,36
 859 1346 859 1346 813 1361 c 128,-1,37
 767 1376 767 1376 704 1376 c 0,38,39
 599 1376 599 1376 523.5 1345 c 128,-1,40
 448 1314 448 1314 396.5 1252 c 128,-1,41
 345 1190 345 1190 315.5 1097.5 c 128,-1,42
 286 1005 286 1005 274 882 c 1,43,-1
 641 882 l 1,44,-1
 641 796 l 1,45,-1
 268 796 l 1,46,47
 267 789 267 789 267 774 c 128,-1,48
 267 759 267 759 267 736 c 256,49,50
 267 713 267 713 267 696.5 c 128,-1,51
 267 680 267 680 268 672 c 1,52,-1
 641 672 l 1,53,-1
 641 586 l 1,54,-1
 275 586 l 1,55,56
 302 339 302 339 401.5 217 c 128,-1,57
 501 95 501 95 689 95 c 0,58,59
 777 95 777 95 833.5 117 c 128,-1,60
 890 139 890 139 926.5 177 c 128,-1,61
 963 215 963 215 986.5 267 c 128,-1,62
 1010 319 1010 319 1032 379 c 1,63,-1
 1154 340 l 1,64,-1
 1154 340 l 1,0,1
EndSplineSet
EndChar

StartChar: trademark
Encoding: 8482 8482 358
Width: 1847
Flags: W
LayerCount: 2
Fore
SplineSet
116 1370 m 1,0,-1
 116 1465 l 1,1,-1
 757 1465 l 1,2,-1
 757 1370 l 1,3,-1
 492 1370 l 1,4,-1
 492 616 l 1,5,-1
 378 616 l 1,6,-1
 378 1370 l 1,7,-1
 116 1370 l 1,0,-1
938 616 m 1,8,-1
 938 1465 l 1,9,-1
 1081 1465 l 1,10,-1
 1331 876 l 1,11,-1
 1587 1464 l 1,12,-1
 1718 1464 l 1,13,-1
 1718 616 l 1,14,-1
 1614 616 l 1,15,-1
 1614 1267 l 1,16,-1
 1373 732 l 1,17,-1
 1280 732 l 1,18,-1
 1046 1270 l 1,19,-1
 1046 616 l 1,20,-1
 938 616 l 1,8,-1
EndSplineSet
EndChar

StartChar: minus
Encoding: 8722 8722 359
Width: 1024
Flags: W
LayerCount: 2
Fore
SplineSet
135 670 m 1,0,-1
 135 756 l 1,1,-1
 803 756 l 1,2,-1
 803 670 l 1,3,-1
 135 670 l 1,0,-1
EndSplineSet
EndChar

StartChar: fi
Encoding: 64257 64257 360
Width: 1071
Flags: W
LayerCount: 2
Fore
SplineSet
793 1242 m 1,0,-1
 793 1421 l 1,1,-1
 934 1421 l 1,2,-1
 934 1242 l 1,3,-1
 793 1242 l 1,0,-1
468 1365 m 2,4,-1
 459 1365 l 2,5,6
 435 1365 435 1365 419 1355.5 c 128,-1,7
 403 1346 403 1346 393 1331 c 128,-1,8
 383 1316 383 1316 377.5 1296.5 c 128,-1,9
 372 1277 372 1277 371 1256 c 2,10,-1
 367 1203 l 1,11,-1
 367 1023 l 1,12,-1
 937 1023 l 1,13,-1
 937 0 l 1,14,-1
 795 0 l 1,15,-1
 795 917 l 1,16,-1
 367 917 l 1,17,-1
 367 -1 l 1,18,-1
 225 -1 l 1,19,-1
 225 917 l 1,20,-1
 52 917 l 1,21,-1
 52 1023 l 1,22,-1
 225 1023 l 1,23,-1
 225 1140 l 2,24,25
 225 1225 225 1225 237.5 1287.5 c 128,-1,26
 250 1350 250 1350 278 1391 c 128,-1,27
 306 1432 306 1432 350.5 1451.5 c 128,-1,28
 395 1471 395 1471 459 1471 c 0,29,30
 539 1471 539 1471 615 1430 c 1,31,-1
 581 1338 l 1,32,33
 509 1365 509 1365 468 1365 c 2,4,-1
EndSplineSet
EndChar

StartChar: fl
Encoding: 64258 64258 361
Width: 1072
Flags: W
LayerCount: 2
Fore
SplineSet
468 1365 m 2,0,-1
 459 1365 l 2,1,2
 435 1365 435 1365 419 1355.5 c 128,-1,3
 403 1346 403 1346 393 1331 c 128,-1,4
 383 1316 383 1316 377.5 1296.5 c 128,-1,5
 372 1277 372 1277 371 1256 c 2,6,-1
 367 1203 l 1,7,-1
 367 1023 l 1,8,-1
 795 1023 l 1,9,-1
 795 1474 l 1,10,-1
 937 1474 l 1,11,-1
 937 0 l 1,12,-1
 795 0 l 1,13,-1
 795 917 l 1,14,-1
 367 917 l 1,15,-1
 367 -1 l 1,16,-1
 225 -1 l 1,17,-1
 225 917 l 1,18,-1
 52 917 l 1,19,-1
 52 1023 l 1,20,-1
 225 1023 l 1,21,-1
 225 1140 l 2,22,23
 225 1225 225 1225 237.5 1287.5 c 128,-1,24
 250 1350 250 1350 278 1391 c 128,-1,25
 306 1432 306 1432 350.5 1451.5 c 128,-1,26
 395 1471 395 1471 459 1471 c 0,27,28
 539 1471 539 1471 615 1430 c 1,29,-1
 581 1338 l 1,30,31
 509 1365 509 1365 468 1365 c 2,0,-1
EndSplineSet
EndChar

StartChar: _363
Encoding: 65540 -1 363
Width: 444
Flags: W
LayerCount: 2
Fore
SplineSet
100 -100 m 1,0,-1
 300 -100 l 1,1,-1
 300 -185 l 1,2,3
 298 -262 298 -262 293 -315 c 128,-1,4
 288 -368 288 -368 281 -397 c 0,5,6
 254 -512 254 -512 163 -573 c 1,7,-1
 114 -511 l 1,8,9
 126 -502 126 -502 140 -481.5 c 128,-1,10
 154 -461 154 -461 165.5 -432 c 128,-1,11
 177 -403 177 -403 185 -367.5 c 128,-1,12
 193 -332 193 -332 194 -293 c 1,13,-1
 100 -293 l 1,14,-1
 100 -100 l 1,0,-1
EndSplineSet
EndChar

